Khula-ExtraBold.ufo
<glyph name="exclam" format="1">
  <advance width="669"/>
  <unicode hex="0021"/>
  <outline>
    <contour>
      <point x="483" y="464" type="line"/>
      <point x="186" y="464" type="line"/>
      <point x="140" y="1316" type="line"/>
      <point x="529" y="1316" type="line"/>
    </contour>
    <contour>
      <point x="143" y="149" type="curve" smooth="yes"/>
      <point x="143" y="258"/>
      <point x="210" y="322"/>
      <point x="333" y="322" type="curve" smooth="yes"/>
      <point x="456" y="322"/>
      <point x="520" y="258"/>
      <point x="520" y="149" type="curve" smooth="yes"/>
      <point x="520" y="41"/>
      <point x="450" y="-23"/>
      <point x="333" y="-23" type="curve" smooth="yes"/>
      <point x="214" y="-23"/>
      <point x="143" y="41"/>
    </contour>
  </outline>
</glyph>
<glyph name="quotedbl" format="1">
  <advance width="1028"/>
  <unicode hex="0022"/>
  <outline>
    <contour>
      <point x="460" y="1316" type="line"/>
      <point x="423" y="841" type="line"/>
      <point x="177" y="841" type="line"/>
      <point x="140" y="1316" type="line"/>
    </contour>
    <contour>
      <point x="888" y="1316" type="line"/>
      <point x="851" y="841" type="line"/>
      <point x="604" y="841" type="line"/>
      <point x="567" y="1316" type="line"/>
    </contour>
  </outline>
</glyph>
<glyph name="numbersign" format="1">
  <advance width="1220"/>
  <unicode hex="0023"/>
  <outline>
    <contour>
      <point x="938" y="732" type="line"/>
      <point x="911" y="580" type="line"/>
      <point x="1129" y="580" type="line"/>
      <point x="1129" y="352" type="line"/>
      <point x="868" y="352" type="line"/>
      <point x="802" y="0" type="line"/>
      <point x="561" y="0" type="line"/>
      <point x="626" y="352" type="line"/>
      <point x="475" y="352" type="line"/>
      <point x="411" y="0" type="line"/>
      <point x="171" y="0" type="line"/>
      <point x="236" y="352" type="line"/>
      <point x="33" y="352" type="line"/>
      <point x="33" y="580" type="line"/>
      <point x="280" y="580" type="line"/>
      <point x="308" y="732" type="line"/>
      <point x="94" y="732" type="line"/>
      <point x="94" y="966" type="line"/>
      <point x="352" y="966" type="line"/>
      <point x="417" y="1316" type="line"/>
      <point x="658" y="1316" type="line"/>
      <point x="591" y="966" type="line"/>
      <point x="741" y="966" type="line"/>
      <point x="805" y="1316" type="line"/>
      <point x="1047" y="1316" type="line"/>
      <point x="981" y="966" type="line"/>
      <point x="1187" y="966" type="line"/>
      <point x="1187" y="732" type="line"/>
    </contour>
    <contour>
      <point x="520" y="580" type="line"/>
      <point x="669" y="580" type="line"/>
      <point x="697" y="732" type="line"/>
      <point x="547" y="732" type="line"/>
    </contour>
  </outline>
</glyph>
<glyph name="quotesingle" format="1">
  <advance width="640"/>
  <unicode hex="0027"/>
  <outline>
    <contour>
      <point x="480" y="1316" type="line"/>
      <point x="443" y="841" type="line"/>
      <point x="197" y="841" type="line"/>
      <point x="160" y="1316" type="line"/>
    </contour>
  </outline>
</glyph>
<glyph name="parenleft" format="1">
  <advance width="725"/>
  <unicode hex="0028"/>
  <outline>
    <contour>
      <point x="100" y="604" type="curve" smooth="yes"/>
      <point x="100" y="952"/>
      <point x="185" y="1234"/>
      <point x="352" y="1433" type="curve"/>
      <point x="645" y="1433" type="line"/>
      <point x="570" y="1328"/>
      <point x="511" y="1204"/>
      <point x="470" y="1062" type="curve" smooth="yes"/>
      <point x="429" y="920"/>
      <point x="409" y="768"/>
      <point x="409" y="606" type="curve" smooth="yes"/>
      <point x="409" y="449"/>
      <point x="429" y="301"/>
      <point x="468" y="160" type="curve" smooth="yes"/>
      <point x="508" y="19"/>
      <point x="566" y="-105"/>
      <point x="643" y="-212" type="curve"/>
      <point x="352" y="-212" type="line"/>
      <point x="187" y="-21"/>
      <point x="100" y="259"/>
    </contour>
  </outline>
</glyph>
<glyph name="parenright" format="1">
  <advance width="727"/>
  <unicode hex="0029"/>
  <outline>
    <contour>
      <point x="627" y="604" type="curve" smooth="yes"/>
      <point x="627" y="264"/>
      <point x="539" y="-20"/>
      <point x="374" y="-212" type="curve"/>
      <point x="82" y="-212" type="line"/>
      <point x="158" y="-109"/>
      <point x="216" y="14"/>
      <point x="256" y="156" type="curve" smooth="yes"/>
      <point x="296" y="298"/>
      <point x="316" y="448"/>
      <point x="316" y="606" type="curve" smooth="yes"/>
      <point x="316" y="923"/>
      <point x="236" y="1216"/>
      <point x="80" y="1433" type="curve"/>
      <point x="374" y="1433" type="line"/>
      <point x="541" y="1233"/>
      <point x="627" y="943"/>
    </contour>
  </outline>
</glyph>
<glyph name="plus" format="1">
  <advance width="1043"/>
  <unicode hex="002B"/>
  <outline>
    <contour>
      <point x="400" y="529" type="line"/>
      <point x="65" y="529" type="line"/>
      <point x="65" y="770" type="line"/>
      <point x="400" y="770" type="line"/>
      <point x="400" y="1101" type="line"/>
      <point x="642" y="1101" type="line"/>
      <point x="642" y="770" type="line"/>
      <point x="976" y="770" type="line"/>
      <point x="976" y="529" type="line"/>
      <point x="642" y="529" type="line"/>
      <point x="642" y="204" type="line"/>
      <point x="400" y="204" type="line"/>
    </contour>
  </outline>
</glyph>
<glyph name="comma.deva" format="1">
  <advance width="610"/>
  <unicode hex="002C"/>
  <outline>
    <contour>
      <point x="497" y="269" type="line"/>
      <point x="510" y="248" type="line"/>
      <point x="451" y="19"/>
      <point x="398" y="-149"/>
      <point x="351" y="-257" type="curve"/>
      <point x="100" y="-257" type="line"/>
      <point x="117" y="-174"/>
      <point x="135" y="-81"/>
      <point x="152" y="22" type="curve" smooth="yes"/>
      <point x="170" y="125"/>
      <point x="182" y="207"/>
      <point x="189" y="269" type="curve"/>
    </contour>
  </outline>
</glyph>
<glyph name="comma" format="1">
  <advance width="570"/>
  <unicode hex="002C"/>
  <outline>
    <contour>
      <point x="448" y="269" type="line"/>
      <point x="461" y="248" type="line"/>
      <point x="402" y="19"/>
      <point x="349" y="-149"/>
      <point x="302" y="-257" type="curve"/>
      <point x="51" y="-257" type="line"/>
      <point x="68" y="-174"/>
      <point x="86" y="-81"/>
      <point x="103" y="22" type="curve" smooth="yes"/>
      <point x="121" y="125"/>
      <point x="133" y="207"/>
      <point x="140" y="269" type="curve"/>
    </contour>
  </outline>
</glyph>
<glyph name="hyphen" format="1">
  <advance width="708"/>
  <unicode hex="002D"/>
  <outline>
    <contour>
      <point x="100" y="434" type="line"/>
      <point x="100" y="714" type="line"/>
      <point x="608" y="714" type="line"/>
      <point x="608" y="434" type="line"/>
    </contour>
  </outline>
</glyph>
<glyph name="period.deva" format="1">
  <advance width="577"/>
  <unicode hex="002E"/>
  <outline>
    <contour>
      <point x="100" y="149" type="curve" smooth="yes"/>
      <point x="100" y="260"/>
      <point x="167" y="322"/>
      <point x="292" y="322" type="curve" smooth="yes"/>
      <point x="411" y="322"/>
      <point x="477" y="260"/>
      <point x="477" y="149" type="curve" smooth="yes"/>
      <point x="477" y="41"/>
      <point x="407" y="-23"/>
      <point x="292" y="-23" type="curve" smooth="yes"/>
      <point x="173" y="-23"/>
      <point x="100" y="40"/>
    </contour>
  </outline>
</glyph>
<glyph name="slash" format="1">
  <advance width="814"/>
  <unicode hex="002F"/>
  <outline>
    <contour>
      <point x="811" y="1335" type="line"/>
      <point x="320" y="-18" type="line"/>
      <point x="9" y="-18" type="line"/>
      <point x="499" y="1335" type="line"/>
    </contour>
  </outline>
</glyph>
<glyph name="one" format="1">
  <advance width="1080"/>
  <unicode hex="0031"/>
  <outline>
    <contour>
      <point x="848" y="0" type="line"/>
      <point x="487" y="0" type="line"/>
      <point x="487" y="697" type="line" smooth="yes"/>
      <point x="487" y="781"/>
      <point x="489" y="858"/>
      <point x="492" y="929" type="curve"/>
      <point x="470" y="902"/>
      <point x="442" y="873"/>
      <point x="409" y="844" type="curve"/>
      <point x="260" y="721" type="line"/>
      <point x="76" y="948" type="line"/>
      <point x="527" y="1316" type="line"/>
      <point x="848" y="1316" type="line"/>
    </contour>
  </outline>
</glyph>
<glyph name="colon.deva" format="1">
  <advance width="777"/>
  <unicode hex="003A"/>
  <outline>
    <contour>
      <point x="200" y="149" type="curve" smooth="yes"/>
      <point x="200" y="260"/>
      <point x="267" y="322"/>
      <point x="392" y="322" type="curve" smooth="yes"/>
      <point x="511" y="322"/>
      <point x="577" y="260"/>
      <point x="577" y="149" type="curve" smooth="yes"/>
      <point x="577" y="41"/>
      <point x="507" y="-23"/>
      <point x="392" y="-23" type="curve" smooth="yes"/>
      <point x="273" y="-23"/>
      <point x="200" y="40"/>
    </contour>
    <contour>
      <point x="200" y="860" type="curve" smooth="yes"/>
      <point x="200" y="969"/>
      <point x="268" y="1032"/>
      <point x="392" y="1032" type="curve" smooth="yes"/>
      <point x="511" y="1032"/>
      <point x="577" y="969"/>
      <point x="577" y="860" type="curve" smooth="yes"/>
      <point x="577" y="752"/>
      <point x="508" y="688"/>
      <point x="392" y="688" type="curve" smooth="yes"/>
      <point x="269" y="688"/>
      <point x="200" y="752"/>
    </contour>
  </outline>
</glyph>
<glyph name="colon" format="1">
  <advance width="573"/>
  <unicode hex="003A"/>
  <outline>
    <contour>
      <point x="117" y="149" type="curve" smooth="yes"/>
      <point x="117" y="260"/>
      <point x="184" y="322"/>
      <point x="309" y="322" type="curve" smooth="yes"/>
      <point x="428" y="322"/>
      <point x="494" y="260"/>
      <point x="494" y="149" type="curve" smooth="yes"/>
      <point x="494" y="41"/>
      <point x="424" y="-23"/>
      <point x="309" y="-23" type="curve" smooth="yes"/>
      <point x="190" y="-23"/>
      <point x="117" y="40"/>
    </contour>
    <contour>
      <point x="117" y="860" type="curve" smooth="yes"/>
      <point x="117" y="969"/>
      <point x="185" y="1032"/>
      <point x="309" y="1032" type="curve" smooth="yes"/>
      <point x="428" y="1032"/>
      <point x="494" y="969"/>
      <point x="494" y="860" type="curve" smooth="yes"/>
      <point x="494" y="752"/>
      <point x="425" y="688"/>
      <point x="309" y="688" type="curve" smooth="yes"/>
      <point x="186" y="688"/>
      <point x="117" y="752"/>
    </contour>
  </outline>
</glyph>
<glyph name="semicolon" format="1">
  <advance width="587"/>
  <unicode hex="003B"/>
  <outline>
    <contour>
      <point x="488" y="269" type="line"/>
      <point x="501" y="248" type="line"/>
      <point x="442" y="19"/>
      <point x="389" y="-149"/>
      <point x="342" y="-257" type="curve"/>
      <point x="91" y="-257" type="line"/>
      <point x="108" y="-174"/>
      <point x="126" y="-81"/>
      <point x="143" y="22" type="curve" smooth="yes"/>
      <point x="161" y="125"/>
      <point x="173" y="207"/>
      <point x="180" y="269" type="curve"/>
    </contour>
    <contour>
      <point x="123" y="860" type="curve" smooth="yes"/>
      <point x="123" y="969"/>
      <point x="188" y="1032"/>
      <point x="313" y="1032" type="curve" smooth="yes"/>
      <point x="433" y="1032"/>
      <point x="499" y="968"/>
      <point x="499" y="860" type="curve" smooth="yes"/>
      <point x="499" y="752"/>
      <point x="432" y="688"/>
      <point x="313" y="688" type="curve" smooth="yes"/>
      <point x="190" y="688"/>
      <point x="123" y="751"/>
    </contour>
  </outline>
</glyph>
<glyph name="less" format="1">
  <advance width="1043"/>
  <unicode hex="003C"/>
  <outline>
    <contour>
      <point x="975" y="160" type="line"/>
      <point x="65" y="564" type="line"/>
      <point x="65" y="719" type="line"/>
      <point x="975" y="1174" type="line"/>
      <point x="975" y="907" type="line"/>
      <point x="417" y="652" type="line"/>
      <point x="975" y="426" type="line"/>
    </contour>
  </outline>
</glyph>
<glyph name="equal" format="1">
  <advance width="1043"/>
  <unicode hex="003D"/>
  <outline>
    <contour>
      <point x="65" y="733" type="line"/>
      <point x="65" y="975" type="line"/>
      <point x="978" y="975" type="line"/>
      <point x="978" y="733" type="line"/>
    </contour>
    <contour>
      <point x="65" y="322" type="line"/>
      <point x="65" y="566" type="line"/>
      <point x="978" y="566" type="line"/>
      <point x="978" y="322" type="line"/>
    </contour>
  </outline>
</glyph>
<glyph name="question.deva" format="1">
  <advance width="1227"/>
  <unicode hex="003F"/>
  <outline>
    <contour>
      <point x="455" y="464" type="line"/>
      <point x="455" y="542" type="line" smooth="yes"/>
      <point x="455" y="601"/>
      <point x="467" y="650"/>
      <point x="491" y="690" type="curve" smooth="yes"/>
      <point x="515" y="731"/>
      <point x="558" y="770"/>
      <point x="619" y="809" type="curve" smooth="yes"/>
      <point x="716" y="870"/>
      <point x="756" y="913"/>
      <point x="756" y="976" type="curve" smooth="yes"/>
      <point x="756" y="1027"/>
      <point x="706" y="1058"/>
      <point x="633" y="1058" type="curve" smooth="yes"/>
      <point x="542" y="1058"/>
      <point x="436" y="1026"/>
      <point x="315" y="962" type="curve"/>
      <point x="190" y="1207" type="line"/>
      <point x="339" y="1292"/>
      <point x="495" y="1335"/>
      <point x="658" y="1335" type="curve" smooth="yes"/>
      <point x="792" y="1335"/>
      <point x="897" y="1305"/>
      <point x="973" y="1246" type="curve" smooth="yes"/>
      <point x="1049" y="1187"/>
      <point x="1087" y="1107"/>
      <point x="1087" y="1006" type="curve" smooth="yes"/>
      <point x="1087" y="861"/>
      <point x="1023" y="762"/>
      <point x="874" y="667" type="curve" smooth="yes"/>
      <point x="811" y="626"/>
      <point x="771" y="596"/>
      <point x="755" y="577" type="curve" smooth="yes"/>
      <point x="740" y="558"/>
      <point x="732" y="536"/>
      <point x="732" y="510" type="curve" smooth="yes"/>
      <point x="732" y="464" type="line"/>
    </contour>
    <contour>
      <point x="417" y="149" type="curve" smooth="yes"/>
      <point x="417" y="260"/>
      <point x="482" y="322"/>
      <point x="607" y="322" type="curve" smooth="yes"/>
      <point x="727" y="322"/>
      <point x="793" y="258"/>
      <point x="793" y="149" type="curve" smooth="yes"/>
      <point x="793" y="40"/>
      <point x="722" y="-23"/>
      <point x="607" y="-23" type="curve" smooth="yes"/>
      <point x="488" y="-23"/>
      <point x="417" y="40"/>
    </contour>
  </outline>
</glyph>
<glyph name="question" format="1">
  <advance width="1097"/>
  <unicode hex="003F"/>
  <outline>
    <contour>
      <point x="375" y="464" type="line"/>
      <point x="375" y="542" type="line" smooth="yes"/>
      <point x="375" y="601"/>
      <point x="387" y="650"/>
      <point x="411" y="690" type="curve" smooth="yes"/>
      <point x="435" y="731"/>
      <point x="478" y="770"/>
      <point x="539" y="809" type="curve" smooth="yes"/>
      <point x="636" y="870"/>
      <point x="676" y="913"/>
      <point x="676" y="976" type="curve" smooth="yes"/>
      <point x="676" y="1027"/>
      <point x="626" y="1058"/>
      <point x="553" y="1058" type="curve" smooth="yes"/>
      <point x="462" y="1058"/>
      <point x="356" y="1026"/>
      <point x="235" y="962" type="curve"/>
      <point x="110" y="1207" type="line"/>
      <point x="259" y="1292"/>
      <point x="415" y="1335"/>
      <point x="578" y="1335" type="curve" smooth="yes"/>
      <point x="712" y="1335"/>
      <point x="817" y="1305"/>
      <point x="893" y="1246" type="curve" smooth="yes"/>
      <point x="969" y="1187"/>
      <point x="1007" y="1107"/>
      <point x="1007" y="1006" type="curve" smooth="yes"/>
      <point x="1007" y="861"/>
      <point x="943" y="762"/>
      <point x="794" y="667" type="curve" smooth="yes"/>
      <point x="731" y="626"/>
      <point x="691" y="596"/>
      <point x="675" y="577" type="curve" smooth="yes"/>
      <point x="660" y="558"/>
      <point x="652" y="536"/>
      <point x="652" y="510" type="curve" smooth="yes"/>
      <point x="652" y="464" type="line"/>
    </contour>
    <contour>
      <point x="337" y="149" type="curve" smooth="yes"/>
      <point x="337" y="260"/>
      <point x="402" y="322"/>
      <point x="527" y="322" type="curve" smooth="yes"/>
      <point x="647" y="322"/>
      <point x="713" y="258"/>
      <point x="713" y="149" type="curve" smooth="yes"/>
      <point x="713" y="40"/>
      <point x="642" y="-23"/>
      <point x="527" y="-23" type="curve" smooth="yes"/>
      <point x="408" y="-23"/>
      <point x="337" y="40"/>
    </contour>
  </outline>
</glyph>
<glyph name="A" format="1">
  <advance width="1338"/>
  <unicode hex="0041"/>
  <outline>
    <contour>
      <point x="949" y="0" type="line"/>
      <point x="885" y="247" type="line"/>
      <point x="457" y="247" type="line"/>
      <point x="391" y="0" type="line"/>
      <point x="0" y="0" type="line"/>
      <point x="429" y="1321" type="line"/>
      <point x="904" y="1321" type="line"/>
      <point x="1338" y="0" type="line"/>
    </contour>
    <contour>
      <point x="811" y="538" type="line"/>
      <point x="754" y="754" type="line" smooth="yes"/>
      <point x="741" y="802"/>
      <point x="725" y="864"/>
      <point x="706" y="940" type="curve" smooth="yes"/>
      <point x="687" y="1017"/>
      <point x="675" y="1071"/>
      <point x="669" y="1104" type="curve"/>
      <point x="664" y="1073"/>
      <point x="653" y="1023"/>
      <point x="637" y="953" type="curve" smooth="yes"/>
      <point x="621" y="883"/>
      <point x="586" y="745"/>
      <point x="531" y="538" type="curve"/>
    </contour>
  </outline>
</glyph>
<glyph name="I" format="1">
  <advance width="642"/>
  <unicode hex="0049"/>
  <outline>
    <contour>
      <point x="142" y="0" type="line"/>
      <point x="142" y="1316" type="line"/>
      <point x="499" y="1316" type="line"/>
      <point x="499" y="0" type="line"/>
    </contour>
  </outline>
</glyph>
<glyph name="O" format="1">
  <advance width="1469"/>
  <unicode hex="004F"/>
  <outline>
    <contour>
      <point x="1373" y="660" type="curve" smooth="yes"/>
      <point x="1373" y="217"/>
      <point x="1153" y="-18"/>
      <point x="733" y="-18" type="curve" smooth="yes"/>
      <point x="321" y="-18"/>
      <point x="94" y="218"/>
      <point x="94" y="661" type="curve" smooth="yes"/>
      <point x="94" y="1100"/>
      <point x="318" y="1336"/>
      <point x="735" y="1336" type="curve" smooth="yes"/>
      <point x="1154" y="1336"/>
      <point x="1373" y="1104"/>
    </contour>
    <contour>
      <point x="468" y="660" type="curve" smooth="yes"/>
      <point x="468" y="405"/>
      <point x="556" y="278"/>
      <point x="733" y="278" type="curve" smooth="yes"/>
      <point x="913" y="278"/>
      <point x="999" y="397"/>
      <point x="999" y="660" type="curve" smooth="yes"/>
      <point x="999" y="923"/>
      <point x="911" y="1045"/>
      <point x="735" y="1045" type="curve" smooth="yes"/>
      <point x="557" y="1045"/>
      <point x="468" y="917"/>
    </contour>
  </outline>
</glyph>
<glyph name="T" format="1">
  <advance width="1089"/>
  <unicode hex="0054"/>
  <outline>
    <contour>
      <point x="723" y="0" type="line"/>
      <point x="367" y="0" type="line"/>
      <point x="367" y="1025" type="line"/>
      <point x="46" y="1025" type="line"/>
      <point x="46" y="1316" type="line"/>
      <point x="1043" y="1316" type="line"/>
      <point x="1043" y="1025" type="line"/>
      <point x="723" y="1025" type="line"/>
    </contour>
  </outline>
</glyph>
<glyph name="bracketleft" format="1">
  <advance width="598"/>
  <unicode hex="005B"/>
  <outline>
    <contour>
      <point x="554" y="-230" type="line"/>
      <point x="105" y="-230" type="line"/>
      <point x="105" y="1433" type="line"/>
      <point x="554" y="1433" type="line"/>
      <point x="554" y="1204" type="line"/>
      <point x="391" y="1204" type="line"/>
      <point x="391" y="-1" type="line"/>
      <point x="554" y="-1" type="line"/>
    </contour>
  </outline>
</glyph>
<glyph name="backslash" format="1">
  <advance width="814"/>
  <unicode hex="005C"/>
  <outline>
    <contour>
      <point x="317" y="1335" type="line"/>
      <point x="807" y="-18" type="line"/>
      <point x="496" y="-18" type="line"/>
      <point x="5" y="1335" type="line"/>
    </contour>
  </outline>
</glyph>
<glyph name="bracketright" format="1">
  <advance width="598"/>
  <unicode hex="005D"/>
  <outline>
    <contour>
      <point x="42" y="-1" type="line"/>
      <point x="206" y="-1" type="line"/>
      <point x="206" y="1204" type="line"/>
      <point x="42" y="1204" type="line"/>
      <point x="42" y="1433" type="line"/>
      <point x="492" y="1433" type="line"/>
      <point x="492" y="-230" type="line"/>
      <point x="42" y="-230" type="line"/>
    </contour>
  </outline>
</glyph>
<glyph name="underscore" format="1">
  <advance width="922"/>
  <unicode hex="005F"/>
  <outline>
    <contour>
      <point x="925" y="-341" type="line"/>
      <point x="-4" y="-341" type="line"/>
      <point x="-4" y="-120" type="line"/>
      <point x="925" y="-120" type="line"/>
    </contour>
  </outline>
</glyph>
<glyph name="c" format="1">
  <advance width="994"/>
  <unicode hex="0063"/>
  <outline>
    <contour>
      <point x="586" y="-18" type="curve" smooth="yes"/>
      <point x="253" y="-18"/>
      <point x="77" y="168"/>
      <point x="77" y="505" type="curve" smooth="yes"/>
      <point x="77" y="674"/>
      <point x="123" y="805"/>
      <point x="216" y="898" type="curve" smooth="yes"/>
      <point x="309" y="991"/>
      <point x="442" y="1038"/>
      <point x="614" y="1038" type="curve" smooth="yes"/>
      <point x="732" y="1038"/>
      <point x="843" y="1012"/>
      <point x="948" y="960" type="curve"/>
      <point x="844" y="700" type="line"/>
      <point x="759" y="737"/>
      <point x="691" y="761"/>
      <point x="614" y="761" type="curve" smooth="yes"/>
      <point x="499" y="761"/>
      <point x="435" y="668"/>
      <point x="435" y="507" type="curve" smooth="yes"/>
      <point x="435" y="344"/>
      <point x="495" y="262"/>
      <point x="616" y="262" type="curve" smooth="yes"/>
      <point x="719" y="262"/>
      <point x="818" y="292"/>
      <point x="913" y="352" type="curve"/>
      <point x="913" y="72" type="line"/>
      <point x="822" y="12"/>
      <point x="713" y="-18"/>
    </contour>
  </outline>
</glyph>
<glyph name="j" format="1">
  <advance width="598"/>
  <unicode hex="006A"/>
  <outline>
    <contour>
      <point x="95" y="-443" type="curve" smooth="yes"/>
      <point x="66" y="-443"/>
      <point x="33" y="-441"/>
      <point x="-4" y="-436" type="curve" smooth="yes"/>
      <point x="-41" y="-431"/>
      <point x="-71" y="-426"/>
      <point x="-94" y="-420" type="curve"/>
      <point x="-94" y="-146" type="line"/>
      <point x="-55" y="-157"/>
      <point x="-19" y="-162"/>
      <point x="14" y="-162" type="curve" smooth="yes"/>
      <point x="85" y="-162"/>
      <point x="121" y="-111"/>
      <point x="121" y="-9" type="curve" smooth="yes"/>
      <point x="121" y="1020" type="line"/>
      <point x="473" y="1020" type="line"/>
      <point x="473" y="-83" type="line" smooth="yes"/>
      <point x="473" y="-195"/>
      <point x="440" y="-283"/>
      <point x="374" y="-347" type="curve" smooth="yes"/>
      <point x="309" y="-411"/>
      <point x="216" y="-443"/>
    </contour>
    <contour>
      <point x="112" y="1273" type="curve" smooth="yes"/>
      <point x="112" y="1380"/>
      <point x="168" y="1430"/>
      <point x="299" y="1430" type="curve" smooth="yes"/>
      <point x="430" y="1430"/>
      <point x="487" y="1377"/>
      <point x="487" y="1273" type="curve" smooth="yes"/>
      <point x="487" y="1170"/>
      <point x="424" y="1119"/>
      <point x="299" y="1119" type="curve" smooth="yes"/>
      <point x="174" y="1119"/>
      <point x="112" y="1170"/>
    </contour>
  </outline>
</glyph>
<glyph name="k" format="1">
  <advance width="1215"/>
  <unicode hex="006B"/>
  <outline>
    <contour>
      <point x="463" y="573" type="line"/>
      <point x="505" y="641"/>
      <point x="541" y="694"/>
      <point x="571" y="732" type="curve" smooth="yes"/>
      <point x="800" y="1020" type="line"/>
      <point x="1192" y="1020" type="line"/>
      <point x="839" y="586" type="line"/>
      <point x="1215" y="0" type="line"/>
      <point x="813" y="0" type="line"/>
      <point x="589" y="365" type="line"/>
      <point x="475" y="278" type="line"/>
      <point x="475" y="0" type="line"/>
      <point x="121" y="0" type="line"/>
      <point x="121" y="1400" type="line"/>
      <point x="475" y="1400" type="line"/>
      <point x="475" y="850" type="line" smooth="yes"/>
      <point x="475" y="755"/>
      <point x="468" y="663"/>
      <point x="455" y="573" type="curve"/>
    </contour>
  </outline>
</glyph>
<glyph name="braceleft" format="1">
  <advance width="862"/>
  <unicode hex="007B"/>
  <outline>
    <contour>
      <point x="89" y="727" type="line"/>
      <point x="226" y="727"/>
      <point x="310" y="783"/>
      <point x="310" y="880" type="curve" smooth="yes"/>
      <point x="310" y="1109" type="line" smooth="yes"/>
      <point x="310" y="1192"/>
      <point x="325" y="1255"/>
      <point x="354" y="1296" type="curve" smooth="yes"/>
      <point x="413" y="1379"/>
      <point x="538" y="1415"/>
      <point x="773" y="1415" type="curve"/>
      <point x="773" y="1164" type="line"/>
      <point x="720" y="1162"/>
      <point x="683" y="1158"/>
      <point x="664" y="1151" type="curve" smooth="yes"/>
      <point x="627" y="1139"/>
      <point x="602" y="1113"/>
      <point x="602" y="1068" type="curve" smooth="yes"/>
      <point x="602" y="824" type="line" smooth="yes"/>
      <point x="602" y="689"/>
      <point x="538" y="620"/>
      <point x="386" y="597" type="curve"/>
      <point x="386" y="587" type="line"/>
      <point x="539" y="563"/>
      <point x="602" y="494"/>
      <point x="602" y="365" type="curve" smooth="yes"/>
      <point x="602" y="117" type="line" smooth="yes"/>
      <point x="602" y="94"/>
      <point x="608" y="75"/>
      <point x="621" y="62" type="curve" smooth="yes"/>
      <point x="646" y="35"/>
      <point x="680" y="24"/>
      <point x="773" y="21" type="curve"/>
      <point x="773" y="-230" type="line"/>
      <point x="655" y="-230"/>
      <point x="563" y="-220"/>
      <point x="497" y="-201" type="curve" smooth="yes"/>
      <point x="431" y="-182"/>
      <point x="383" y="-151"/>
      <point x="354" y="-109" type="curve" smooth="yes"/>
      <point x="325" y="-68"/>
      <point x="310" y="-5"/>
      <point x="310" y="80" type="curve" smooth="yes"/>
      <point x="310" y="303" type="line" smooth="yes"/>
      <point x="310" y="399"/>
      <point x="224" y="456"/>
      <point x="89" y="456" type="curve"/>
    </contour>
  </outline>
</glyph>
<glyph name="bar" format="1">
  <advance width="938"/>
  <unicode hex="007C"/>
  <outline>
    <contour>
      <point x="348" y="1400" type="line"/>
      <point x="589" y="1400" type="line"/>
      <point x="589" y="-401" type="line"/>
      <point x="348" y="-401" type="line"/>
    </contour>
  </outline>
</glyph>
<glyph name="braceright" format="1">
  <advance width="861"/>
  <unicode hex="007D"/>
  <outline>
    <contour>
      <point x="772" y="456" type="line"/>
      <point x="640" y="456"/>
      <point x="552" y="399"/>
      <point x="552" y="303" type="curve" smooth="yes"/>
      <point x="552" y="80" type="line" smooth="yes"/>
      <point x="552" y="-4"/>
      <point x="537" y="-67"/>
      <point x="508" y="-109" type="curve" smooth="yes"/>
      <point x="449" y="-193"/>
      <point x="325" y="-230"/>
      <point x="89" y="-230" type="curve"/>
      <point x="89" y="21" type="line"/>
      <point x="220" y="25"/>
      <point x="260" y="54"/>
      <point x="260" y="117" type="curve" smooth="yes"/>
      <point x="260" y="365" type="line" smooth="yes"/>
      <point x="260" y="494"/>
      <point x="323" y="563"/>
      <point x="476" y="587" type="curve"/>
      <point x="476" y="597" type="line"/>
      <point x="324" y="620"/>
      <point x="260" y="689"/>
      <point x="260" y="824" type="curve" smooth="yes"/>
      <point x="260" y="1068" type="line" smooth="yes"/>
      <point x="260" y="1091"/>
      <point x="254" y="1109"/>
      <point x="242" y="1122" type="curve" smooth="yes"/>
      <point x="231" y="1135"/>
      <point x="216" y="1145"/>
      <point x="197" y="1151" type="curve"/>
      <point x="179" y="1158"/>
      <point x="143" y="1162"/>
      <point x="89" y="1164" type="curve"/>
      <point x="89" y="1415" type="line"/>
      <point x="207" y="1415"/>
      <point x="299" y="1405"/>
      <point x="365" y="1386" type="curve" smooth="yes"/>
      <point x="431" y="1367"/>
      <point x="479" y="1337"/>
      <point x="508" y="1296" type="curve" smooth="yes"/>
      <point x="537" y="1255"/>
      <point x="552" y="1192"/>
      <point x="552" y="1109" type="curve" smooth="yes"/>
      <point x="552" y="880" type="line" smooth="yes"/>
      <point x="552" y="783"/>
      <point x="635" y="727"/>
      <point x="772" y="727" type="curve"/>
    </contour>
  </outline>
</glyph>
<glyph name="copyright" format="1">
  <advance width="1519"/>
  <unicode hex="00A9"/>
  <outline>
    <contour>
      <point x="798" y="874" type="curve" smooth="yes"/>
      <point x="701" y="874"/>
      <point x="643" y="799"/>
      <point x="643" y="658" type="curve" smooth="yes"/>
      <point x="643" y="505"/>
      <point x="695" y="440"/>
      <point x="804" y="440" type="curve" smooth="yes"/>
      <point x="887" y="440"/>
      <point x="964" y="460"/>
      <point x="1036" y="501" type="curve"/>
      <point x="1036" y="293" type="line"/>
      <point x="960" y="255"/>
      <point x="878" y="236"/>
      <point x="791" y="236" type="curve" smooth="yes"/>
      <point x="664" y="236"/>
      <point x="565" y="273"/>
      <point x="495" y="347" type="curve"/>
      <point x="426" y="422"/>
      <point x="391" y="526"/>
      <point x="391" y="661" type="curve" smooth="yes"/>
      <point x="391" y="792"/>
      <point x="425" y="894"/>
      <point x="492" y="967" type="curve" smooth="yes"/>
      <point x="560" y="1041"/>
      <point x="656" y="1078"/>
      <point x="781" y="1078" type="curve" smooth="yes"/>
      <point x="881" y="1078"/>
      <point x="978" y="1055"/>
      <point x="1071" y="1008" type="curve"/>
      <point x="988" y="823" type="line"/>
      <point x="925" y="857"/>
      <point x="861" y="874"/>
    </contour>
    <contour>
      <point x="83" y="658" type="curve" smooth="yes"/>
      <point x="83" y="778"/>
      <point x="113" y="890"/>
      <point x="173" y="995" type="curve" smooth="yes"/>
      <point x="233" y="1100"/>
      <point x="315" y="1183"/>
      <point x="420" y="1244" type="curve" smooth="yes"/>
      <point x="525" y="1305"/>
      <point x="639" y="1335"/>
      <point x="760" y="1335" type="curve" smooth="yes"/>
      <point x="878" y="1335"/>
      <point x="989" y="1306"/>
      <point x="1092" y="1247" type="curve"/>
      <point x="1196" y="1189"/>
      <point x="1279" y="1107"/>
      <point x="1341" y="1002" type="curve" smooth="yes"/>
      <point x="1404" y="897"/>
      <point x="1435" y="783"/>
      <point x="1435" y="658" type="curve" smooth="yes"/>
      <point x="1435" y="535"/>
      <point x="1405" y="422"/>
      <point x="1345" y="319" type="curve" smooth="yes"/>
      <point x="1285" y="216"/>
      <point x="1203" y="134"/>
      <point x="1099" y="73" type="curve" smooth="yes"/>
      <point x="996" y="12"/>
      <point x="883" y="-18"/>
      <point x="760" y="-18" type="curve" smooth="yes"/>
      <point x="635" y="-18"/>
      <point x="520" y="13"/>
      <point x="415" y="75" type="curve" smooth="yes"/>
      <point x="310" y="137"/>
      <point x="229" y="220"/>
      <point x="170" y="324" type="curve" smooth="yes"/>
      <point x="112" y="428"/>
      <point x="83" y="539"/>
    </contour>
    <contour>
      <point x="230" y="658" type="curve" smooth="yes"/>
      <point x="230" y="563"/>
      <point x="254" y="475"/>
      <point x="301" y="392" type="curve" smooth="yes"/>
      <point x="349" y="309"/>
      <point x="414" y="245"/>
      <point x="495" y="198" type="curve"/>
      <point x="577" y="152"/>
      <point x="665" y="129"/>
      <point x="760" y="129" type="curve" smooth="yes"/>
      <point x="855" y="129"/>
      <point x="943" y="152"/>
      <point x="1024" y="199" type="curve" smooth="yes"/>
      <point x="1106" y="246"/>
      <point x="1171" y="311"/>
      <point x="1218" y="393" type="curve" smooth="yes"/>
      <point x="1265" y="475"/>
      <point x="1289" y="563"/>
      <point x="1289" y="658" type="curve" smooth="yes"/>
      <point x="1289" y="752"/>
      <point x="1266" y="840"/>
      <point x="1219" y="921" type="curve" smooth="yes"/>
      <point x="1172" y="1003"/>
      <point x="1108" y="1068"/>
      <point x="1026" y="1115" type="curve"/>
      <point x="945" y="1163"/>
      <point x="856" y="1187"/>
      <point x="760" y="1187" type="curve" smooth="yes"/>
      <point x="665" y="1187"/>
      <point x="576" y="1163"/>
      <point x="494" y="1116" type="curve" smooth="yes"/>
      <point x="413" y="1069"/>
      <point x="348" y="1005"/>
      <point x="301" y="923" type="curve" smooth="yes"/>
      <point x="254" y="841"/>
      <point x="230" y="753"/>
    </contour>
  </outline>
</glyph>
<glyph name="multiply" format="1">
  <advance width="1043"/>
  <unicode hex="00D7"/>
  <outline>
    <contour>
      <point x="348" y="651" type="line"/>
      <point x="109" y="892" type="line"/>
      <point x="273" y="1062" type="line"/>
      <point x="516" y="822" type="line"/>
      <point x="763" y="1062" type="line"/>
      <point x="932" y="897" type="line"/>
      <point x="686" y="651" type="line"/>
      <point x="929" y="406" type="line"/>
      <point x="763" y="239" type="line"/>
      <point x="516" y="483" type="line"/>
      <point x="273" y="241" type="line"/>
      <point x="111" y="409" type="line"/>
    </contour>
  </outline>
</glyph>
<glyph name="divide" format="1">
  <advance width="1043"/>
  <unicode hex="00F7"/>
  <outline>
    <contour>
      <point x="65" y="529" type="line"/>
      <point x="65" y="770" type="line"/>
      <point x="976" y="770" type="line"/>
      <point x="976" y="529" type="line"/>
    </contour>
    <contour>
      <point x="380" y="299" type="curve" smooth="yes"/>
      <point x="380" y="398"/>
      <point x="428" y="452"/>
      <point x="520" y="452" type="curve" smooth="yes"/>
      <point x="611" y="452"/>
      <point x="661" y="398"/>
      <point x="661" y="299" type="curve" smooth="yes"/>
      <point x="661" y="203"/>
      <point x="604" y="146"/>
      <point x="520" y="146" type="curve" smooth="yes"/>
      <point x="435" y="146"/>
      <point x="380" y="200"/>
    </contour>
    <contour>
      <point x="380" y="1001" type="curve" smooth="yes"/>
      <point x="380" y="1100"/>
      <point x="428" y="1154"/>
      <point x="520" y="1154" type="curve" smooth="yes"/>
      <point x="611" y="1154"/>
      <point x="661" y="1100"/>
      <point x="661" y="1001" type="curve" smooth="yes"/>
      <point x="661" y="905"/>
      <point x="604" y="848"/>
      <point x="520" y="848" type="curve" smooth="yes"/>
      <point x="435" y="848"/>
      <point x="380" y="902"/>
    </contour>
  </outline>
</glyph>
<glyph name="aadeva" format="1">
  <advance width="2375"/>
  <unicode hex="0906"/>
  <outline>
    <contour>
      <point x="722" y="699" type="line"/>
      <point x="786" y="676"/>
      <point x="853" y="664"/>
      <point x="938" y="664" type="curve" smooth="yes"/>
      <point x="1031" y="664"/>
      <point x="1156" y="695"/>
      <point x="1221" y="756" type="curve"/>
      <point x="1221" y="435" type="line"/>
      <point x="1191" y="428"/>
      <point x="1104" y="416"/>
      <point x="1047" y="416" type="curve" smooth="yes"/>
      <point x="951" y="416"/>
      <point x="879" y="424"/>
      <point x="777" y="437" type="curve"/>
    </contour>
    <contour>
      <point x="1839" y="1104" type="line"/>
      <point x="2187" y="1104" type="line"/>
      <point x="2187" y="0" type="line"/>
      <point x="1839" y="0" type="line"/>
    </contour>
    <contour>
      <point x="1176" y="1104" type="line"/>
      <point x="1524" y="1104" type="line"/>
      <point x="1524" y="0" type="line"/>
      <point x="1176" y="0" type="line"/>
    </contour>
    <contour>
      <point x="2405" y="1065" type="line"/>
      <point x="1009" y="1065" type="line"/>
      <point x="1009" y="1293" type="line"/>
      <point x="2405" y="1293" type="line"/>
    </contour>
    <contour>
      <point x="304" y="564" type="line"/>
      <point x="248" y="821" type="line"/>
      <point x="261" y="822" type="line"/>
      <point x="536" y="841"/>
      <point x="579" y="892"/>
      <point x="579" y="971" type="curve" smooth="yes"/>
      <point x="579" y="1027"/>
      <point x="538" y="1059"/>
      <point x="461" y="1059" type="curve" smooth="yes"/>
      <point x="375" y="1059"/>
      <point x="295" y="1034"/>
      <point x="183" y="974" type="curve"/>
      <point x="107" y="1234" type="line"/>
      <point x="212" y="1282"/>
      <point x="320" y="1312"/>
      <point x="479" y="1312" type="curve" smooth="yes"/>
      <point x="745" y="1312"/>
      <point x="886" y="1165"/>
      <point x="886" y="943" type="curve" smooth="yes"/>
      <point x="886" y="721"/>
      <point x="699" y="592"/>
      <point x="328" y="566" type="curve" smooth="yes"/>
    </contour>
    <contour>
      <point x="691" y="783" type="line"/>
      <point x="830" y="720"/>
      <point x="946" y="610"/>
      <point x="946" y="425" type="curve" smooth="yes"/>
      <point x="946" y="234"/>
      <point x="789" y="79"/>
      <point x="537" y="79" type="curve" smooth="yes"/>
      <point x="355" y="79"/>
      <point x="211" y="135"/>
      <point x="64" y="230" type="curve"/>
      <point x="128" y="480" type="line"/>
      <point x="251" y="395"/>
      <point x="357" y="355"/>
      <point x="462" y="355" type="curve" smooth="yes"/>
      <point x="569" y="355"/>
      <point x="625" y="409"/>
      <point x="625" y="491" type="curve" smooth="yes"/>
      <point x="625" y="553"/>
      <point x="578" y="600"/>
      <point x="498" y="630" type="curve"/>
    </contour>
  </outline>
</glyph>
<glyph name="ideva" format="1">
  <advance width="1149"/>
  <unicode hex="0907"/>
  <outline>
    <contour>
      <point x="557" y="142" type="line"/>
      <point x="868" y="-187" type="line"/>
      <point x="655" y="-320" type="line"/>
      <point x="309" y="59" type="line"/>
      <point x="443" y="-33" type="line"/>
      <point x="177" y="-33"/>
      <point x="80" y="83"/>
      <point x="80" y="167" type="curve" smooth="yes"/>
      <point x="80" y="244"/>
      <point x="147" y="317"/>
      <point x="248" y="317" type="curve" smooth="yes"/>
      <point x="339" y="317"/>
      <point x="423" y="277"/>
      <point x="530" y="170" type="curve"/>
    </contour>
    <contour>
      <point x="599" y="1086" type="line"/>
      <point x="947" y="1086" type="line"/>
      <point x="947" y="723" type="line"/>
      <point x="478" y="723" type="line" smooth="yes"/>
      <point x="402" y="723"/>
      <point x="361" y="690"/>
      <point x="361" y="648" type="curve" smooth="yes"/>
      <point x="361" y="611"/>
      <point x="398" y="588"/>
      <point x="461" y="558" type="curve"/>
      <point x="327" y="574" type="line"/>
      <point x="422" y="608"/>
      <point x="523" y="631"/>
      <point x="688" y="631" type="curve" smooth="yes"/>
      <point x="897" y="631"/>
      <point x="1061" y="510"/>
      <point x="1061" y="332" type="curve" smooth="yes"/>
      <point x="1061" y="152"/>
      <point x="892" y="-31"/>
      <point x="508" y="-31" type="curve"/>
      <point x="457" y="222" type="line"/>
      <point x="675" y="222"/>
      <point x="736" y="296"/>
      <point x="736" y="336" type="curve" smooth="yes"/>
      <point x="736" y="370"/>
      <point x="699" y="388"/>
      <point x="640" y="388" type="curve" smooth="yes"/>
      <point x="569" y="388"/>
      <point x="480" y="363"/>
      <point x="402" y="328" type="curve"/>
      <point x="383" y="328" type="line"/>
      <point x="136" y="440"/>
      <point x="50" y="555"/>
      <point x="50" y="700" type="curve" smooth="yes"/>
      <point x="50" y="828"/>
      <point x="155" y="946"/>
      <point x="400" y="946" type="curve" smooth="yes"/>
      <point x="666" y="946" type="line"/>
      <point x="599" y="880" type="line"/>
    </contour>
    <contour>
      <point x="1179" y="1065" type="line"/>
      <point x="-30" y="1065" type="line"/>
      <point x="-30" y="1293" type="line"/>
      <point x="1179" y="1293" type="line"/>
    </contour>
  </outline>
</glyph>
<glyph name="udeva" format="1">
  <advance width="1125"/>
  <unicode hex="0909"/>
  <outline>
    <contour>
      <point x="283" y="538" type="line"/>
      <point x="227" y="817" type="line"/>
      <point x="288" y="820" type="line" smooth="yes"/>
      <point x="567" y="834"/>
      <point x="618" y="895"/>
      <point x="618" y="969" type="curve" smooth="yes"/>
      <point x="618" y="1029"/>
      <point x="588" y="1062"/>
      <point x="479" y="1075" type="curve"/>
      <point x="562" y="1265" type="line"/>
      <point x="797" y="1241"/>
      <point x="936" y="1140"/>
      <point x="936" y="928" type="curve" smooth="yes"/>
      <point x="936" y="727"/>
      <point x="766" y="559"/>
      <point x="351" y="541" type="curve" smooth="yes"/>
    </contour>
    <contour>
      <point x="-30" y="1065" type="line"/>
      <point x="-30" y="1293" type="line"/>
      <point x="1155" y="1293" type="line"/>
      <point x="1155" y="1065" type="line"/>
    </contour>
    <contour>
      <point x="711" y="759" type="line"/>
      <point x="900" y="693"/>
      <point x="1027" y="536"/>
      <point x="1027" y="361" type="curve" smooth="yes"/>
      <point x="1027" y="146"/>
      <point x="869" y="-14"/>
      <point x="582" y="-14" type="curve" smooth="yes"/>
      <point x="376" y="-14"/>
      <point x="178" y="59"/>
      <point x="18" y="168" type="curve"/>
      <point x="103" y="433" type="line"/>
      <point x="232" y="339"/>
      <point x="397" y="282"/>
      <point x="505" y="282" type="curve" smooth="yes"/>
      <point x="621" y="282"/>
      <point x="682" y="338"/>
      <point x="682" y="418" type="curve" smooth="yes"/>
      <point x="682" y="486"/>
      <point x="628" y="556"/>
      <point x="502" y="580" type="curve"/>
    </contour>
    <contour>
      <point x="499.0" y="1293.0" type="move" name="top"/>
    </contour>
  </outline>
</glyph>
<glyph name="uudeva" format="1">
  <advance width="1648"/>
  <unicode hex="090A"/>
  <outline>
    <contour>
      <point x="933" y="282" type="curve"/>
      <point x="755" y="608" type="line"/>
      <point x="860" y="669"/>
      <point x="987" y="715"/>
      <point x="1118" y="715" type="curve" smooth="yes"/>
      <point x="1402" y="715"/>
      <point x="1579" y="535"/>
      <point x="1579" y="313" type="curve" smooth="yes"/>
      <point x="1579" y="175"/>
      <point x="1527" y="47"/>
      <point x="1456" y="-45" type="curve"/>
      <point x="1154" y="69" type="line"/>
      <point x="1224" y="166"/>
      <point x="1275" y="258"/>
      <point x="1275" y="345" type="curve" smooth="yes"/>
      <point x="1275" y="406"/>
      <point x="1239" y="445"/>
      <point x="1170" y="445" type="curve" smooth="yes"/>
      <point x="1090" y="445"/>
      <point x="1004" y="386"/>
    </contour>
    <contour>
      <point x="1146" y="1065" type="line"/>
      <point x="1136" y="1293" type="line"/>
      <point x="1678" y="1293" type="line"/>
      <point x="1678" y="1065" type="line"/>
    </contour>
    <component base="udeva"/>
    <contour>
      <point x="499.0" y="1293.0" type="move" name="top"/>
    </contour>
  </outline>
</glyph>
<glyph name="rvocalicdeva" format="1">
  <advance width="1774"/>
  <unicode hex="090B"/>
  <outline>
    <contour>
      <point x="1116" y="1065" type="line"/>
      <point x="1116" y="1293" type="line"/>
      <point x="1804" y="1293" type="line"/>
      <point x="1804" y="1065" type="line"/>
    </contour>
    <contour>
      <point x="967" y="765" type="line"/>
      <point x="1039" y="720"/>
      <point x="1093" y="707"/>
      <point x="1147" y="707" type="curve" smooth="yes"/>
      <point x="1205" y="707"/>
      <point x="1265" y="717"/>
      <point x="1354" y="753" type="curve"/>
      <point x="1257" y="666" type="line"/>
      <point x="1230" y="720"/>
      <point x="1212" y="762"/>
      <point x="1212" y="807" type="curve" smooth="yes"/>
      <point x="1212" y="864"/>
      <point x="1263" y="922"/>
      <point x="1372" y="922" type="curve" smooth="yes"/>
      <point x="1555" y="922"/>
      <point x="1681" y="832"/>
      <point x="1681" y="727" type="curve" smooth="yes"/>
      <point x="1681" y="559"/>
      <point x="1482" y="435"/>
      <point x="1176" y="435" type="curve" smooth="yes"/>
      <point x="1067" y="435"/>
      <point x="973" y="457"/>
      <point x="873" y="503" type="curve"/>
    </contour>
    <contour>
      <point x="1285" y="544" type="curve"/>
      <point x="1534" y="659" type="line"/>
      <point x="1642" y="530"/>
      <point x="1684" y="427"/>
      <point x="1684" y="313" type="curve" smooth="yes"/>
      <point x="1684" y="174"/>
      <point x="1572" y="37"/>
      <point x="1346" y="12" type="curve"/>
      <point x="1184" y="218" type="line"/>
      <point x="1328" y="250"/>
      <point x="1378" y="304"/>
      <point x="1378" y="371" type="curve" smooth="yes"/>
      <point x="1378" y="423"/>
      <point x="1351" y="476"/>
    </contour>
    <component base="taradeva"/>
    <contour>
      <point x="919.0" y="1280.0" type="move" name="mark0"/>
    </contour>
  </outline>
</glyph>
<glyph name="lvocalicdeva" format="1">
  <advance width="1717"/>
  <unicode hex="090C"/>
  <outline>
    <contour>
      <point x="1181" y="1104" type="line"/>
      <point x="1529" y="1104" type="line"/>
      <point x="1529" y="703" type="line"/>
      <point x="1181" y="703" type="line"/>
    </contour>
    <contour>
      <point x="-30" y="1065" type="line"/>
      <point x="-30" y="1293" type="line"/>
      <point x="1747" y="1293" type="line"/>
      <point x="1747" y="1065" type="line"/>
    </contour>
    <contour>
      <point x="1079" y="655" type="curve"/>
      <point x="864" y="465" type="line"/>
      <point x="765" y="589"/>
      <point x="691" y="624"/>
      <point x="595" y="624" type="curve" smooth="yes"/>
      <point x="482" y="624"/>
      <point x="409" y="536"/>
      <point x="409" y="437" type="curve" smooth="yes"/>
      <point x="409" y="343"/>
      <point x="457" y="253"/>
      <point x="612" y="105" type="curve"/>
      <point x="363" y="-31" type="line"/>
      <point x="174" y="140"/>
      <point x="79" y="330"/>
      <point x="79" y="526" type="curve" smooth="yes"/>
      <point x="79" y="732"/>
      <point x="230" y="919"/>
      <point x="508" y="919" type="curve" smooth="yes"/>
      <point x="735" y="919"/>
      <point x="922" y="821"/>
    </contour>
    <contour>
      <point x="1659" y="455" type="curve" smooth="yes"/>
      <point x="1659" y="361"/>
      <point x="1628" y="249"/>
      <point x="1593" y="193" type="curve"/>
      <point x="1548" y="193" type="line" smooth="yes"/>
      <point x="1407" y="193"/>
      <point x="1367" y="147"/>
      <point x="1367" y="105" type="curve" smooth="yes"/>
      <point x="1367" y="62"/>
      <point x="1406" y="29"/>
      <point x="1480" y="29" type="curve" smooth="yes"/>
      <point x="1540" y="29"/>
      <point x="1596" y="39"/>
      <point x="1663" y="65" type="curve"/>
      <point x="1698" y="-127" type="line"/>
      <point x="1610" y="-159"/>
      <point x="1544" y="-166"/>
      <point x="1460" y="-166" type="curve" smooth="yes"/>
      <point x="1234" y="-166"/>
      <point x="1077" y="-45"/>
      <point x="1077" y="114" type="curve" smooth="yes"/>
      <point x="1077" y="268"/>
      <point x="1212" y="376"/>
      <point x="1388" y="376" type="curve" smooth="yes"/>
      <point x="1428" y="376"/>
      <point x="1468" y="370"/>
      <point x="1502" y="362" type="curve"/>
      <point x="1265" y="285" type="line"/>
      <point x="1307" y="345"/>
      <point x="1338" y="405"/>
      <point x="1338" y="489" type="curve" smooth="yes"/>
      <point x="1338" y="554"/>
      <point x="1295" y="598"/>
      <point x="1229" y="598" type="curve" smooth="yes"/>
      <point x="1120" y="598"/>
      <point x="1027" y="476"/>
      <point x="979" y="236" type="curve"/>
      <point x="655" y="325" type="line"/>
      <point x="710" y="633"/>
      <point x="878" y="893"/>
      <point x="1184" y="893" type="curve" smooth="yes"/>
      <point x="1489" y="893"/>
      <point x="1659" y="694"/>
    </contour>
    <contour>
      <point x="1139.0" y="1280.0" type="move" name="mark0"/>
    </contour>
  </outline>
</glyph>
<glyph name="edeva" format="1">
  <advance width="1332"/>
  <unicode hex="090F"/>
  <outline>
    <contour>
      <point x="1162" y="1106" type="line"/>
      <point x="1162" y="739" type="line" smooth="yes"/>
      <point x="1162" y="599"/>
      <point x="1125" y="509"/>
      <point x="1033" y="413" type="curve"/>
      <point x="762" y="546" type="line"/>
      <point x="799" y="630"/>
      <point x="814" y="694"/>
      <point x="814" y="809" type="curve" smooth="yes"/>
      <point x="814" y="1106" type="line"/>
    </contour>
    <contour>
      <point x="-30" y="1065" type="line"/>
      <point x="-30" y="1293" type="line"/>
      <point x="1362" y="1293" type="line"/>
      <point x="1362" y="1065" type="line"/>
    </contour>
    <contour>
      <point x="135" y="1106" type="line"/>
      <point x="483" y="1106" type="line"/>
      <point x="483" y="691" type="line"/>
      <point x="483" y="577"/>
      <point x="507" y="542"/>
      <point x="611" y="473" type="curve" smooth="yes"/>
      <point x="994" y="221" type="line" smooth="yes"/>
      <point x="1122" y="137"/>
      <point x="1165" y="63"/>
      <point x="1165" y="-26" type="curve" smooth="yes"/>
      <point x="1165" y="-91"/>
      <point x="1139" y="-157"/>
      <point x="1107" y="-211" type="curve"/>
      <point x="746" y="-133" type="line"/>
      <point x="764" y="-98"/>
      <point x="779" y="-70"/>
      <point x="779" y="-37" type="curve" smooth="yes"/>
      <point x="779" y="-4"/>
      <point x="764" y="25"/>
      <point x="713" y="60" type="curve" smooth="yes"/>
      <point x="324" y="322" type="line" smooth="yes"/>
      <point x="176" y="422"/>
      <point x="135" y="512"/>
      <point x="135" y="688" type="curve" smooth="yes"/>
    </contour>
    <contour>
      <point x="-36" y="8" type="move" name="x44"/>
    </contour>
  </outline>
</glyph>
<glyph name="kadeva" format="1">
  <advance width="1762"/>
  <unicode hex="0915"/>
  <outline>
    <contour>
      <point x="-30" y="1065" type="line"/>
      <point x="-30" y="1293" type="line"/>
      <point x="1792" y="1293" type="line"/>
      <point x="1792" y="1065" type="line"/>
    </contour>
    <contour>
      <point x="725" y="593" type="curve"/>
      <point x="725" y="216" type="line"/>
      <point x="658" y="183"/>
      <point x="592" y="169"/>
      <point x="505" y="169" type="curve" smooth="yes"/>
      <point x="247" y="169"/>
      <point x="51" y="374"/>
      <point x="51" y="596" type="curve" smooth="yes"/>
      <point x="51" y="782"/>
      <point x="178" y="925"/>
      <point x="430" y="928" type="curve" smooth="yes"/>
      <point x="559" y="930"/>
      <point x="650" y="907"/>
      <point x="744" y="864" type="curve"/>
      <point x="744" y="626" type="line"/>
      <point x="660" y="666"/>
      <point x="606" y="680"/>
      <point x="514" y="680" type="curve" smooth="yes"/>
      <point x="398" y="680"/>
      <point x="343" y="617"/>
      <point x="343" y="547" type="curve" smooth="yes"/>
      <point x="343" y="479"/>
      <point x="397" y="431"/>
      <point x="474" y="431" type="curve" smooth="yes"/>
      <point x="563" y="431"/>
      <point x="659" y="483"/>
    </contour>
    <contour>
      <point x="703" y="1104" type="line"/>
      <point x="1051" y="1104" type="line"/>
      <point x="1051" y="0" type="line"/>
      <point x="703" y="0" type="line"/>
    </contour>
    <contour>
      <point x="982" y="390" type="curve"/>
      <point x="981" y="832" type="line"/>
      <point x="1032" y="842"/>
      <point x="1074" y="848"/>
      <point x="1168" y="848" type="curve" smooth="yes"/>
      <point x="1454" y="848"/>
      <point x="1656" y="661"/>
      <point x="1656" y="437" type="curve" smooth="yes"/>
      <point x="1656" y="303"/>
      <point x="1613" y="190"/>
      <point x="1531" y="80" type="curve"/>
      <point x="1225" y="183" type="line"/>
      <point x="1298" y="285"/>
      <point x="1333" y="364"/>
      <point x="1333" y="450" type="curve" smooth="yes"/>
      <point x="1333" y="512"/>
      <point x="1287" y="562"/>
      <point x="1213" y="562" type="curve" smooth="yes"/>
      <point x="1131" y="562"/>
      <point x="1053" y="512"/>
    </contour>
    <contour>
      <point x="703.0" y="0.0" type="move" name="btm"/>
    </contour>
    <contour>
      <point x="703.0" y="1293.0" type="move" name="top"/>
    </contour>
  </outline>
</glyph>
<glyph name="khadeva" format="1">
  <advance width="1979.0"/>
  <unicode hex="0916"/>
  <outline>
    <contour>
      <point x="1465" y="658" type="curve"/>
      <point x="1465" y="332" type="line"/>
      <point x="1406" y="307"/>
      <point x="1328" y="292"/>
      <point x="1235" y="292" type="curve" smooth="yes"/>
      <point x="1006" y="292"/>
      <point x="833" y="470"/>
      <point x="833" y="676" type="curve" smooth="yes"/>
      <point x="833" y="842"/>
      <point x="940" y="971"/>
      <point x="1172" y="971" type="curve" smooth="yes"/>
      <point x="1297" y="971"/>
      <point x="1390" y="952"/>
      <point x="1468" y="915" type="curve"/>
      <point x="1468" y="696" type="line"/>
      <point x="1399" y="728"/>
      <point x="1321" y="745"/>
      <point x="1234" y="745" type="curve" smooth="yes"/>
      <point x="1147" y="745"/>
      <point x="1099" y="690"/>
      <point x="1099" y="635" type="curve" smooth="yes"/>
      <point x="1099" y="574"/>
      <point x="1145" y="529"/>
      <point x="1211" y="529" type="curve" smooth="yes"/>
      <point x="1314" y="529"/>
      <point x="1403" y="576"/>
    </contour>
    <contour>
      <point x="256" y="713" type="line"/>
      <point x="382" y="752"/>
      <point x="424" y="826"/>
      <point x="424" y="950" type="curve" smooth="yes"/>
      <point x="424" y="1151" type="line"/>
      <point x="772" y="1151" type="line"/>
      <point x="772" y="933" type="line" smooth="yes"/>
      <point x="772" y="723"/>
      <point x="711" y="539"/>
      <point x="451" y="415" type="curve"/>
    </contour>
    <contour>
      <point x="-30" y="1065" type="line"/>
      <point x="-30" y="1293" type="line"/>
      <point x="2009" y="1293" type="line"/>
      <point x="2009" y="1065" type="line"/>
    </contour>
    <contour>
      <point x="365" y="633" type="line"/>
      <point x="409" y="560"/>
      <point x="465" y="489"/>
      <point x="516" y="438" type="curve" smooth="yes"/>
      <point x="670" y="284"/>
      <point x="881" y="198"/>
      <point x="1168" y="198" type="curve" smooth="yes"/>
      <point x="1335" y="198"/>
      <point x="1476" y="235"/>
      <point x="1626" y="310" type="curve"/>
      <point x="1716" y="60" type="line"/>
      <point x="1573" y="2"/>
      <point x="1388" y="-37"/>
      <point x="1177" y="-37" type="curve" smooth="yes"/>
      <point x="823" y="-37"/>
      <point x="492" y="74"/>
      <point x="295" y="271" type="curve" smooth="yes"/>
      <point x="182" y="384"/>
      <point x="103" y="494"/>
      <point x="62" y="582" type="curve" smooth="yes"/>
      <point x="39" y="629"/>
      <point x="28" y="671"/>
      <point x="28" y="705" type="curve" smooth="yes"/>
      <point x="28" y="789"/>
      <point x="91" y="856"/>
      <point x="171" y="856" type="curve" smooth="yes"/>
      <point x="254" y="856"/>
      <point x="304" y="821"/>
      <point x="372" y="734" type="curve" smooth="yes"/>
      <point x="418" y="674" type="line"/>
    </contour>
    <contour>
      <point x="1442" y="1104" type="line"/>
      <point x="1790" y="1104" type="line"/>
      <point x="1790" y="0" type="line"/>
      <point x="1442" y="0" type="line"/>
    </contour>
    <contour>
      <point x="1443" y="1293" type="move" name="top"/>
    </contour>
  </outline>
</glyph>
<glyph name="gadeva" format="1">
  <advance width="1497"/>
  <unicode hex="0917"/>
  <outline>
    <contour>
      <point x="642" y="1096" type="line"/>
      <point x="642" y="416" type="line"/>
      <point x="642" y="314"/>
      <point x="604" y="256"/>
      <point x="507" y="256" type="curve" smooth="yes"/>
      <point x="298" y="256"/>
      <point x="68" y="474"/>
      <point x="68" y="605" type="curve" smooth="yes"/>
      <point x="68" y="668"/>
      <point x="106" y="715"/>
      <point x="195" y="715" type="curve" smooth="yes"/>
      <point x="340" y="715" type="line"/>
      <point x="294" y="673" type="line"/>
      <point x="294" y="1096" type="line"/>
    </contour>
    <contour>
      <point x="960" y="1104" type="line"/>
      <point x="1308" y="1104" type="line"/>
      <point x="1308" y="0" type="line"/>
      <point x="960" y="0" type="line"/>
    </contour>
    <contour>
      <point x="1527" y="1065" type="line"/>
      <point x="-30" y="1065" type="line"/>
      <point x="-30" y="1293" type="line"/>
      <point x="1527" y="1293" type="line"/>
    </contour>
    <contour>
      <point x="960" y="1293" type="move" name="top"/>
    </contour>
  </outline>
</glyph>
<glyph name="ghadeva" format="1">
  <advance width="1563.0"/>
  <unicode hex="0918"/>
  <outline>
    <contour>
      <point x="861" y="637" type="line"/>
      <point x="833" y="637" type="line" smooth="yes"/>
      <point x="679" y="637"/>
      <point x="611" y="571"/>
      <point x="611" y="502" type="curve" smooth="yes"/>
      <point x="611" y="451"/>
      <point x="659" y="414"/>
      <point x="730" y="414" type="curve" smooth="yes"/>
      <point x="874" y="414"/>
      <point x="1033" y="503"/>
      <point x="1100" y="661" type="curve"/>
      <point x="1100" y="205" type="line"/>
      <point x="1023" y="146"/>
      <point x="922" y="114"/>
      <point x="763" y="114" type="curve" smooth="yes"/>
      <point x="464" y="114"/>
      <point x="291" y="318"/>
      <point x="291" y="527" type="curve" smooth="yes"/>
      <point x="291" y="727"/>
      <point x="431" y="910"/>
      <point x="747" y="910" type="curve" smooth="yes"/>
      <point x="798" y="910" type="line"/>
    </contour>
    <contour>
      <point x="404" y="679" type="line"/>
      <point x="189" y="729"/>
      <point x="79" y="868"/>
      <point x="79" y="1024" type="curve" smooth="yes"/>
      <point x="79" y="1095"/>
      <point x="99" y="1161"/>
      <point x="153" y="1211" type="curve"/>
      <point x="489" y="1136" type="line"/>
      <point x="449" y="1096"/>
      <point x="434" y="1049"/>
      <point x="434" y="998" type="curve" smooth="yes"/>
      <point x="434" y="935"/>
      <point x="488" y="858"/>
      <point x="651" y="858" type="curve"/>
    </contour>
    <contour>
      <point x="-30" y="1065" type="line"/>
      <point x="-30" y="1293" type="line"/>
      <point x="1593" y="1293" type="line"/>
      <point x="1593" y="1065" type="line"/>
    </contour>
    <contour>
      <point x="1027" y="1104" type="line"/>
      <point x="1375" y="1104" type="line"/>
      <point x="1375" y="0" type="line"/>
      <point x="1027" y="0" type="line"/>
    </contour>
    <contour>
      <point x="1026" y="1293" type="move" name="top"/>
    </contour>
  </outline>
</glyph>
<glyph name="ngadeva" format="1">
  <advance width="1504"/>
  <unicode hex="0919"/>
  <outline>
    <contour>
      <point x="1198" y="1065" type="line"/>
      <point x="1198" y="1293" type="line"/>
      <point x="1534" y="1293" type="line"/>
      <point x="1534" y="1065" type="line"/>
    </contour>
    <contour>
      <point x="1291" y="812" type="curve" smooth="yes"/>
      <point x="1423" y="812"/>
      <point x="1466" y="729"/>
      <point x="1466" y="658" type="curve" smooth="yes"/>
      <point x="1466" y="583"/>
      <point x="1415" y="504"/>
      <point x="1291" y="504" type="curve" smooth="yes"/>
      <point x="1157" y="504"/>
      <point x="1112" y="584"/>
      <point x="1112" y="658" type="curve" smooth="yes"/>
      <point x="1112" y="728"/>
      <point x="1161" y="812"/>
    </contour>
    <component base="ddadeva"/>
    <contour>
      <point x="511.0" y="-14.0" type="move" name="btm"/>
    </contour>
    <contour>
      <point x="691.0" y="1293.0" type="move" name="top"/>
    </contour>
  </outline>
</glyph>
<glyph name="cadeva" format="1">
  <advance width="1501"/>
  <unicode hex="091A"/>
  <outline>
    <contour>
      <point x="62" y="634" type="line"/>
      <point x="62" y="908" type="line"/>
      <point x="822" y="908" type="line"/>
      <point x="822" y="634" type="line"/>
    </contour>
    <contour>
      <point x="1009" y="586" type="curve"/>
      <point x="1009" y="173" type="line"/>
      <point x="937" y="141"/>
      <point x="840" y="126"/>
      <point x="740" y="126" type="curve" smooth="yes"/>
      <point x="446" y="126"/>
      <point x="267" y="299"/>
      <point x="267" y="522" type="curve" smooth="yes"/>
      <point x="267" y="715"/>
      <point x="398" y="878"/>
      <point x="704" y="878" type="curve"/>
      <point x="766" y="637" type="line"/>
      <point x="633" y="638"/>
      <point x="586" y="572"/>
      <point x="586" y="507" type="curve" smooth="yes"/>
      <point x="586" y="450"/>
      <point x="635" y="403"/>
      <point x="715" y="403" type="curve" smooth="yes"/>
      <point x="832" y="403"/>
      <point x="957" y="477"/>
    </contour>
    <contour>
      <point x="-30" y="1065" type="line"/>
      <point x="-30" y="1293" type="line"/>
      <point x="1531" y="1293" type="line"/>
      <point x="1531" y="1065" type="line"/>
    </contour>
    <contour>
      <point x="965" y="1104" type="line"/>
      <point x="1313" y="1104" type="line"/>
      <point x="1313" y="0" type="line"/>
      <point x="965" y="0" type="line"/>
    </contour>
    <contour>
      <point x="964" y="1293" type="move" name="top"/>
    </contour>
  </outline>
</glyph>
<glyph name="chadeva" format="1">
  <advance width="1679.0"/>
  <unicode hex="091B"/>
  <outline>
    <contour>
      <point x="701" y="816" type="curve"/>
      <point x="786" y="536" type="line"/>
      <point x="784" y="536"/>
      <point x="768" y="536"/>
      <point x="767" y="536" type="curve" smooth="yes"/>
      <point x="597" y="521"/>
      <point x="542" y="441"/>
      <point x="542" y="376" type="curve" smooth="yes"/>
      <point x="542" y="294"/>
      <point x="618" y="218"/>
      <point x="765" y="218" type="curve" smooth="yes"/>
      <point x="1053" y="218"/>
      <point x="1305" y="417"/>
      <point x="1305" y="602" type="curve" smooth="yes"/>
      <point x="1305" y="689"/>
      <point x="1272" y="739"/>
      <point x="1217" y="739" type="curve" smooth="yes"/>
      <point x="1152" y="739"/>
      <point x="1123" y="691"/>
      <point x="1123" y="637" type="curve" smooth="yes"/>
      <point x="1123" y="521"/>
      <point x="1182" y="462"/>
      <point x="1355" y="350" type="curve"/>
      <point x="1174" y="189" type="line"/>
      <point x="923" y="357"/>
      <point x="829" y="510"/>
      <point x="829" y="700" type="curve" smooth="yes"/>
      <point x="829" y="838"/>
      <point x="960" y="997"/>
      <point x="1179" y="997" type="curve" smooth="yes"/>
      <point x="1438" y="997"/>
      <point x="1596" y="825"/>
      <point x="1596" y="575" type="curve" smooth="yes"/>
      <point x="1596" y="258"/>
      <point x="1284" y="-55"/>
      <point x="790" y="-55" type="curve" smooth="yes"/>
      <point x="374" y="-55"/>
      <point x="194" y="183"/>
      <point x="194" y="408" type="curve" smooth="yes"/>
      <point x="194" y="604"/>
      <point x="361" y="801"/>
      <point x="679" y="816" type="curve" smooth="yes"/>
      <point x="681" y="816"/>
      <point x="699" y="816"/>
    </contour>
    <contour>
      <point x="613" y="756" type="curve"/>
      <point x="381" y="580" type="line"/>
      <point x="147" y="663"/>
      <point x="61" y="801"/>
      <point x="61" y="955" type="curve" smooth="yes"/>
      <point x="61" y="1095"/>
      <point x="207" y="1260"/>
      <point x="516" y="1264" type="curve"/>
      <point x="615" y="1085" type="line"/>
      <point x="471" y="1074"/>
      <point x="406" y="1001"/>
      <point x="406" y="920" type="curve" smooth="yes"/>
      <point x="406" y="840"/>
      <point x="469" y="779"/>
    </contour>
    <contour>
      <point x="1709" y="1065" type="line"/>
      <point x="-30" y="1065" type="line"/>
      <point x="-30" y="1293" type="line"/>
      <point x="1709" y="1293" type="line"/>
    </contour>
    <contour>
      <point x="1143" y="1105" type="line"/>
      <point x="1491" y="1105" type="line"/>
      <point x="1491" y="856" type="line"/>
      <point x="1143" y="856" type="line"/>
    </contour>
    <contour>
      <point x="643" y="-5" type="move" name="btm"/>
    </contour>
    <contour>
      <point x="1031" y="1293" type="move" name="top"/>
    </contour>
  </outline>
</glyph>
<glyph name="jadeva" format="1">
  <advance width="1736"/>
  <unicode hex="091C"/>
  <outline>
    <contour>
      <point x="-30" y="1065" type="line"/>
      <point x="-30" y="1293" type="line"/>
      <point x="1766" y="1293" type="line"/>
      <point x="1766" y="1065" type="line"/>
    </contour>
    <contour>
      <point x="765" y="624" type="line"/>
      <point x="787" y="748" type="line"/>
      <point x="928" y="648"/>
      <point x="991" y="525"/>
      <point x="991" y="383" type="curve" smooth="yes"/>
      <point x="991" y="195"/>
      <point x="844" y="36"/>
      <point x="601" y="36" type="curve" smooth="yes"/>
      <point x="384" y="36"/>
      <point x="169" y="168"/>
      <point x="2" y="403" type="curve"/>
      <point x="163" y="635" type="line"/>
      <point x="340" y="400"/>
      <point x="475" y="339"/>
      <point x="558" y="339" type="curve" smooth="yes"/>
      <point x="628" y="339"/>
      <point x="674" y="385"/>
      <point x="674" y="447" type="curve" smooth="yes"/>
      <point x="674" y="534"/>
      <point x="587" y="640"/>
      <point x="421" y="669" type="curve"/>
      <point x="421" y="908" type="line"/>
      <point x="1250" y="908" type="line"/>
      <point x="1250" y="624" type="line"/>
    </contour>
    <contour>
      <point x="1200" y="1104" type="line"/>
      <point x="1548" y="1104" type="line"/>
      <point x="1548" y="0" type="line"/>
      <point x="1200" y="0" type="line"/>
    </contour>
    <contour>
      <point x="1199.0" y="1293.0" type="move" name="top"/>
    </contour>
  </outline>
</glyph>
<glyph name="jhadeva" format="1">
  <advance width="1789"/>
  <unicode hex="091D"/>
  <outline>
    <contour>
      <point x="1301" y="629" type="curve"/>
      <point x="1306" y="297" type="line"/>
      <point x="1276" y="287"/>
      <point x="1213" y="281"/>
      <point x="1167" y="281" type="curve" smooth="yes"/>
      <point x="1041" y="281"/>
      <point x="951" y="297"/>
      <point x="884" y="313" type="curve"/>
      <point x="876" y="565" type="line"/>
      <point x="940" y="551"/>
      <point x="997" y="543"/>
      <point x="1053" y="543" type="curve" smooth="yes"/>
      <point x="1128" y="543"/>
      <point x="1235" y="567"/>
    </contour>
    <contour>
      <point x="1252" y="1104" type="line"/>
      <point x="1600" y="1104" type="line"/>
      <point x="1600" y="0" type="line"/>
      <point x="1252" y="0" type="line"/>
    </contour>
    <contour>
      <point x="1819" y="1065" type="line"/>
      <point x="1085" y="1065" type="line"/>
      <point x="1085" y="1293" type="line"/>
      <point x="1819" y="1293" type="line"/>
    </contour>
    <component base="ideva"/>
    <contour>
      <point x="1252" y="1293" type="move" name="top"/>
    </contour>
  </outline>
</glyph>
<glyph name="nyadeva" format="1">
  <advance width="1833"/>
  <unicode hex="091E"/>
  <outline>
    <contour>
      <point x="916" y="712" type="line"/>
      <point x="990" y="700"/>
      <point x="1031" y="694"/>
      <point x="1093" y="694" type="curve" smooth="yes"/>
      <point x="1199" y="694"/>
      <point x="1314" y="733"/>
      <point x="1378" y="771" type="curve"/>
      <point x="1378" y="429" type="line"/>
      <point x="1331" y="411"/>
      <point x="1269" y="403"/>
      <point x="1178" y="403" type="curve" smooth="yes"/>
      <point x="1086" y="403"/>
      <point x="968" y="416"/>
      <point x="916" y="438" type="curve"/>
    </contour>
    <contour>
      <point x="-30" y="1065" type="line"/>
      <point x="-30" y="1293" type="line"/>
      <point x="1863" y="1293" type="line"/>
      <point x="1863" y="1065" type="line"/>
    </contour>
    <contour>
      <point x="1296" y="1104" type="line"/>
      <point x="1644" y="1104" type="line"/>
      <point x="1644" y="0" type="line"/>
      <point x="1296" y="0" type="line"/>
    </contour>
    <contour>
      <point x="1036" y="504" type="curve" smooth="yes"/>
      <point x="1036" y="230"/>
      <point x="868" y="72"/>
      <point x="609" y="72" type="curve" smooth="yes"/>
      <point x="400" y="72"/>
      <point x="200" y="162"/>
      <point x="9" y="362" type="curve"/>
      <point x="121" y="606" type="line"/>
      <point x="300" y="426"/>
      <point x="412" y="375"/>
      <point x="534" y="375" type="curve" smooth="yes"/>
      <point x="668" y="375"/>
      <point x="737" y="443"/>
      <point x="736" y="537" type="curve" smooth="yes"/>
      <point x="735" y="616"/>
      <point x="659" y="677"/>
      <point x="558" y="677" type="curve" smooth="yes"/>
      <point x="472" y="677"/>
      <point x="397" y="647"/>
      <point x="336" y="595" type="curve"/>
      <point x="196" y="853" type="line"/>
      <point x="274" y="916"/>
      <point x="394" y="970"/>
      <point x="535" y="970" type="curve" smooth="yes"/>
      <point x="813" y="970"/>
      <point x="1036" y="769"/>
    </contour>
    <contour>
      <point x="1296.0" y="1293.0" type="move" name="top"/>
    </contour>
  </outline>
</glyph>
<glyph name="ttadeva" format="1">
  <advance width="1221"/>
  <unicode hex="091F"/>
  <outline>
    <contour>
      <point x="669" y="1102" type="line"/>
      <point x="1017" y="1102" type="line"/>
      <point x="1017" y="654" type="line"/>
      <point x="667" y="654" type="line" smooth="yes"/>
      <point x="500" y="654"/>
      <point x="427" y="557"/>
      <point x="427" y="460" type="curve" smooth="yes"/>
      <point x="427" y="351"/>
      <point x="511" y="288"/>
      <point x="665" y="288" type="curve" smooth="yes"/>
      <point x="787" y="288"/>
      <point x="900" y="322"/>
      <point x="1049" y="378" type="curve"/>
      <point x="1116" y="78" type="line"/>
      <point x="985" y="26"/>
      <point x="894" y="4"/>
      <point x="726" y="4" type="curve" smooth="yes"/>
      <point x="329" y="4"/>
      <point x="78" y="242"/>
      <point x="78" y="502" type="curve" smooth="yes"/>
      <point x="78" y="759"/>
      <point x="252" y="908"/>
      <point x="568" y="908" type="curve" smooth="yes"/>
      <point x="709" y="908" type="line"/>
      <point x="669" y="865" type="line"/>
    </contour>
    <contour>
      <point x="1251" y="1065" type="line"/>
      <point x="-30" y="1065" type="line"/>
      <point x="-30" y="1293" type="line"/>
      <point x="1251" y="1293" type="line"/>
    </contour>
    <contour>
      <point x="529.0" y="25.0" type="move" name="btm"/>
    </contour>
    <contour>
      <point x="623.0" y="1293.0" type="move" name="top"/>
    </contour>
  </outline>
</glyph>
<glyph name="tthadeva" format="1">
  <advance width="1354"/>
  <unicode hex="0920"/>
  <outline>
    <contour>
      <point x="964" y="484" type="curve" smooth="yes"/>
      <point x="964" y="552"/>
      <point x="926" y="614"/>
      <point x="864" y="655" type="curve"/>
      <point x="683" y="655" type="line" smooth="yes"/>
      <point x="484" y="655"/>
      <point x="396" y="566"/>
      <point x="396" y="461" type="curve" smooth="yes"/>
      <point x="396" y="351"/>
      <point x="497" y="263"/>
      <point x="665" y="263" type="curve" smooth="yes"/>
      <point x="849" y="263"/>
      <point x="964" y="350"/>
    </contour>
    <contour>
      <point x="1384" y="1065" type="line"/>
      <point x="-30" y="1065" type="line"/>
      <point x="-30" y="1293" type="line"/>
      <point x="1384" y="1293" type="line"/>
    </contour>
    <contour>
      <point x="792" y="1086" type="line"/>
      <point x="1140" y="1086" type="line"/>
      <point x="1140" y="736" type="line"/>
      <point x="1041" y="859" type="line"/>
      <point x="1155" y="788"/>
      <point x="1271" y="620"/>
      <point x="1271" y="434" type="curve" smooth="yes"/>
      <point x="1271" y="201"/>
      <point x="1125" y="-19"/>
      <point x="717" y="-19" type="curve" smooth="yes"/>
      <point x="289" y="-19"/>
      <point x="68" y="243"/>
      <point x="68" y="509" type="curve" smooth="yes"/>
      <point x="68" y="755"/>
      <point x="245" y="908"/>
      <point x="566" y="908" type="curve" smooth="yes"/>
      <point x="853" y="908" type="line"/>
      <point x="792" y="851" type="line"/>
    </contour>
    <contour>
      <point x="529" y="25" type="move" name="btm"/>
    </contour>
    <contour>
      <point x="722" y="1293" type="move" name="top"/>
    </contour>
  </outline>
</glyph>
<glyph name="ddadeva" format="1">
  <advance width="1261"/>
  <unicode hex="0921"/>
  <outline>
    <contour>
      <point x="691" y="1086" type="line"/>
      <point x="1039" y="1086" type="line"/>
      <point x="1039" y="723" type="line"/>
      <point x="532" y="723" type="line" smooth="yes"/>
      <point x="456" y="723"/>
      <point x="429" y="687"/>
      <point x="429" y="648" type="curve" smooth="yes"/>
      <point x="429" y="612"/>
      <point x="452" y="588"/>
      <point x="517" y="558" type="curve"/>
      <point x="395" y="575" type="line"/>
      <point x="474" y="612"/>
      <point x="582" y="634"/>
      <point x="729" y="634" type="curve" smooth="yes"/>
      <point x="1017" y="634"/>
      <point x="1157" y="486"/>
      <point x="1157" y="310" type="curve" smooth="yes"/>
      <point x="1157" y="120"/>
      <point x="1035" y="-34"/>
      <point x="679" y="-34" type="curve" smooth="yes"/>
      <point x="491" y="-34"/>
      <point x="289" y="12"/>
      <point x="95" y="94" type="curve"/>
      <point x="155" y="343" type="line"/>
      <point x="328" y="257"/>
      <point x="487" y="216"/>
      <point x="623" y="216" type="curve" smooth="yes"/>
      <point x="771" y="216"/>
      <point x="828" y="254"/>
      <point x="828" y="314" type="curve" smooth="yes"/>
      <point x="828" y="356"/>
      <point x="793" y="385"/>
      <point x="716" y="385" type="curve" smooth="yes"/>
      <point x="636" y="385"/>
      <point x="538" y="359"/>
      <point x="470" y="327" type="curve"/>
      <point x="442" y="327" type="line"/>
      <point x="196" y="435"/>
      <point x="106" y="554"/>
      <point x="106" y="701" type="curve" smooth="yes"/>
      <point x="106" y="821"/>
      <point x="193" y="946"/>
      <point x="436" y="946" type="curve" smooth="yes"/>
      <point x="758" y="946" type="line"/>
      <point x="691" y="880" type="line"/>
    </contour>
    <contour>
      <point x="1291" y="1065" type="line"/>
      <point x="-30" y="1065" type="line"/>
      <point x="-30" y="1293" type="line"/>
      <point x="1291" y="1293" type="line"/>
    </contour>
    <contour>
      <point x="529" y="5" type="move" name="btm"/>
    </contour>
    <contour>
      <point x="691.0" y="1293.0" type="move" name="top"/>
    </contour>
  </outline>
</glyph>
<glyph name="ddhadeva" format="1">
  <advance width="1306"/>
  <unicode hex="0922"/>
  <outline>
    <contour>
      <point x="1336" y="1065" type="line"/>
      <point x="-30" y="1065" type="line"/>
      <point x="-30" y="1293" type="line"/>
      <point x="1336" y="1293" type="line"/>
    </contour>
    <contour>
      <point x="741" y="1095" type="line"/>
      <point x="1089" y="1095" type="line"/>
      <point x="1089" y="666" type="line"/>
      <point x="693" y="666" type="line" smooth="yes"/>
      <point x="457" y="666"/>
      <point x="382" y="557"/>
      <point x="382" y="427" type="curve" smooth="yes"/>
      <point x="382" y="297"/>
      <point x="532" y="181"/>
      <point x="747" y="181" type="curve" smooth="yes"/>
      <point x="911" y="181"/>
      <point x="1010" y="239"/>
      <point x="1010" y="305" type="curve" smooth="yes"/>
      <point x="1010" y="344"/>
      <point x="981" y="371"/>
      <point x="924" y="371" type="curve" smooth="yes"/>
      <point x="846" y="371"/>
      <point x="774" y="312"/>
      <point x="774" y="248" type="curve" smooth="yes"/>
      <point x="774" y="203"/>
      <point x="785" y="160"/>
      <point x="809" y="114" type="curve"/>
      <point x="543" y="86" type="line"/>
      <point x="502" y="150"/>
      <point x="489" y="209"/>
      <point x="489" y="280" type="curve" smooth="yes"/>
      <point x="489" y="435"/>
      <point x="620" y="574"/>
      <point x="877" y="574" type="curve" smooth="yes"/>
      <point x="1130" y="574"/>
      <point x="1282" y="439"/>
      <point x="1282" y="293" type="curve" smooth="yes"/>
      <point x="1282" y="127"/>
      <point x="1142" y="-14"/>
      <point x="790" y="-14" type="curve" smooth="yes"/>
      <point x="355" y="-14"/>
      <point x="67" y="239"/>
      <point x="67" y="496" type="curve" smooth="yes"/>
      <point x="67" y="714"/>
      <point x="199" y="908"/>
      <point x="585" y="908" type="curve" smooth="yes"/>
      <point x="783" y="908" type="line"/>
      <point x="741" y="874" type="line"/>
    </contour>
    <contour>
      <point x="529" y="25" type="move" name="btm"/>
    </contour>
    <contour>
      <point x="705.0" y="1293.0" type="move" name="top"/>
    </contour>
  </outline>
</glyph>
<glyph name="nnadeva" format="1">
  <advance width="1818"/>
  <unicode hex="0923"/>
  <outline>
    <contour>
      <point x="702" y="1086" type="line"/>
      <point x="1050" y="1086" type="line"/>
      <point x="1050" y="730" type="line" smooth="yes"/>
      <point x="1050" y="462"/>
      <point x="916" y="265"/>
      <point x="602" y="265" type="curve" smooth="yes"/>
      <point x="279" y="265"/>
      <point x="122" y="468"/>
      <point x="122" y="728" type="curve" smooth="yes"/>
      <point x="122" y="1086" type="line"/>
      <point x="470" y="1086" type="line"/>
      <point x="470" y="668" type="line" smooth="yes"/>
      <point x="470" y="579"/>
      <point x="514" y="529"/>
      <point x="580" y="529" type="curve" smooth="yes"/>
      <point x="650" y="529"/>
      <point x="702" y="587"/>
      <point x="702" y="702" type="curve" smooth="yes"/>
    </contour>
    <contour>
      <point x="-30" y="1065" type="line"/>
      <point x="-30" y="1293" type="line"/>
      <point x="1848" y="1293" type="line"/>
      <point x="1848" y="1065" type="line"/>
    </contour>
    <contour>
      <point x="1281" y="1104" type="line"/>
      <point x="1629" y="1104" type="line"/>
      <point x="1629" y="0" type="line"/>
      <point x="1281" y="0" type="line"/>
    </contour>
    <contour>
      <point x="1253" y="1293" type="move" name="top"/>
    </contour>
  </outline>
</glyph>
<glyph name="tadeva" format="1">
  <advance width="1342"/>
  <unicode hex="0924"/>
  <outline>
    <contour>
      <point x="873" y="908" type="line"/>
      <point x="873" y="619" type="line"/>
      <point x="659" y="619" type="line" smooth="yes"/>
      <point x="479" y="619"/>
      <point x="419" y="528"/>
      <point x="419" y="418" type="curve" smooth="yes"/>
      <point x="419" y="321"/>
      <point x="466" y="212"/>
      <point x="559" y="49" type="curve"/>
      <point x="271" y="-33" type="line"/>
      <point x="151" y="162"/>
      <point x="87" y="347"/>
      <point x="89" y="505" type="curve" smooth="yes"/>
      <point x="92" y="732"/>
      <point x="233" y="908"/>
      <point x="579" y="908" type="curve" smooth="yes"/>
    </contour>
    <contour>
      <point x="-30" y="1065" type="line"/>
      <point x="-30" y="1293" type="line"/>
      <point x="1372" y="1293" type="line"/>
      <point x="1372" y="1065" type="line"/>
    </contour>
    <contour>
      <point x="806" y="1104" type="line"/>
      <point x="1154" y="1104" type="line"/>
      <point x="1154" y="0" type="line"/>
      <point x="806" y="0" type="line"/>
    </contour>
    <contour>
      <point x="806.0" y="1293.0" type="move" name="top"/>
    </contour>
  </outline>
</glyph>
<glyph name="thadeva" format="1">
  <advance width="1504"/>
  <unicode hex="0925"/>
  <outline>
    <contour>
      <point x="801" y="936" type="curve" smooth="yes"/>
      <point x="801" y="722"/>
      <point x="639" y="567"/>
      <point x="416" y="505" type="curve"/>
      <point x="417" y="610" type="line"/>
      <point x="492" y="525"/>
      <point x="571" y="480"/>
      <point x="678" y="480" type="curve" smooth="yes"/>
      <point x="831" y="480"/>
      <point x="962" y="564"/>
      <point x="1023" y="726" type="curve"/>
      <point x="1023" y="248" type="line"/>
      <point x="966" y="221"/>
      <point x="891" y="205"/>
      <point x="795" y="205" type="curve" smooth="yes"/>
      <point x="493" y="205"/>
      <point x="225" y="387"/>
      <point x="89" y="651" type="curve"/>
      <point x="95" y="666" type="line"/>
      <point x="317" y="705"/>
      <point x="505" y="838"/>
      <point x="505" y="977" type="curve" smooth="yes"/>
      <point x="505" y="1065"/>
      <point x="438" y="1115"/>
      <point x="372" y="1115" type="curve" smooth="yes"/>
      <point x="315" y="1115"/>
      <point x="289" y="1081"/>
      <point x="289" y="1032" type="curve" smooth="yes"/>
      <point x="289" y="962"/>
      <point x="346" y="914"/>
      <point x="490" y="866" type="curve"/>
      <point x="371" y="692" type="line"/>
      <point x="105" y="774"/>
      <point x="-14" y="927"/>
      <point x="-14" y="1092" type="curve" smooth="yes"/>
      <point x="-14" y="1225"/>
      <point x="94" y="1350"/>
      <point x="304" y="1350" type="curve" smooth="yes"/>
      <point x="617" y="1350"/>
      <point x="801" y="1148"/>
    </contour>
    <contour>
      <point x="967" y="1104" type="line"/>
      <point x="1315" y="1104" type="line"/>
      <point x="1315" y="0" type="line"/>
      <point x="967" y="0" type="line"/>
    </contour>
    <contour>
      <point x="1534" y="1065" type="line"/>
      <point x="887" y="1065" type="line"/>
      <point x="887" y="1293" type="line"/>
      <point x="1534" y="1293" type="line"/>
    </contour>
    <contour>
      <point x="967.0" y="1293.0" type="move" name="top"/>
    </contour>
  </outline>
</glyph>
<glyph name="dadeva" format="1">
  <advance width="1248"/>
  <unicode hex="0926"/>
  <outline>
    <contour>
      <point x="-30" y="1065" type="line"/>
      <point x="-30" y="1293" type="line"/>
      <point x="1278" y="1293" type="line"/>
      <point x="1278" y="1065" type="line"/>
    </contour>
    <contour>
      <point x="696" y="177" type="line"/>
      <point x="959" y="257" type="line"/>
      <point x="1190" y="-168" type="line"/>
      <point x="939" y="-273" type="line"/>
    </contour>
    <contour>
      <point x="700" y="52" type="curve" smooth="yes"/>
      <point x="337" y="52"/>
      <point x="68" y="248"/>
      <point x="68" y="512" type="curve" smooth="yes"/>
      <point x="68" y="738"/>
      <point x="221" y="908"/>
      <point x="577" y="908" type="curve" smooth="yes"/>
      <point x="771" y="908" type="line"/>
      <point x="701" y="852" type="line"/>
      <point x="701" y="1096" type="line"/>
      <point x="1050" y="1096" type="line"/>
      <point x="1050" y="665" type="line"/>
      <point x="692" y="665" type="line" smooth="yes"/>
      <point x="482" y="665"/>
      <point x="402" y="577"/>
      <point x="402" y="469" type="curve" smooth="yes"/>
      <point x="402" y="368"/>
      <point x="497" y="293"/>
      <point x="626" y="293" type="curve" smooth="yes"/>
      <point x="719" y="293"/>
      <point x="784" y="299"/>
      <point x="891" y="332" type="curve"/>
      <point x="676" y="222" type="line"/>
      <point x="647" y="277"/>
      <point x="615" y="336"/>
      <point x="615" y="392" type="curve" smooth="yes"/>
      <point x="615" y="458"/>
      <point x="672" y="515"/>
      <point x="809" y="515" type="curve" smooth="yes"/>
      <point x="1004" y="515"/>
      <point x="1170" y="420"/>
      <point x="1170" y="311" type="curve" smooth="yes"/>
      <point x="1170" y="200"/>
      <point x="1028" y="52"/>
    </contour>
    <contour>
      <point x="864.0" y="-191.0" type="move" name="btm"/>
    </contour>
    <contour>
      <point x="652.0" y="1293.0" type="move" name="top"/>
    </contour>
  </outline>
</glyph>
<glyph name="dhadeva" format="1">
  <advance width="1532"/>
  <unicode hex="0927"/>
  <outline>
    <contour>
      <point x="829" y="636" type="line"/>
      <point x="796" y="636" type="line" smooth="yes"/>
      <point x="633" y="636"/>
      <point x="579" y="563"/>
      <point x="579" y="501" type="curve" smooth="yes"/>
      <point x="579" y="450"/>
      <point x="632" y="414"/>
      <point x="704" y="414" type="curve" smooth="yes"/>
      <point x="867" y="414"/>
      <point x="1013" y="523"/>
      <point x="1069" y="662" type="curve"/>
      <point x="1069" y="205" type="line"/>
      <point x="984" y="142"/>
      <point x="874" y="114"/>
      <point x="736" y="114" type="curve" smooth="yes"/>
      <point x="432" y="114"/>
      <point x="260" y="314"/>
      <point x="260" y="530" type="curve" smooth="yes"/>
      <point x="260" y="725"/>
      <point x="400" y="910"/>
      <point x="716" y="910" type="curve" smooth="yes"/>
      <point x="766" y="910" type="line"/>
    </contour>
    <contour>
      <point x="996" y="1103" type="line"/>
      <point x="1344" y="1103" type="line"/>
      <point x="1344" y="0" type="line"/>
      <point x="996" y="0" type="line"/>
    </contour>
    <contour>
      <point x="1562" y="1065" type="line"/>
      <point x="871" y="1065" type="line"/>
      <point x="871" y="1293" type="line"/>
      <point x="1562" y="1293" type="line"/>
    </contour>
    <contour>
      <point x="333" y="682" type="line"/>
      <point x="211" y="709"/>
      <point x="112" y="760"/>
      <point x="43" y="829" type="curve" smooth="yes"/>
      <point x="-28" y="900"/>
      <point x="-67" y="989"/>
      <point x="-67" y="1088" type="curve" smooth="yes"/>
      <point x="-67" y="1256"/>
      <point x="58" y="1403"/>
      <point x="299" y="1403" type="curve" smooth="yes"/>
      <point x="546" y="1403"/>
      <point x="690" y="1247"/>
      <point x="690" y="1078" type="curve" smooth="yes"/>
      <point x="690" y="894"/>
      <point x="527" y="772"/>
      <point x="315" y="772" type="curve"/>
      <point x="210" y="938" type="line"/>
      <point x="346" y="938"/>
      <point x="423" y="1014"/>
      <point x="423" y="1091" type="curve" smooth="yes"/>
      <point x="423" y="1140"/>
      <point x="387" y="1174"/>
      <point x="331" y="1174" type="curve" smooth="yes"/>
      <point x="267" y="1174"/>
      <point x="222" y="1119"/>
      <point x="222" y="1063" type="curve" smooth="yes"/>
      <point x="222" y="1031"/>
      <point x="232" y="1002"/>
      <point x="257" y="976" type="curve" smooth="yes"/>
      <point x="305" y="928"/>
      <point x="406" y="894"/>
      <point x="592" y="887" type="curve"/>
    </contour>
    <contour>
      <point x="996.0" y="1293.0" type="move" name="top"/>
    </contour>
  </outline>
</glyph>
<glyph name="nadeva" format="1">
  <advance width="1337"/>
  <unicode hex="0928"/>
  <outline>
    <contour>
      <point x="836" y="849" type="line"/>
      <point x="836" y="566" type="line"/>
      <point x="439" y="566" type="line"/>
      <point x="489" y="617" type="line"/>
      <point x="489" y="380" type="line" smooth="yes"/>
      <point x="489" y="291"/>
      <point x="444" y="238"/>
      <point x="374" y="238" type="curve" smooth="yes"/>
      <point x="325" y="238"/>
      <point x="274" y="263"/>
      <point x="215" y="322" type="curve" smooth="yes"/>
      <point x="143" y="394"/>
      <point x="60" y="540"/>
      <point x="60" y="676" type="curve" smooth="yes"/>
      <point x="60" y="787"/>
      <point x="117" y="849"/>
      <point x="251" y="849" type="curve" smooth="yes"/>
    </contour>
    <contour>
      <point x="-30" y="1065" type="line"/>
      <point x="-30" y="1293" type="line"/>
      <point x="1367" y="1293" type="line"/>
      <point x="1367" y="1065" type="line"/>
    </contour>
    <contour>
      <point x="800" y="1104" type="line"/>
      <point x="1148" y="1104" type="line"/>
      <point x="1148" y="0" type="line"/>
      <point x="800" y="0" type="line"/>
    </contour>
    <contour>
      <point x="800" y="1293" type="move" name="top"/>
    </contour>
  </outline>
</glyph>
<glyph name="phadeva" format="1">
  <advance width="1822"/>
  <unicode hex="092B"/>
  <outline>
    <contour>
      <point x="470" y="1171" type="line"/>
      <point x="470" y="708" type="line"/>
      <point x="470" y="618"/>
      <point x="512" y="571"/>
      <point x="586" y="571" type="curve" smooth="yes"/>
      <point x="661" y="571"/>
      <point x="738" y="606"/>
      <point x="802" y="678" type="curve"/>
      <point x="802" y="315" type="line"/>
      <point x="754" y="301"/>
      <point x="698" y="295"/>
      <point x="628" y="295" type="curve" smooth="yes"/>
      <point x="319" y="295"/>
      <point x="122" y="475"/>
      <point x="122" y="787" type="curve" smooth="yes"/>
      <point x="122" y="1171" type="line"/>
    </contour>
    <contour>
      <point x="-30" y="1065" type="line"/>
      <point x="-30" y="1293" type="line"/>
      <point x="1852" y="1293" type="line"/>
      <point x="1852" y="1065" type="line"/>
    </contour>
    <contour>
      <point x="772" y="1104" type="line"/>
      <point x="1120" y="1104" type="line"/>
      <point x="1120" y="0" type="line"/>
      <point x="772" y="0" type="line"/>
    </contour>
    <contour>
      <point x="1081" y="349" type="curve"/>
      <point x="1072" y="818" type="line"/>
      <point x="1116" y="829"/>
      <point x="1169" y="838"/>
      <point x="1261" y="838" type="curve" smooth="yes"/>
      <point x="1547" y="838"/>
      <point x="1750" y="644"/>
      <point x="1750" y="418" type="curve" smooth="yes"/>
      <point x="1750" y="286"/>
      <point x="1693" y="172"/>
      <point x="1616" y="82" type="curve"/>
      <point x="1320" y="186" type="line"/>
      <point x="1388" y="279"/>
      <point x="1442" y="375"/>
      <point x="1442" y="455" type="curve" smooth="yes"/>
      <point x="1442" y="514"/>
      <point x="1408" y="557"/>
      <point x="1342" y="557" type="curve" smooth="yes"/>
      <point x="1248" y="557"/>
      <point x="1152" y="491"/>
    </contour>
    <contour>
      <point x="772.0" y="0.0" type="move" name="btm"/>
    </contour>
    <contour>
      <point x="772.0" y="1293.0" type="move" name="top"/>
    </contour>
  </outline>
</glyph>
<glyph name="badeva" format="1">
  <advance width="1306.0"/>
  <unicode hex="092C"/>
  <outline>
    <contour>
      <point x="794" y="437" type="line"/>
      <point x="667" y="343" type="line"/>
      <point x="361" y="693" type="line"/>
      <point x="487" y="786" type="line"/>
    </contour>
    <contour>
      <point x="1336" y="1065" type="line"/>
      <point x="-30" y="1065" type="line"/>
      <point x="-30" y="1293" type="line"/>
      <point x="1336" y="1293" type="line"/>
    </contour>
    <contour>
      <point x="807" y="548" type="curve"/>
      <point x="807" y="196" type="line"/>
      <point x="742" y="162"/>
      <point x="667" y="146"/>
      <point x="572" y="146" type="curve" smooth="yes"/>
      <point x="260" y="146"/>
      <point x="59" y="376"/>
      <point x="59" y="615" type="curve" smooth="yes"/>
      <point x="59" y="811"/>
      <point x="225" y="955"/>
      <point x="476" y="955" type="curve" smooth="yes"/>
      <point x="631" y="955"/>
      <point x="759" y="929"/>
      <point x="863" y="886" type="curve"/>
      <point x="863" y="643" type="line"/>
      <point x="747" y="690"/>
      <point x="664" y="709"/>
      <point x="566" y="709" type="curve" smooth="yes"/>
      <point x="439" y="709"/>
      <point x="370" y="654"/>
      <point x="370" y="559" type="curve" smooth="yes"/>
      <point x="370" y="468"/>
      <point x="426" y="406"/>
      <point x="525" y="406" type="curve" smooth="yes"/>
      <point x="640" y="406"/>
      <point x="725" y="448"/>
    </contour>
    <contour>
      <point x="769" y="1104" type="line"/>
      <point x="1117" y="1104" type="line"/>
      <point x="1117" y="0" type="line"/>
      <point x="769" y="0" type="line"/>
    </contour>
    <contour>
      <point x="769" y="1293" type="move" name="top"/>
    </contour>
  </outline>
</glyph>
<glyph name="bhadeva" format="1">
  <advance width="1565"/>
  <unicode hex="092D"/>
  <outline>
    <contour>
      <point x="1028" y="1104" type="line"/>
      <point x="1376" y="1104" type="line"/>
      <point x="1376" y="0" type="line"/>
      <point x="1028" y="0" type="line"/>
    </contour>
    <contour>
      <point x="1595" y="1065" type="line"/>
      <point x="901" y="1065" type="line"/>
      <point x="901" y="1293" type="line"/>
      <point x="1595" y="1293" type="line"/>
    </contour>
    <contour>
      <point x="443" y="693" type="line"/>
      <point x="407" y="663" type="line"/>
      <point x="407" y="1004" type="line" smooth="yes"/>
      <point x="407" y="1099"/>
      <point x="346" y="1160"/>
      <point x="271" y="1160" type="curve" smooth="yes"/>
      <point x="221" y="1160"/>
      <point x="191" y="1116"/>
      <point x="191" y="1072" type="curve" smooth="yes"/>
      <point x="191" y="1004"/>
      <point x="265" y="958"/>
      <point x="421" y="958" type="curve"/>
      <point x="424" y="745" type="line"/>
      <point x="63" y="746"/>
      <point x="-104" y="922"/>
      <point x="-104" y="1114" type="curve" smooth="yes"/>
      <point x="-104" y="1255"/>
      <point x="-5" y="1398"/>
      <point x="236" y="1398" type="curve" smooth="yes"/>
      <point x="525" y="1398"/>
      <point x="727" y="1215"/>
      <point x="727" y="959" type="curve" smooth="yes"/>
      <point x="727" y="650" type="line"/>
      <point x="694" y="693" type="line"/>
      <point x="1056" y="693" type="line"/>
      <point x="1056" y="410" type="line"/>
      <point x="677" y="410" type="line"/>
      <point x="727" y="459" type="line"/>
      <point x="727" y="329" type="line"/>
      <point x="727" y="240"/>
      <point x="694" y="187"/>
      <point x="606" y="187" type="curve" smooth="yes"/>
      <point x="524" y="187"/>
      <point x="410" y="239"/>
      <point x="331" y="318" type="curve" smooth="yes"/>
      <point x="261" y="387"/>
      <point x="207" y="486"/>
      <point x="207" y="572" type="curve" smooth="yes"/>
      <point x="207" y="643"/>
      <point x="251" y="693"/>
      <point x="337" y="693" type="curve" smooth="yes"/>
    </contour>
    <contour>
      <point x="1028.0" y="1293.0" type="move" name="top"/>
    </contour>
  </outline>
</glyph>
<glyph name="madeva" format="1">
  <advance width="1418"/>
  <unicode hex="092E"/>
  <outline>
    <contour>
      <point x="-30" y="1065" type="line"/>
      <point x="-30" y="1293" type="line"/>
      <point x="1448" y="1293" type="line"/>
      <point x="1448" y="1065" type="line"/>
    </contour>
    <contour>
      <point x="881" y="1104" type="line"/>
      <point x="1230" y="1104" type="line"/>
      <point x="1230" y="0" type="line"/>
      <point x="881" y="0" type="line"/>
    </contour>
    <contour>
      <point x="41" y="572" type="curve" smooth="yes"/>
      <point x="41" y="643"/>
      <point x="85" y="693"/>
      <point x="172" y="693" type="curve" smooth="yes"/>
      <point x="250" y="693" type="line"/>
      <point x="214" y="663" type="line"/>
      <point x="214" y="1104" type="line"/>
      <point x="562" y="1104" type="line"/>
      <point x="562" y="650" type="line"/>
      <point x="530" y="693" type="line"/>
      <point x="930" y="693" type="line"/>
      <point x="930" y="410" type="line"/>
      <point x="512" y="410" type="line"/>
      <point x="562" y="459" type="line"/>
      <point x="562" y="329" type="line"/>
      <point x="562" y="240"/>
      <point x="528" y="187"/>
      <point x="441" y="187" type="curve" smooth="yes"/>
      <point x="358" y="187"/>
      <point x="244" y="239"/>
      <point x="166" y="318" type="curve" smooth="yes"/>
      <point x="96" y="387"/>
      <point x="41" y="486"/>
    </contour>
    <contour>
      <point x="881" y="1293" type="move" name="top"/>
    </contour>
  </outline>
</glyph>
<glyph name="yadeva" format="1">
  <advance width="1422"/>
  <unicode hex="092F"/>
  <outline>
    <contour>
      <point x="-30" y="1065" type="line"/>
      <point x="-30" y="1293" type="line"/>
      <point x="1452" y="1293" type="line"/>
      <point x="1452" y="1065" type="line"/>
    </contour>
    <contour>
      <point x="320" y="1104" type="line"/>
      <point x="668" y="1104" type="line"/>
      <point x="668" y="933" type="line" smooth="yes"/>
      <point x="668" y="713"/>
      <point x="577" y="588"/>
      <point x="343" y="518" type="curve"/>
      <point x="343" y="622" type="line"/>
      <point x="408" y="539"/>
      <point x="484" y="490"/>
      <point x="598" y="490" type="curve" smooth="yes"/>
      <point x="753" y="490"/>
      <point x="874" y="570"/>
      <point x="931" y="703" type="curve"/>
      <point x="931" y="245" type="line"/>
      <point x="887" y="222"/>
      <point x="813" y="205"/>
      <point x="719" y="205" type="curve" smooth="yes"/>
      <point x="405" y="205"/>
      <point x="145" y="386"/>
      <point x="5" y="657" type="curve"/>
      <point x="12" y="674" type="line"/>
      <point x="229" y="745"/>
      <point x="320" y="823"/>
      <point x="320" y="956" type="curve" smooth="yes"/>
    </contour>
    <contour>
      <point x="885" y="1104" type="line"/>
      <point x="1233" y="1104" type="line"/>
      <point x="1233" y="0" type="line"/>
      <point x="885" y="0" type="line"/>
    </contour>
    <contour>
      <point x="885" y="1293" type="move" name="top"/>
    </contour>
  </outline>
</glyph>
<glyph name="radeva" format="1">
  <advance width="1004"/>
  <unicode hex="0930"/>
  <outline>
    <contour>
      <point x="832" y="94" type="line"/>
      <point x="592" y="-65" type="line"/>
      <point x="115" y="556" type="line" smooth="yes"/>
      <point x="62" y="624"/>
      <point x="28" y="679"/>
      <point x="28" y="739" type="curve" smooth="yes"/>
      <point x="28" y="816"/>
      <point x="90" y="885"/>
      <point x="176" y="885" type="curve" smooth="yes"/>
      <point x="244" y="885"/>
      <point x="293" y="848"/>
      <point x="335" y="793" type="curve" smooth="yes"/>
      <point x="432" y="664" type="line"/>
      <point x="416" y="643" type="line"/>
    </contour>
    <contour>
      <point x="335" y="712" type="line"/>
      <point x="481" y="756"/>
      <point x="526" y="823"/>
      <point x="526" y="946" type="curve" smooth="yes"/>
      <point x="526" y="1123" type="line"/>
      <point x="875" y="1123" type="line"/>
      <point x="875" y="892" type="line" smooth="yes"/>
      <point x="875" y="681"/>
      <point x="759" y="525"/>
      <point x="538" y="431" type="curve"/>
    </contour>
    <contour>
      <point x="-30" y="1065" type="line"/>
      <point x="-30" y="1293" type="line"/>
      <point x="1034" y="1293" type="line"/>
      <point x="1034" y="1065" type="line"/>
    </contour>
    <contour>
      <point x="475.0" y="51.0" type="move" name="btm"/>
    </contour>
    <contour>
      <point x="526.0" y="1293.0" type="move" name="top"/>
    </contour>
  </outline>
</glyph>
<glyph name="rradeva" format="1">
  <advance width="1004"/>
  <unicode hex="0931"/>
  <outline>
    <component base="radeva"/>
    <component base="nuktadeva" xOffset="1083" yOffset="331"/>
    <contour>
      <point x="475" y="51" type="move" name="btm"/>
    </contour>
    <contour>
      <point x="526" y="1293" type="move" name="top"/>
    </contour>
  </outline>
</glyph>
<glyph name="ladeva" format="1">
  <advance width="1695"/>
  <unicode hex="0932"/>
  <outline>
    <contour>
      <point x="1159" y="1104" type="line"/>
      <point x="1507" y="1104" type="line"/>
      <point x="1507" y="0" type="line"/>
      <point x="1159" y="0" type="line"/>
    </contour>
    <contour>
      <point x="-68" y="1065" type="line"/>
      <point x="-68" y="1293" type="line"/>
      <point x="1725" y="1293" type="line"/>
      <point x="1725" y="1065" type="line"/>
    </contour>
    <contour>
      <point x="1276" y="997" type="line"/>
      <point x="1276" y="584" type="line"/>
      <point x="783" y="183" type="line"/>
      <point x="567" y="396" type="line"/>
    </contour>
    <contour>
      <point x="1039" y="655" type="curve"/>
      <point x="812" y="461" type="line"/>
      <point x="713" y="577"/>
      <point x="638" y="615"/>
      <point x="542" y="615" type="curve" smooth="yes"/>
      <point x="438" y="615"/>
      <point x="369" y="531"/>
      <point x="369" y="437" type="curve" smooth="yes"/>
      <point x="369" y="343"/>
      <point x="417" y="253"/>
      <point x="572" y="105" type="curve"/>
      <point x="304" y="-39" type="line"/>
      <point x="138" y="113"/>
      <point x="30" y="300"/>
      <point x="30" y="503" type="curve" smooth="yes"/>
      <point x="30" y="729"/>
      <point x="200" y="919"/>
      <point x="480" y="919" type="curve" smooth="yes"/>
      <point x="714" y="919"/>
      <point x="882" y="821"/>
    </contour>
    <contour>
      <point x="1159.0" y="1293.0" type="move" name="top"/>
    </contour>
  </outline>
</glyph>
<glyph name="lladeva" format="1">
  <advance width="1706"/>
  <unicode hex="0933"/>
  <outline>
    <contour>
      <point x="1736" y="1065" type="line"/>
      <point x="-30" y="1065" type="line"/>
      <point x="-30" y="1293" type="line"/>
      <point x="1736" y="1293" type="line"/>
    </contour>
    <contour>
      <point x="697" y="558" type="curve" smooth="yes"/>
      <point x="789" y="768"/>
      <point x="899" y="922"/>
      <point x="1198" y="922" type="curve" smooth="yes"/>
      <point x="1507" y="922"/>
      <point x="1635" y="678"/>
      <point x="1635" y="474" type="curve" smooth="yes"/>
      <point x="1635" y="247"/>
      <point x="1475" y="52"/>
      <point x="1214" y="52" type="curve" smooth="yes"/>
      <point x="1029" y="52"/>
      <point x="866" y="126"/>
      <point x="713" y="250" type="curve"/>
      <point x="822" y="447" type="line"/>
      <point x="928" y="361"/>
      <point x="1034" y="306"/>
      <point x="1146" y="306" type="curve" smooth="yes"/>
      <point x="1259" y="306"/>
      <point x="1332" y="387"/>
      <point x="1332" y="507" type="curve" smooth="yes"/>
      <point x="1332" y="592"/>
      <point x="1287" y="640"/>
      <point x="1221" y="640" type="curve" smooth="yes"/>
      <point x="1149" y="640"/>
      <point x="1067" y="571"/>
      <point x="1019" y="462" type="curve" smooth="yes"/>
      <point x="921" y="239"/>
      <point x="776" y="42"/>
      <point x="518" y="42" type="curve" smooth="yes"/>
      <point x="226" y="42"/>
      <point x="52" y="236"/>
      <point x="52" y="491" type="curve" smooth="yes"/>
      <point x="52" y="721"/>
      <point x="213" y="909"/>
      <point x="477" y="909" type="curve" smooth="yes"/>
      <point x="653" y="909"/>
      <point x="806" y="850"/>
      <point x="950" y="737" type="curve"/>
      <point x="860" y="546" type="line"/>
      <point x="756" y="609"/>
      <point x="639" y="648"/>
      <point x="540" y="648" type="curve" smooth="yes"/>
      <point x="438" y="648"/>
      <point x="361" y="565"/>
      <point x="361" y="454" type="curve" smooth="yes"/>
      <point x="361" y="361"/>
      <point x="410" y="310"/>
      <point x="473" y="310" type="curve" smooth="yes"/>
      <point x="549" y="310"/>
      <point x="624" y="392"/>
    </contour>
    <contour>
      <point x="1517" y="777" type="line"/>
      <point x="1169" y="783" type="line"/>
      <point x="1169" y="1085" type="line"/>
      <point x="1517" y="1085" type="line"/>
    </contour>
    <contour>
      <point x="1034" y="2" type="move" name="btm"/>
    </contour>
    <contour>
      <point x="1088" y="1293" type="move" name="top"/>
    </contour>
  </outline>
</glyph>
<glyph name="vadeva" format="1">
  <advance width="1294"/>
  <unicode hex="0935"/>
  <outline>
    <contour>
      <point x="1324" y="1065" type="line"/>
      <point x="-30" y="1065" type="line"/>
      <point x="-30" y="1293" type="line"/>
      <point x="1324" y="1293" type="line"/>
    </contour>
    <contour>
      <point x="795" y="570" type="curve"/>
      <point x="795" y="209" type="line"/>
      <point x="730" y="174"/>
      <point x="655" y="159"/>
      <point x="560" y="159" type="curve" smooth="yes"/>
      <point x="250" y="159"/>
      <point x="58" y="376"/>
      <point x="58" y="615" type="curve" smooth="yes"/>
      <point x="58" y="811"/>
      <point x="216" y="952"/>
      <point x="464" y="952" type="curve" smooth="yes"/>
      <point x="619" y="952"/>
      <point x="747" y="926"/>
      <point x="851" y="883" type="curve"/>
      <point x="851" y="632" type="line"/>
      <point x="735" y="679"/>
      <point x="656" y="699"/>
      <point x="558" y="699" type="curve" smooth="yes"/>
      <point x="439" y="699"/>
      <point x="380" y="634"/>
      <point x="380" y="556" type="curve" smooth="yes"/>
      <point x="380" y="481"/>
      <point x="428" y="425"/>
      <point x="513" y="425" type="curve" smooth="yes"/>
      <point x="619" y="425"/>
      <point x="704" y="467"/>
    </contour>
    <contour>
      <point x="757" y="1104" type="line"/>
      <point x="1105" y="1104" type="line"/>
      <point x="1105" y="0" type="line"/>
      <point x="757" y="0" type="line"/>
    </contour>
    <contour>
      <point x="757" y="1293" type="move" name="top"/>
    </contour>
  </outline>
</glyph>
<glyph name="shadeva" format="1">
  <advance width="1747"/>
  <unicode hex="0936"/>
  <outline>
    <contour>
      <point x="654" y="405" type="line"/>
      <point x="948" y="118" type="line"/>
      <point x="749" y="-64" type="line"/>
      <point x="398" y="278" type="line"/>
    </contour>
    <contour>
      <point x="306" y="214" type="curve" smooth="yes"/>
      <point x="166" y="214"/>
      <point x="122" y="310"/>
      <point x="122" y="415" type="curve" smooth="yes"/>
      <point x="122" y="535"/>
      <point x="205" y="651"/>
      <point x="321" y="651" type="curve" smooth="yes"/>
      <point x="405" y="651"/>
      <point x="469" y="607"/>
      <point x="552" y="529" type="curve"/>
      <point x="439" y="546" type="line"/>
      <point x="610" y="599"/>
      <point x="719" y="721"/>
      <point x="719" y="888" type="curve" smooth="yes"/>
      <point x="719" y="1015"/>
      <point x="629" y="1095"/>
      <point x="540" y="1095" type="curve" smooth="yes"/>
      <point x="476" y="1095"/>
      <point x="442" y="1058"/>
      <point x="442" y="1013" type="curve" smooth="yes"/>
      <point x="442" y="946"/>
      <point x="500" y="880"/>
      <point x="794" y="880" type="curve"/>
      <point x="734" y="671" type="line"/>
      <point x="319" y="671"/>
      <point x="137" y="833"/>
      <point x="137" y="1052" type="curve" smooth="yes"/>
      <point x="137" y="1201"/>
      <point x="256" y="1355"/>
      <point x="502" y="1355" type="curve" smooth="yes"/>
      <point x="787" y="1355"/>
      <point x="1004" y="1163"/>
      <point x="1004" y="863" type="curve" smooth="yes"/>
      <point x="1004" y="477"/>
      <point x="580" y="214"/>
    </contour>
    <contour>
      <point x="1211" y="1104" type="line"/>
      <point x="1559" y="1104" type="line"/>
      <point x="1559" y="0" type="line"/>
      <point x="1211" y="0" type="line"/>
    </contour>
    <contour>
      <point x="1777" y="1065" type="line"/>
      <point x="1060" y="1065" type="line"/>
      <point x="1060" y="1293" type="line"/>
      <point x="1777" y="1293" type="line"/>
    </contour>
    <contour>
      <point x="1210" y="1293" type="move" name="top"/>
    </contour>
  </outline>
</glyph>
<glyph name="ssadeva" format="1">
  <advance width="1306"/>
  <unicode hex="0937"/>
  <outline>
    <contour>
      <point x="883" y="606" type="line"/>
      <point x="756" y="512" type="line"/>
      <point x="309" y="1053" type="line"/>
      <point x="435" y="1147" type="line"/>
    </contour>
    <contour>
      <point x="1336" y="1065" type="line"/>
      <point x="-30" y="1065" type="line"/>
      <point x="-30" y="1293" type="line"/>
      <point x="1336" y="1293" type="line"/>
    </contour>
    <contour>
      <point x="448" y="1169" type="line"/>
      <point x="448" y="688" type="line" smooth="yes"/>
      <point x="448" y="601"/>
      <point x="501" y="549"/>
      <point x="575" y="549" type="curve" smooth="yes"/>
      <point x="661" y="549"/>
      <point x="733" y="579"/>
      <point x="795" y="659" type="curve"/>
      <point x="795" y="294" type="line"/>
      <point x="747" y="282"/>
      <point x="683" y="273"/>
      <point x="613" y="273" type="curve" smooth="yes"/>
      <point x="314" y="273"/>
      <point x="113" y="453"/>
      <point x="113" y="756" type="curve" smooth="yes"/>
      <point x="113" y="1169" type="line"/>
    </contour>
    <contour>
      <point x="769" y="1104" type="line"/>
      <point x="1118" y="1104" type="line"/>
      <point x="1118" y="0" type="line"/>
      <point x="769" y="0" type="line"/>
    </contour>
    <contour>
      <point x="769.0" y="1293.0" type="move" name="top"/>
    </contour>
  </outline>
</glyph>
<glyph name="sadeva" format="1">
  <advance width="1629"/>
  <unicode hex="0938"/>
  <outline>
    <contour>
      <point x="832" y="94" type="line"/>
      <point x="586" y="-64" type="line"/>
      <point x="109" y="557" type="line" smooth="yes"/>
      <point x="56" y="625"/>
      <point x="30" y="683"/>
      <point x="30" y="743" type="curve" smooth="yes"/>
      <point x="30" y="819"/>
      <point x="86" y="885"/>
      <point x="176" y="885" type="curve" smooth="yes"/>
      <point x="244" y="885"/>
      <point x="293" y="848"/>
      <point x="335" y="793" type="curve" smooth="yes"/>
      <point x="432" y="664" type="line"/>
      <point x="416" y="643" type="line"/>
    </contour>
    <contour>
      <point x="265" y="718" type="line"/>
      <point x="392" y="762"/>
      <point x="441" y="823"/>
      <point x="441" y="955" type="curve" smooth="yes"/>
      <point x="441" y="1123" type="line"/>
      <point x="789" y="1123" type="line"/>
      <point x="789" y="901" type="line" smooth="yes"/>
      <point x="789" y="710"/>
      <point x="671" y="552"/>
      <point x="449" y="449" type="curve"/>
    </contour>
    <contour>
      <point x="-30" y="1065" type="line"/>
      <point x="-30" y="1293" type="line"/>
      <point x="1659" y="1293" type="line"/>
      <point x="1659" y="1065" type="line"/>
    </contour>
    <contour>
      <point x="520" y="489" type="curve"/>
      <point x="644" y="743" type="line"/>
      <point x="711" y="719"/>
      <point x="810" y="704"/>
      <point x="879" y="704" type="curve" smooth="yes"/>
      <point x="973" y="704"/>
      <point x="1063" y="722"/>
      <point x="1149" y="758" type="curve"/>
      <point x="1149" y="430" type="line"/>
      <point x="1078" y="411"/>
      <point x="1003" y="405"/>
      <point x="936" y="405" type="curve" smooth="yes"/>
      <point x="810" y="405"/>
      <point x="654" y="432"/>
    </contour>
    <contour>
      <point x="1092" y="1104" type="line"/>
      <point x="1440" y="1104" type="line"/>
      <point x="1440" y="0" type="line"/>
      <point x="1092" y="0" type="line"/>
    </contour>
    <contour>
      <point x="1092.0" y="1293.0" type="move" name="top"/>
    </contour>
  </outline>
</glyph>
<glyph name="hadeva" format="1">
  <advance width="1269"/>
  <unicode hex="0939"/>
  <outline>
    <contour>
      <point x="733" y="1077" type="line"/>
      <point x="1081" y="1077" type="line"/>
      <point x="1081" y="707" type="line"/>
      <point x="532" y="707" type="line" smooth="yes"/>
      <point x="428" y="707"/>
      <point x="393" y="671"/>
      <point x="393" y="619" type="curve" smooth="yes"/>
      <point x="393" y="569"/>
      <point x="442" y="531"/>
      <point x="536" y="509" type="curve"/>
      <point x="305" y="345" type="line"/>
      <point x="137" y="437"/>
      <point x="38" y="558"/>
      <point x="38" y="683" type="curve" smooth="yes"/>
      <point x="38" y="818"/>
      <point x="138" y="935"/>
      <point x="402" y="935" type="curve" smooth="yes"/>
      <point x="772" y="935" type="line"/>
      <point x="733" y="883" type="line"/>
    </contour>
    <contour>
      <point x="674" y="574" type="curve" smooth="yes"/>
      <point x="987" y="574"/>
      <point x="1191" y="413"/>
      <point x="1191" y="208" type="curve" smooth="yes"/>
      <point x="1191" y="138"/>
      <point x="1175" y="72"/>
      <point x="1147" y="23" type="curve"/>
      <point x="854" y="80" type="line"/>
      <point x="868" y="114"/>
      <point x="877" y="146"/>
      <point x="877" y="191" type="curve" smooth="yes"/>
      <point x="877" y="259"/>
      <point x="828" y="319"/>
      <point x="713" y="319" type="curve" smooth="yes"/>
      <point x="585" y="319"/>
      <point x="515" y="220"/>
      <point x="515" y="139" type="curve" smooth="yes"/>
      <point x="515" y="4"/>
      <point x="602" y="-82"/>
      <point x="1075" y="-134" type="curve"/>
      <point x="985" y="-365" type="line"/>
      <point x="394" y="-318"/>
      <point x="171" y="-94"/>
      <point x="171" y="162" type="curve" smooth="yes"/>
      <point x="171" y="398"/>
      <point x="353" y="574"/>
    </contour>
    <contour>
      <point x="1299" y="1065" type="line"/>
      <point x="-30" y="1065" type="line"/>
      <point x="-30" y="1293" type="line"/>
      <point x="1299" y="1293" type="line"/>
    </contour>
    <contour>
      <point x="733.0" y="1293.0" type="move" name="top"/>
    </contour>
  </outline>
</glyph>
<glyph name="aavowelsigndeva" format="1">
  <advance width="676"/>
  <unicode hex="093E"/>
  <outline>
    <contour>
      <point x="139" y="1104" type="line"/>
      <point x="487" y="1104" type="line"/>
      <point x="487" y="0" type="line"/>
      <point x="139" y="0" type="line"/>
    </contour>
    <contour>
      <point x="706" y="1065" type="line"/>
      <point x="-30" y="1065" type="line"/>
      <point x="-30" y="1293" type="line"/>
      <point x="706" y="1293" type="line"/>
    </contour>
  </outline>
</glyph>
<glyph name="iivowelsigndeva" format="1">
  <advance width="676"/>
  <unicode hex="0940"/>
  <outline>
    <contour>
      <point x="131" y="1239" type="line"/>
      <point x="45" y="1442"/>
      <point x="-71" y="1535"/>
      <point x="-184" y="1535" type="curve" smooth="yes"/>
      <point x="-257" y="1535"/>
      <point x="-297" y="1485"/>
      <point x="-297" y="1420" type="curve" smooth="yes"/>
      <point x="-297" y="1357"/>
      <point x="-262" y="1304"/>
      <point x="-214" y="1251" type="curve"/>
      <point x="-558" y="1251" type="line"/>
      <point x="-600" y="1324"/>
      <point x="-627" y="1400"/>
      <point x="-627" y="1503" type="curve" smooth="yes"/>
      <point x="-627" y="1657"/>
      <point x="-511" y="1828"/>
      <point x="-243" y="1828" type="curve" smooth="yes"/>
      <point x="78" y="1828"/>
      <point x="343" y="1618"/>
      <point x="484" y="1239" type="curve"/>
    </contour>
    <component base="aavowelsigndeva"/>
  </outline>
</glyph>
<glyph name="uvowelsigndeva" format="1">
  <advance width="0"/>
  <unicode hex="0941"/>
  <outline>
    <contour>
      <point x="-742" y="-60" type="line"/>
      <point x="-656" y="2"/>
      <point x="-543" y="49"/>
      <point x="-386" y="49" type="curve" smooth="yes"/>
      <point x="-139" y="49"/>
      <point x="14" y="-110"/>
      <point x="14" y="-325" type="curve" smooth="yes"/>
      <point x="14" y="-532"/>
      <point x="-148" y="-674"/>
      <point x="-399" y="-674" type="curve" smooth="yes"/>
      <point x="-638" y="-674"/>
      <point x="-871" y="-575"/>
      <point x="-1076" y="-390" type="curve"/>
      <point x="-970" y="-160" type="line"/>
      <point x="-773" y="-345"/>
      <point x="-606" y="-417"/>
      <point x="-470" y="-417" type="curve" smooth="yes"/>
      <point x="-339" y="-417"/>
      <point x="-286" y="-362"/>
      <point x="-286" y="-298" type="curve" smooth="yes"/>
      <point x="-286" y="-246"/>
      <point x="-328" y="-207"/>
      <point x="-397" y="-207" type="curve" smooth="yes"/>
      <point x="-463" y="-207"/>
      <point x="-534" y="-237"/>
      <point x="-617" y="-292" type="curve"/>
    </contour>
    <contour>
      <point x="-539" y="0" type="move" name="_btm"/>
    </contour>
  </outline>
</glyph>
<glyph name="uuvowelsigndeva" format="1">
  <advance width="0"/>
  <unicode hex="0942"/>
  <outline>
    <contour>
      <point x="-130" y="-631" type="line"/>
      <point x="-204" y="-660"/>
      <point x="-274" y="-673"/>
      <point x="-376" y="-673" type="curve" smooth="yes"/>
      <point x="-627" y="-673"/>
      <point x="-834" y="-518"/>
      <point x="-834" y="-298" type="curve" smooth="yes"/>
      <point x="-834" y="-118"/>
      <point x="-681" y="39"/>
      <point x="-415" y="39" type="curve" smooth="yes"/>
      <point x="-135" y="39"/>
      <point x="64" y="-109"/>
      <point x="300" y="-396" type="curve"/>
      <point x="139" y="-580" type="line"/>
      <point x="-103" y="-302"/>
      <point x="-235" y="-237"/>
      <point x="-382" y="-237" type="curve" smooth="yes"/>
      <point x="-484" y="-237"/>
      <point x="-531" y="-287"/>
      <point x="-531" y="-346" type="curve" smooth="yes"/>
      <point x="-531" y="-400"/>
      <point x="-482" y="-438"/>
      <point x="-397" y="-438" type="curve" smooth="yes"/>
      <point x="-334" y="-438"/>
      <point x="-279" y="-427"/>
      <point x="-206" y="-399" type="curve"/>
    </contour>
    <contour>
      <point x="-539" y="0" type="move" name="_btm"/>
    </contour>
  </outline>
</glyph>
<glyph name="ecandravowelsigndeva" format="1">
  <advance width="0"/>
  <unicode hex="0945"/>
  <outline>
    <contour>
      <point x="116" y="1548" type="line"/>
      <point x="-10" y="1422"/>
      <point x="-165" y="1362"/>
      <point x="-358" y="1362" type="curve" smooth="yes"/>
      <point x="-546" y="1362"/>
      <point x="-698" y="1423"/>
      <point x="-849" y="1546" type="curve"/>
      <point x="-776" y="1773" type="line"/>
      <point x="-649" y="1669"/>
      <point x="-525" y="1607"/>
      <point x="-356" y="1607" type="curve" smooth="yes"/>
      <point x="-204" y="1607"/>
      <point x="-82" y="1671"/>
      <point x="31" y="1770" type="curve"/>
    </contour>
    <contour>
      <point x="-539" y="1293" type="move" name="_top"/>
    </contour>
  </outline>
</glyph>
<glyph name="eshortvowelsigndeva" format="1">
  <advance width="0"/>
  <unicode hex="0946"/>
  <outline>
    <contour>
      <point x="-539" y="1244" type="line"/>
      <point x="-539" y="1324" type="line" smooth="yes"/>
      <point x="-539" y="1392"/>
      <point x="-571" y="1432"/>
      <point x="-650" y="1432" type="curve" smooth="yes"/>
      <point x="-717" y="1432"/>
      <point x="-775" y="1397"/>
      <point x="-906" y="1397" type="curve" smooth="yes"/>
      <point x="-1060" y="1397"/>
      <point x="-1165" y="1467"/>
      <point x="-1260" y="1591" type="curve"/>
      <point x="-1136" y="1788" type="line"/>
      <point x="-1042" y="1692"/>
      <point x="-982" y="1663"/>
      <point x="-914" y="1663" type="curve" smooth="yes"/>
      <point x="-806" y="1663"/>
      <point x="-710" y="1720"/>
      <point x="-542" y="1720" type="curve" smooth="yes"/>
      <point x="-351" y="1720"/>
      <point x="-234" y="1586"/>
      <point x="-234" y="1370" type="curve" smooth="yes"/>
      <point x="-234" y="1244" type="line"/>
    </contour>
    <contour>
      <point x="-539" y="1293" type="move" name="_top"/>
    </contour>
  </outline>
</glyph>
<glyph name="viramadeva" format="1">
  <advance width="0"/>
  <unicode hex="094D"/>
  <outline>
    <contour>
      <point x="-488" y="-50" type="line"/>
      <point x="126" y="-312" type="line"/>
      <point x="25" y="-555" type="line"/>
      <point x="-590" y="-290" type="line"/>
    </contour>
    <contour>
      <point x="-539" y="0" type="move" name="_btm"/>
    </contour>
  </outline>
</glyph>
<glyph name="awvowelsigndevaKSH" format="1">
  <advance width="676"/>
  <unicode hex="094F"/>
  <outline>
    <contour>
      <point x="239" y="1208" type="line"/>
      <point x="239" y="1499" type="line"/>
      <point x="239" y="1554"/>
      <point x="213" y="1588"/>
      <point x="118" y="1588" type="curve" smooth="yes"/>
      <point x="61" y="1588"/>
      <point x="13" y="1558"/>
      <point x="-98" y="1558" type="curve" smooth="yes"/>
      <point x="-229" y="1558"/>
      <point x="-319" y="1616"/>
      <point x="-399" y="1717" type="curve"/>
      <point x="-294" y="1876" type="line"/>
      <point x="-214" y="1799"/>
      <point x="-162" y="1775"/>
      <point x="-105" y="1775" type="curve" smooth="yes"/>
      <point x="-14" y="1775"/>
      <point x="67" y="1820"/>
      <point x="209" y="1820" type="curve" smooth="yes"/>
      <point x="372" y="1820"/>
      <point x="487" y="1712"/>
      <point x="487" y="1536" type="curve" smooth="yes"/>
      <point x="487" y="1208" type="line"/>
    </contour>
    <contour>
      <point x="60" y="1160" type="line"/>
      <point x="9" y="1283" type="line"/>
      <point x="-17" y="1346"/>
      <point x="-55" y="1383"/>
      <point x="-134" y="1383" type="curve" smooth="yes"/>
      <point x="-201" y="1383"/>
      <point x="-250" y="1355"/>
      <point x="-371" y="1355" type="curve" smooth="yes"/>
      <point x="-516" y="1355"/>
      <point x="-622" y="1421"/>
      <point x="-717" y="1523" type="curve"/>
      <point x="-605" y="1671" type="line"/>
      <point x="-518" y="1593"/>
      <point x="-451" y="1566"/>
      <point x="-379" y="1566" type="curve" smooth="yes"/>
      <point x="-272" y="1566"/>
      <point x="-194" y="1608"/>
      <point x="-92" y="1608" type="curve" smooth="yes"/>
      <point x="116" y="1608"/>
      <point x="181" y="1543"/>
      <point x="257" y="1330" type="curve" smooth="yes"/>
      <point x="319" y="1160" type="line"/>
    </contour>
    <component base="aavowelsigndeva"/>
  </outline>
</glyph>
<glyph name="omdeva" format="1">
  <advance width="2081"/>
  <unicode hex="0950"/>
  <outline>
    <contour>
      <point x="1645" y="862" type="curve" smooth="yes"/>
      <point x="1581" y="862"/>
      <point x="1511" y="799"/>
      <point x="1463" y="691" type="curve" smooth="yes"/>
      <point x="1356" y="445"/>
      <point x="1248" y="306"/>
      <point x="1085" y="306" type="curve" smooth="yes"/>
      <point x="986" y="306"/>
      <point x="927" y="314"/>
      <point x="860" y="331" type="curve"/>
      <point x="819" y="590" type="line"/>
      <point x="889" y="570"/>
      <point x="933" y="550"/>
      <point x="979" y="555" type="curve" smooth="yes"/>
      <point x="1041" y="561"/>
      <point x="1083" y="641"/>
      <point x="1141" y="787" type="curve" smooth="yes"/>
      <point x="1200" y="935"/>
      <point x="1324" y="1149"/>
      <point x="1603" y="1149" type="curve" smooth="yes"/>
      <point x="1902" y="1149"/>
      <point x="2053" y="936"/>
      <point x="2053" y="710" type="curve" smooth="yes"/>
      <point x="2053" y="493"/>
      <point x="1898" y="298"/>
      <point x="1637" y="298" type="curve" smooth="yes"/>
      <point x="1454" y="298"/>
      <point x="1310" y="373"/>
      <point x="1157" y="498" type="curve"/>
      <point x="1275" y="694" type="line"/>
      <point x="1373" y="621"/>
      <point x="1468" y="563"/>
      <point x="1560" y="563" type="curve" smooth="yes"/>
      <point x="1657" y="563"/>
      <point x="1747" y="641"/>
      <point x="1747" y="744" type="curve" smooth="yes"/>
      <point x="1747" y="824"/>
      <point x="1703" y="862"/>
    </contour>
    <contour>
      <point x="364" y="564" type="line"/>
      <point x="308" y="821" type="line"/>
      <point x="321" y="822" type="line"/>
      <point x="596" y="841"/>
      <point x="639" y="892"/>
      <point x="639" y="971" type="curve" smooth="yes"/>
      <point x="639" y="1027"/>
      <point x="598" y="1059"/>
      <point x="521" y="1059" type="curve" smooth="yes"/>
      <point x="435" y="1059"/>
      <point x="355" y="1034"/>
      <point x="243" y="974" type="curve"/>
      <point x="167" y="1234" type="line"/>
      <point x="272" y="1282"/>
      <point x="380" y="1312"/>
      <point x="539" y="1312" type="curve" smooth="yes"/>
      <point x="805" y="1312"/>
      <point x="946" y="1165"/>
      <point x="946" y="943" type="curve" smooth="yes"/>
      <point x="946" y="721"/>
      <point x="759" y="592"/>
      <point x="388" y="566" type="curve" smooth="yes"/>
    </contour>
    <contour>
      <point x="751" y="783" type="line"/>
      <point x="890" y="720"/>
      <point x="1006" y="610"/>
      <point x="1006" y="425" type="curve" smooth="yes"/>
      <point x="1006" y="234"/>
      <point x="849" y="79"/>
      <point x="597" y="79" type="curve" smooth="yes"/>
      <point x="415" y="79"/>
      <point x="271" y="135"/>
      <point x="124" y="230" type="curve"/>
      <point x="188" y="480" type="line"/>
      <point x="311" y="395"/>
      <point x="417" y="355"/>
      <point x="522" y="355" type="curve" smooth="yes"/>
      <point x="629" y="355"/>
      <point x="685" y="409"/>
      <point x="685" y="491" type="curve" smooth="yes"/>
      <point x="685" y="553"/>
      <point x="638" y="600"/>
      <point x="558" y="630" type="curve"/>
    </contour>
    <component base="candrabindudeva" xOffset="1544" yOffset="-93"/>
  </outline>
</glyph>
<glyph name="anudattadeva" format="1">
  <advance width="0"/>
  <unicode hex="0952"/>
  <outline>
    <contour>
      <point x="-1136" y="-311" type="line"/>
      <point x="-1136" y="-119" type="line"/>
      <point x="-159" y="-119" type="line"/>
      <point x="-159" y="-311" type="line"/>
    </contour>
    <contour>
      <point x="-539" y="0" type="move" name="_btm"/>
    </contour>
  </outline>
</glyph>
<glyph name="uevowelsigndevaKSH" format="1">
  <advance width="0"/>
  <unicode hex="0956"/>
  <outline>
    <contour>
      <point x="161" y="-252" type="line"/>
      <point x="24" y="-377"/>
      <point x="-144" y="-437"/>
      <point x="-355" y="-437" type="curve" smooth="yes"/>
      <point x="-560" y="-437"/>
      <point x="-725" y="-377"/>
      <point x="-889" y="-253" type="curve"/>
      <point x="-820" y="-37" type="line"/>
      <point x="-682" y="-140"/>
      <point x="-537" y="-193"/>
      <point x="-354" y="-193" type="curve" smooth="yes"/>
      <point x="-187" y="-193"/>
      <point x="-44" y="-138"/>
      <point x="78" y="-39" type="curve"/>
    </contour>
    <contour>
      <point x="-539" y="0" type="move" name="_btm"/>
    </contour>
  </outline>
</glyph>
<glyph name="uuevowelsigndevaKSH" format="1">
  <advance width="0"/>
  <unicode hex="0957"/>
  <outline>
    <component base="uevowelsigndevaKSH" yScale="0.901356677875" yOffset="-3"/>
    <component base="uevowelsigndevaKSH" xScale="1.05621863986" yScale="0.859139782543" xOffset="29" yOffset="-351"/>
    <contour>
      <point x="-539" y="0" type="move" name="_btm"/>
    </contour>
  </outline>
</glyph>
<glyph name="qadeva" format="1">
  <advance width="1762"/>
  <unicode hex="0958"/>
  <outline>
    <component base="kadeva"/>
    <component base="nuktadeva" xOffset="1062" yOffset="271"/>
    <contour>
      <point x="683" y="0" type="move" name="btm"/>
    </contour>
    <contour>
      <point x="683" y="1293" type="move" name="top"/>
    </contour>
  </outline>
</glyph>
<glyph name="dddhadeva" format="1">
  <advance width="1261"/>
  <unicode hex="095C"/>
  <outline>
    <component base="ddadeva"/>
    <component base="nuktadeva" xOffset="1529" yOffset="17"/>
    <contour>
      <point x="481" y="-501" type="move" name="btm"/>
    </contour>
    <contour>
      <point x="691" y="1292" type="move" name="top"/>
    </contour>
  </outline>
</glyph>
<glyph name="rrvocalicdeva" format="1">
  <advance width="1835"/>
  <unicode hex="0960"/>
  <outline>
    <contour>
      <point x="1208" y="1065" type="line"/>
      <point x="1208" y="1293" type="line"/>
      <point x="1865" y="1293" type="line"/>
      <point x="1865" y="1065" type="line"/>
    </contour>
    <contour>
      <point x="967" y="764" type="line"/>
      <point x="1029" y="725"/>
      <point x="1083" y="707"/>
      <point x="1147" y="707" type="curve" smooth="yes"/>
      <point x="1205" y="707"/>
      <point x="1285" y="717"/>
      <point x="1374" y="753" type="curve"/>
      <point x="1257" y="666" type="line"/>
      <point x="1230" y="710"/>
      <point x="1215" y="750"/>
      <point x="1215" y="795" type="curve" smooth="yes"/>
      <point x="1215" y="854"/>
      <point x="1266" y="904"/>
      <point x="1375" y="904" type="curve" smooth="yes"/>
      <point x="1557" y="904"/>
      <point x="1681" y="832"/>
      <point x="1681" y="727" type="curve" smooth="yes"/>
      <point x="1681" y="579"/>
      <point x="1482" y="435"/>
      <point x="1177" y="435" type="curve" smooth="yes"/>
      <point x="1067" y="435"/>
      <point x="982" y="456"/>
      <point x="873" y="502" type="curve"/>
    </contour>
    <contour>
      <point x="1533" y="178" type="curve" smooth="yes"/>
      <point x="1533" y="137"/>
      <point x="1565" y="112"/>
      <point x="1625" y="112" type="curve" smooth="yes"/>
      <point x="1676" y="112"/>
      <point x="1728" y="122"/>
      <point x="1784" y="139" type="curve"/>
      <point x="1829" y="-60" type="line"/>
      <point x="1752" y="-81"/>
      <point x="1686" y="-89"/>
      <point x="1612" y="-89" type="curve" smooth="yes"/>
      <point x="1378" y="-89"/>
      <point x="1224" y="30"/>
      <point x="1224" y="192" type="curve" smooth="yes"/>
      <point x="1224" y="315"/>
      <point x="1319" y="415"/>
      <point x="1552" y="464" type="curve"/>
      <point x="1421" y="392" type="line"/>
      <point x="1305" y="555" type="line"/>
      <point x="1538" y="669" type="line"/>
      <point x="1741" y="396" type="line"/>
      <point x="1710" y="308" type="line"/>
      <point x="1584" y="279"/>
      <point x="1533" y="229"/>
    </contour>
    <component base="taradeva"/>
  </outline>
</glyph>
<glyph name="llvocalicdeva" format="1">
  <advance width="1717"/>
  <unicode hex="0961"/>
  <outline>
    <contour>
      <point x="1806" y="-414" type="line"/>
      <point x="1737" y="-441"/>
      <point x="1654" y="-457"/>
      <point x="1561" y="-457" type="curve" smooth="yes"/>
      <point x="1327" y="-457"/>
      <point x="1214" y="-334"/>
      <point x="1214" y="-215" type="curve" smooth="yes"/>
      <point x="1214" y="-64"/>
      <point x="1370" y="39"/>
      <point x="1609" y="39" type="curve"/>
      <point x="1658" y="-98" type="line"/>
      <point x="1546" y="-98"/>
      <point x="1484" y="-144"/>
      <point x="1484" y="-201" type="curve" smooth="yes"/>
      <point x="1484" y="-243"/>
      <point x="1515" y="-277"/>
      <point x="1588" y="-277" type="curve" smooth="yes"/>
      <point x="1647" y="-277"/>
      <point x="1702" y="-267"/>
      <point x="1770" y="-241" type="curve"/>
    </contour>
    <contour>
      <point x="1181" y="1104" type="line"/>
      <point x="1529" y="1104" type="line"/>
      <point x="1529" y="703" type="line"/>
      <point x="1181" y="703" type="line"/>
    </contour>
    <contour>
      <point x="-30" y="1065" type="line"/>
      <point x="-30" y="1293" type="line"/>
      <point x="1747" y="1293" type="line"/>
      <point x="1747" y="1065" type="line"/>
    </contour>
    <contour>
      <point x="1079" y="655" type="curve"/>
      <point x="864" y="465" type="line"/>
      <point x="765" y="589"/>
      <point x="691" y="624"/>
      <point x="595" y="624" type="curve" smooth="yes"/>
      <point x="482" y="624"/>
      <point x="409" y="536"/>
      <point x="409" y="437" type="curve" smooth="yes"/>
      <point x="409" y="343"/>
      <point x="457" y="253"/>
      <point x="612" y="105" type="curve"/>
      <point x="363" y="-31" type="line"/>
      <point x="174" y="140"/>
      <point x="79" y="330"/>
      <point x="79" y="526" type="curve" smooth="yes"/>
      <point x="79" y="732"/>
      <point x="230" y="919"/>
      <point x="508" y="919" type="curve" smooth="yes"/>
      <point x="735" y="919"/>
      <point x="922" y="821"/>
    </contour>
    <contour>
      <point x="1659" y="455" type="curve" smooth="yes"/>
      <point x="1659" y="380"/>
      <point x="1627" y="258"/>
      <point x="1588" y="198" type="curve"/>
      <point x="1521" y="198" type="line" smooth="yes"/>
      <point x="1418" y="198"/>
      <point x="1379" y="155"/>
      <point x="1379" y="114" type="curve" smooth="yes"/>
      <point x="1379" y="81"/>
      <point x="1413" y="48"/>
      <point x="1490" y="48" type="curve" smooth="yes"/>
      <point x="1561" y="48"/>
      <point x="1616" y="57"/>
      <point x="1689" y="80" type="curve"/>
      <point x="1727" y="-106" type="line"/>
      <point x="1628" y="-129"/>
      <point x="1572" y="-136"/>
      <point x="1489" y="-136" type="curve" smooth="yes"/>
      <point x="1236" y="-136"/>
      <point x="1087" y="-11"/>
      <point x="1087" y="141" type="curve" smooth="yes"/>
      <point x="1087" y="282"/>
      <point x="1212" y="380"/>
      <point x="1398" y="380" type="curve" smooth="yes"/>
      <point x="1438" y="380"/>
      <point x="1484" y="374"/>
      <point x="1516" y="367" type="curve"/>
      <point x="1264" y="285" type="line"/>
      <point x="1306" y="345"/>
      <point x="1338" y="425"/>
      <point x="1338" y="489" type="curve" smooth="yes"/>
      <point x="1338" y="554"/>
      <point x="1295" y="598"/>
      <point x="1229" y="598" type="curve" smooth="yes"/>
      <point x="1120" y="598"/>
      <point x="1027" y="476"/>
      <point x="979" y="236" type="curve"/>
      <point x="655" y="325" type="line"/>
      <point x="710" y="633"/>
      <point x="878" y="893"/>
      <point x="1184" y="893" type="curve" smooth="yes"/>
      <point x="1489" y="893"/>
      <point x="1659" y="694"/>
    </contour>
  </outline>
</glyph>
<glyph name="lvocalicvowelsigndeva" format="1">
  <advance width="0"/>
  <unicode hex="0962"/>
  <outline>
    <contour>
      <point x="-109" y="-243" type="curve"/>
      <point x="-182" y="-305" type="line"/>
      <point x="-144" y="-259"/>
      <point x="-123" y="-219"/>
      <point x="-123" y="-181" type="curve" smooth="yes"/>
      <point x="-123" y="-143"/>
      <point x="-148" y="-115"/>
      <point x="-192" y="-115" type="curve" smooth="yes"/>
      <point x="-254" y="-115"/>
      <point x="-305" y="-191"/>
      <point x="-330" y="-311" type="curve"/>
      <point x="-520" y="-248" type="line"/>
      <point x="-481" y="-48"/>
      <point x="-379" y="70"/>
      <point x="-200" y="70" type="curve" smooth="yes"/>
      <point x="-33" y="70"/>
      <point x="70" y="-37"/>
      <point x="70" y="-167" type="curve" smooth="yes"/>
      <point x="70" y="-239"/>
      <point x="51" y="-304"/>
      <point x="25" y="-349" type="curve"/>
      <point x="3" y="-349" type="line" smooth="yes"/>
      <point x="-78" y="-349"/>
      <point x="-113" y="-382"/>
      <point x="-113" y="-411" type="curve" smooth="yes"/>
      <point x="-113" y="-440"/>
      <point x="-91" y="-458"/>
      <point x="-44" y="-461" type="curve" smooth="yes"/>
      <point x="-7" y="-463"/>
      <point x="32" y="-456"/>
      <point x="78" y="-440" type="curve"/>
      <point x="96" y="-555" type="line"/>
      <point x="45" y="-574"/>
      <point x="-1" y="-583"/>
      <point x="-58" y="-583" type="curve" smooth="yes"/>
      <point x="-197" y="-583"/>
      <point x="-290" y="-510"/>
      <point x="-290" y="-408" type="curve" smooth="yes"/>
      <point x="-290" y="-325"/>
      <point x="-224" y="-259"/>
    </contour>
    <contour>
      <point x="-286" y="-104" type="curve"/>
      <point x="-416" y="-214" type="line"/>
      <point x="-464" y="-148"/>
      <point x="-511" y="-114"/>
      <point x="-562" y="-114" type="curve" smooth="yes"/>
      <point x="-613" y="-114"/>
      <point x="-647" y="-154"/>
      <point x="-647" y="-200" type="curve" smooth="yes"/>
      <point x="-647" y="-250"/>
      <point x="-619" y="-295"/>
      <point x="-525" y="-366" type="curve"/>
      <point x="-671" y="-464" type="line"/>
      <point x="-792" y="-377"/>
      <point x="-860" y="-276"/>
      <point x="-860" y="-160" type="curve" smooth="yes"/>
      <point x="-860" y="-29"/>
      <point x="-767" y="72"/>
      <point x="-609" y="72" type="curve" smooth="yes"/>
      <point x="-478" y="72"/>
      <point x="-384" y="15"/>
    </contour>
    <contour>
      <point x="-539" y="0" type="move" name="_btm"/>
    </contour>
  </outline>
</glyph>
<glyph name="llvocalicvowelsigndeva" format="1">
  <advance width="0"/>
  <unicode hex="0963"/>
  <outline>
    <contour>
      <point x="146" y="-732" type="line"/>
      <point x="105" y="-746"/>
      <point x="44" y="-758"/>
      <point x="-6" y="-758" type="curve" smooth="yes"/>
      <point x="-153" y="-758"/>
      <point x="-207" y="-682"/>
      <point x="-207" y="-609" type="curve" smooth="yes"/>
      <point x="-207" y="-518"/>
      <point x="-113" y="-454"/>
      <point x="29" y="-454" type="curve"/>
      <point x="58" y="-533" type="line"/>
      <point x="-9" y="-533"/>
      <point x="-45" y="-567"/>
      <point x="-45" y="-599" type="curve" smooth="yes"/>
      <point x="-45" y="-626"/>
      <point x="-31" y="-647"/>
      <point x="15" y="-647" type="curve" smooth="yes"/>
      <point x="49" y="-647"/>
      <point x="76" y="-640"/>
      <point x="125" y="-623" type="curve"/>
    </contour>
    <contour>
      <point x="-286" y="-104" type="curve"/>
      <point x="-416" y="-214" type="line"/>
      <point x="-464" y="-148"/>
      <point x="-511" y="-114"/>
      <point x="-562" y="-114" type="curve" smooth="yes"/>
      <point x="-612" y="-114"/>
      <point x="-649" y="-150"/>
      <point x="-649" y="-196" type="curve" smooth="yes"/>
      <point x="-649" y="-247"/>
      <point x="-619" y="-295"/>
      <point x="-525" y="-366" type="curve"/>
      <point x="-671" y="-464" type="line"/>
      <point x="-797" y="-369"/>
      <point x="-856" y="-262"/>
      <point x="-856" y="-157" type="curve" smooth="yes"/>
      <point x="-856" y="-33"/>
      <point x="-767" y="72"/>
      <point x="-609" y="72" type="curve" smooth="yes"/>
      <point x="-478" y="72"/>
      <point x="-384" y="15"/>
    </contour>
    <contour>
      <point x="-94" y="-235" type="curve"/>
      <point x="-182" y="-305" type="line"/>
      <point x="-144" y="-259"/>
      <point x="-123" y="-219"/>
      <point x="-123" y="-181" type="curve" smooth="yes"/>
      <point x="-123" y="-143"/>
      <point x="-148" y="-115"/>
      <point x="-192" y="-115" type="curve" smooth="yes"/>
      <point x="-254" y="-115"/>
      <point x="-307" y="-191"/>
      <point x="-332" y="-311" type="curve"/>
      <point x="-517" y="-247" type="line"/>
      <point x="-478" y="-47"/>
      <point x="-375" y="70"/>
      <point x="-200" y="70" type="curve" smooth="yes"/>
      <point x="-33" y="70"/>
      <point x="69" y="-37"/>
      <point x="69" y="-176" type="curve" smooth="yes"/>
      <point x="69" y="-232"/>
      <point x="53" y="-291"/>
      <point x="25" y="-346" type="curve"/>
      <point x="4" y="-346" type="line" smooth="yes"/>
      <point x="-70" y="-346"/>
      <point x="-98" y="-373"/>
      <point x="-98" y="-396" type="curve" smooth="yes"/>
      <point x="-98" y="-421"/>
      <point x="-79" y="-441"/>
      <point x="-38" y="-441" type="curve" smooth="yes"/>
      <point x="-4" y="-441"/>
      <point x="28" y="-437"/>
      <point x="77" y="-422" type="curve"/>
      <point x="100" y="-542" type="line"/>
      <point x="42" y="-556"/>
      <point x="6" y="-559"/>
      <point x="-42" y="-559" type="curve" smooth="yes"/>
      <point x="-196" y="-559"/>
      <point x="-284" y="-483"/>
      <point x="-284" y="-387" type="curve" smooth="yes"/>
      <point x="-284" y="-309"/>
      <point x="-212" y="-249"/>
    </contour>
    <contour>
      <point x="-539" y="0" type="move" name="_btm"/>
    </contour>
  </outline>
</glyph>
<glyph name="onedeva" format="1">
  <advance width="1039"/>
  <unicode hex="0967"/>
  <outline>
    <contour>
      <point x="183" y="351" type="line"/>
      <point x="519" y="675" type="line"/>
      <point x="609" y="762"/>
      <point x="655" y="836"/>
      <point x="655" y="905" type="curve" smooth="yes"/>
      <point x="655" y="976"/>
      <point x="600" y="1038"/>
      <point x="519" y="1038" type="curve" smooth="yes"/>
      <point x="445" y="1038"/>
      <point x="389" y="984"/>
      <point x="389" y="912" type="curve" smooth="yes"/>
      <point x="389" y="827"/>
      <point x="478" y="749"/>
      <point x="658" y="717" type="curve"/>
      <point x="503" y="500" type="line"/>
      <point x="179" y="591"/>
      <point x="69" y="766"/>
      <point x="69" y="945" type="curve" smooth="yes"/>
      <point x="69" y="1132"/>
      <point x="212" y="1312"/>
      <point x="512" y="1312" type="curve" smooth="yes"/>
      <point x="810" y="1312"/>
      <point x="969" y="1103"/>
      <point x="969" y="911" type="curve" smooth="yes"/>
      <point x="969" y="769"/>
      <point x="921" y="676"/>
      <point x="826" y="574" type="curve" smooth="yes"/>
      <point x="573" y="301" type="line"/>
      <point x="526" y="418" type="line"/>
      <point x="781" y="205" type="line"/>
      <point x="881" y="121"/>
      <point x="912" y="50"/>
      <point x="912" y="-18" type="curve" smooth="yes"/>
      <point x="912" y="-85"/>
      <point x="885" y="-145"/>
      <point x="843" y="-207" type="curve"/>
      <point x="532" y="-119" type="line"/>
      <point x="552" y="-87"/>
      <point x="562" y="-63"/>
      <point x="562" y="-25" type="curve" smooth="yes"/>
      <point x="562" y="14"/>
      <point x="536" y="45"/>
      <point x="499" y="74" type="curve" smooth="yes"/>
      <point x="183" y="320" type="line"/>
    </contour>
  </outline>
</glyph>
<glyph name="fourdeva" format="1">
  <advance width="1215"/>
  <unicode hex="096A"/>
  <outline>
    <contour>
      <point x="-5" y="1131" type="line"/>
      <point x="214" y="1338" type="line"/>
      <point x="728" y="901" type="line"/>
      <point x="1003" y="670"/>
      <point x="1079" y="527"/>
      <point x="1079" y="369" type="curve" smooth="yes"/>
      <point x="1079" y="191"/>
      <point x="921" y="19"/>
      <point x="643" y="19" type="curve" smooth="yes"/>
      <point x="373" y="19"/>
      <point x="185" y="189"/>
      <point x="185" y="396" type="curve" smooth="yes"/>
      <point x="185" y="527"/>
      <point x="242" y="662"/>
      <point x="483" y="877" type="curve" smooth="yes"/>
      <point x="1004" y="1344" type="line"/>
      <point x="1245" y="1134" type="line"/>
      <point x="702" y="647" type="line"/>
      <point x="530" y="493"/>
      <point x="504" y="429"/>
      <point x="504" y="366" type="curve" smooth="yes"/>
      <point x="504" y="300"/>
      <point x="549" y="261"/>
      <point x="619" y="261" type="curve" smooth="yes"/>
      <point x="700" y="261"/>
      <point x="756" y="312"/>
      <point x="756" y="394" type="curve" smooth="yes"/>
      <point x="756" y="462"/>
      <point x="705" y="535"/>
      <point x="554" y="662" type="curve" smooth="yes"/>
    </contour>
  </outline>
</glyph>
<glyph name="sixdeva" format="1">
  <advance width="1144"/>
  <unicode hex="096C"/>
  <outline>
    <contour>
      <point x="759" y="136" type="line"/>
      <point x="1020" y="219" type="line"/>
      <point x="1191" y="-129" type="line"/>
      <point x="935" y="-232" type="line"/>
    </contour>
    <contour>
      <point x="520" y="383" type="curve" smooth="yes"/>
      <point x="520" y="316"/>
      <point x="581" y="263"/>
      <point x="691" y="263" type="curve" smooth="yes"/>
      <point x="746" y="263"/>
      <point x="820" y="284"/>
      <point x="903" y="311" type="curve"/>
      <point x="725" y="180" type="line"/>
      <point x="697" y="230"/>
      <point x="680" y="282"/>
      <point x="680" y="330" type="curve" smooth="yes"/>
      <point x="680" y="395"/>
      <point x="731" y="450"/>
      <point x="858" y="450" type="curve" smooth="yes"/>
      <point x="1033" y="450"/>
      <point x="1177" y="368"/>
      <point x="1177" y="259" type="curve" smooth="yes"/>
      <point x="1177" y="142"/>
      <point x="1042" y="8"/>
      <point x="741" y="8" type="curve" smooth="yes"/>
      <point x="397" y="8"/>
      <point x="192" y="192"/>
      <point x="192" y="438" type="curve" smooth="yes"/>
      <point x="192" y="645"/>
      <point x="382" y="851"/>
      <point x="821" y="873" type="curve" smooth="yes"/>
      <point x="908" y="587" type="line"/>
      <point x="621" y="587"/>
      <point x="520" y="473"/>
    </contour>
    <contour>
      <point x="378" y="557" type="line"/>
      <point x="187" y="641"/>
      <point x="79" y="788"/>
      <point x="79" y="957" type="curve" smooth="yes"/>
      <point x="79" y="1149"/>
      <point x="249" y="1319"/>
      <point x="719" y="1319" type="curve"/>
      <point x="787" y="1041" type="line"/>
      <point x="492" y="1041"/>
      <point x="414" y="959"/>
      <point x="414" y="883" type="curve" smooth="yes"/>
      <point x="414" y="817"/>
      <point x="466" y="769"/>
      <point x="581" y="732" type="curve"/>
    </contour>
  </outline>
</glyph>
<glyph name="eightdeva" format="1">
  <advance width="1123"/>
  <unicode hex="096E"/>
  <outline>
    <contour>
      <point x="643" y="1316" type="line"/>
      <point x="929" y="1091" type="line"/>
      <point x="520" y="627" type="line" smooth="yes"/>
      <point x="447" y="544"/>
      <point x="429" y="495"/>
      <point x="429" y="440" type="curve" smooth="yes"/>
      <point x="429" y="377"/>
      <point x="492" y="320"/>
      <point x="571" y="320" type="curve" smooth="yes"/>
      <point x="677" y="320"/>
      <point x="784" y="367"/>
      <point x="967" y="507" type="curve"/>
      <point x="1151" y="204" type="line"/>
      <point x="965" y="69"/>
      <point x="820" y="23"/>
      <point x="622" y="23" type="curve" smooth="yes"/>
      <point x="295" y="23"/>
      <point x="75" y="227"/>
      <point x="75" y="484" type="curve" smooth="yes"/>
      <point x="75" y="603"/>
      <point x="111" y="713"/>
      <point x="224" y="841" type="curve" smooth="yes"/>
    </contour>
  </outline>
</glyph>
<glyph name="ninedeva" format="1">
  <advance width="1067"/>
  <unicode hex="096F"/>
  <outline>
    <contour>
      <point x="480" y="700" type="curve" smooth="yes"/>
      <point x="926" y="284" type="line"/>
      <point x="1005" y="210"/>
      <point x="1051" y="122"/>
      <point x="1051" y="48" type="curve" smooth="yes"/>
      <point x="1051" y="-27"/>
      <point x="1027" y="-97"/>
      <point x="996" y="-155" type="curve"/>
      <point x="654" y="-84" type="line"/>
      <point x="680" y="-39"/>
      <point x="693" y="-4"/>
      <point x="693" y="34" type="curve" smooth="yes"/>
      <point x="693" y="77"/>
      <point x="681" y="111"/>
      <point x="630" y="159" type="curve" smooth="yes"/>
      <point x="291" y="480" type="line"/>
      <point x="132" y="630"/>
      <point x="60" y="752"/>
      <point x="60" y="928" type="curve" smooth="yes"/>
      <point x="60" y="1117"/>
      <point x="213" y="1312"/>
      <point x="498" y="1312" type="curve" smooth="yes"/>
      <point x="803" y="1312"/>
      <point x="974" y="1107"/>
      <point x="974" y="877" type="curve" smooth="yes"/>
      <point x="974" y="674"/>
      <point x="820" y="503"/>
      <point x="582" y="467" type="curve"/>
      <point x="405" y="680" type="line"/>
      <point x="587" y="715"/>
      <point x="664" y="802"/>
      <point x="664" y="891" type="curve" smooth="yes"/>
      <point x="664" y="971"/>
      <point x="606" y="1038"/>
      <point x="521" y="1038" type="curve" smooth="yes"/>
      <point x="436" y="1038"/>
      <point x="382" y="968"/>
      <point x="382" y="891" type="curve" smooth="yes"/>
      <point x="382" y="820"/>
      <point x="410" y="765"/>
    </contour>
  </outline>
</glyph>
<glyph name="awdevaKSH" format="1">
  <advance width="2375"/>
  <unicode hex="0975"/>
  <outline>
    <contour>
      <point x="1938" y="1208" type="line"/>
      <point x="1938" y="1499" type="line"/>
      <point x="1938" y="1554"/>
      <point x="1912" y="1588"/>
      <point x="1817" y="1588" type="curve" smooth="yes"/>
      <point x="1761" y="1588"/>
      <point x="1713" y="1558"/>
      <point x="1601" y="1558" type="curve" smooth="yes"/>
      <point x="1471" y="1558"/>
      <point x="1381" y="1616"/>
      <point x="1301" y="1717" type="curve"/>
      <point x="1405" y="1876" type="line"/>
      <point x="1486" y="1799"/>
      <point x="1537" y="1775"/>
      <point x="1594" y="1775" type="curve" smooth="yes"/>
      <point x="1685" y="1775"/>
      <point x="1766" y="1820"/>
      <point x="1909" y="1820" type="curve" smooth="yes"/>
      <point x="2071" y="1820"/>
      <point x="2187" y="1712"/>
      <point x="2187" y="1536" type="curve" smooth="yes"/>
      <point x="2187" y="1208" type="line"/>
    </contour>
    <contour>
      <point x="1760" y="1160" type="line"/>
      <point x="1709" y="1283" type="line"/>
      <point x="1682" y="1346"/>
      <point x="1645" y="1383"/>
      <point x="1566" y="1383" type="curve" smooth="yes"/>
      <point x="1498" y="1383"/>
      <point x="1449" y="1355"/>
      <point x="1328" y="1355" type="curve" smooth="yes"/>
      <point x="1184" y="1355"/>
      <point x="1078" y="1421"/>
      <point x="982" y="1523" type="curve"/>
      <point x="1094" y="1671" type="line"/>
      <point x="1182" y="1593"/>
      <point x="1249" y="1566"/>
      <point x="1320" y="1566" type="curve" smooth="yes"/>
      <point x="1428" y="1566"/>
      <point x="1506" y="1608"/>
      <point x="1608" y="1608" type="curve" smooth="yes"/>
      <point x="1816" y="1608"/>
      <point x="1880" y="1543"/>
      <point x="1956" y="1330" type="curve" smooth="yes"/>
      <point x="2018" y="1160" type="line"/>
    </contour>
    <component base="aadeva"/>
  </outline>
</glyph>
<glyph name="ddadevaMAW" format="1">
  <advance width="1309"/>
  <unicode hex="0978"/>
  <outline>
    <contour>
      <point x="-30" y="1065" type="line"/>
      <point x="-30" y="1293" type="line"/>
      <point x="1339" y="1293" type="line"/>
      <point x="1339" y="1065" type="line"/>
    </contour>
    <contour>
      <point x="538" y="785" type="line"/>
      <point x="592" y="801"/>
      <point x="667" y="809"/>
      <point x="745" y="809" type="curve" smooth="yes"/>
      <point x="1018" y="809"/>
      <point x="1209" y="645"/>
      <point x="1209" y="410" type="curve" smooth="yes"/>
      <point x="1209" y="265"/>
      <point x="1140" y="129"/>
      <point x="1070" y="53" type="curve"/>
      <point x="776" y="159" type="line"/>
      <point x="844" y="253"/>
      <point x="899" y="352"/>
      <point x="899" y="432" type="curve" smooth="yes"/>
      <point x="899" y="490"/>
      <point x="858" y="529"/>
      <point x="794" y="529" type="curve" smooth="yes"/>
      <point x="706" y="529"/>
      <point x="610" y="480"/>
      <point x="512" y="376" type="curve"/>
      <point x="563" y="480" type="line"/>
      <point x="563" y="332" type="line" smooth="yes"/>
      <point x="563" y="243"/>
      <point x="520" y="191"/>
      <point x="442" y="191" type="curve" smooth="yes"/>
      <point x="360" y="191"/>
      <point x="227" y="248"/>
      <point x="126" y="349" type="curve" smooth="yes"/>
      <point x="63" y="412"/>
      <point x="26" y="487"/>
      <point x="26" y="544" type="curve" smooth="yes"/>
      <point x="26" y="606"/>
      <point x="61" y="647"/>
      <point x="153" y="675" type="curve" smooth="yes"/>
      <point x="251" y="704" type="line"/>
      <point x="215" y="675" type="line"/>
      <point x="215" y="1104" type="line"/>
      <point x="563" y="1104" type="line"/>
      <point x="563" y="671" type="line"/>
    </contour>
    <contour>
      <point x="459" y="3" type="move" name="btm"/>
    </contour>
    <contour>
      <point x="214" y="1293" type="move" name="top"/>
    </contour>
  </outline>
</glyph>
<glyph name="zhadeva" format="1">
  <advance width="1736"/>
  <unicode hex="0979"/>
  <outline>
    <component base="nuktadeva" xScale="0.884443922625" yScale="0.884443922625" xOffset="1322" yOffset="20"/>
    <component base="nuktadeva" xScale="0.884443922625" yScale="0.884443922625" xOffset="1660" yOffset="125"/>
    <component base="jadeva"/>
    <component base="nuktadeva" xScale="0.884443922625" yScale="0.884443922625" xOffset="1007" yOffset="155"/>
    <contour>
      <point x="1149" y="1293" type="move" name="top"/>
    </contour>
  </outline>
</glyph>
<glyph name="jjyadeva" format="1">
  <advance width="1422"/>
  <unicode hex="097A"/>
  <outline>
    <contour>
      <point x="-30" y="1065" type="line"/>
      <point x="-30" y="1293" type="line"/>
      <point x="1452" y="1293" type="line"/>
      <point x="1452" y="1065" type="line"/>
    </contour>
    <contour>
      <point x="320" y="1104" type="line"/>
      <point x="650" y="1104" type="line"/>
      <point x="650" y="933" type="line" smooth="yes"/>
      <point x="650" y="713"/>
      <point x="559" y="588"/>
      <point x="334" y="518" type="curve"/>
      <point x="343" y="622" type="line"/>
      <point x="408" y="539"/>
      <point x="502" y="481"/>
      <point x="616" y="481" type="curve" smooth="yes"/>
      <point x="771" y="481"/>
      <point x="874" y="552"/>
      <point x="931" y="684" type="curve"/>
      <point x="931" y="245" type="line"/>
      <point x="875" y="204"/>
      <point x="808" y="190"/>
      <point x="714" y="190" type="curve" smooth="yes"/>
      <point x="409" y="190"/>
      <point x="138" y="367"/>
      <point x="-5" y="647" type="curve"/>
      <point x="12" y="674" type="line"/>
      <point x="229" y="745"/>
      <point x="320" y="823"/>
      <point x="320" y="956" type="curve" smooth="yes"/>
    </contour>
    <contour>
      <point x="885" y="1104" type="line"/>
      <point x="1233" y="1104" type="line"/>
      <point x="1233" y="0" type="line"/>
      <point x="885" y="0" type="line"/>
    </contour>
    <contour>
      <point x="1033" y="526" type="line"/>
      <point x="879" y="431" type="line"/>
      <point x="402" y="1070" type="line"/>
      <point x="565" y="1167" type="line"/>
    </contour>
    <contour>
      <point x="885" y="1293" type="move" name="top"/>
    </contour>
  </outline>
</glyph>
<glyph name="endash" format="1">
  <advance width="988"/>
  <unicode hex="2013"/>
  <outline>
    <contour>
      <point x="100" y="453" type="line"/>
      <point x="100" y="701" type="line"/>
      <point x="888" y="701" type="line"/>
      <point x="888" y="453" type="line"/>
    </contour>
  </outline>
</glyph>
<glyph name="emdash" format="1">
  <advance width="1906"/>
  <unicode hex="2014"/>
  <outline>
    <contour>
      <point x="100" y="453" type="line"/>
      <point x="100" y="701" type="line"/>
      <point x="1806" y="701" type="line"/>
      <point x="1806" y="453" type="line"/>
    </contour>
  </outline>
</glyph>
<glyph name="afii00208" format="1">
  <advance width="1843"/>
  <unicode hex="2015"/>
  <outline>
    <contour>
      <point x="68" y="373" type="line"/>
      <point x="68" y="621" type="line"/>
      <point x="1775" y="621" type="line"/>
      <point x="1775" y="373" type="line"/>
    </contour>
  </outline>
</glyph>
<glyph name="quoteleft" format="1">
  <advance width="689"/>
  <unicode hex="2018"/>
  <outline>
    <contour>
      <point x="143" y="789" type="line"/>
      <point x="130" y="809" type="line"/>
      <point x="190" y="1044"/>
      <point x="243" y="1212"/>
      <point x="289" y="1314" type="curve"/>
      <point x="539" y="1314" type="line"/>
      <point x="499" y="1127"/>
      <point x="470" y="952"/>
      <point x="451" y="789" type="curve"/>
    </contour>
  </outline>
</glyph>
<glyph name="quoteright" format="1">
  <advance width="670"/>
  <unicode hex="2019"/>
  <outline>
    <contour>
      <point x="526" y="1314" type="line"/>
      <point x="540" y="1294" type="line"/>
      <point x="485" y="1075"/>
      <point x="431" y="906"/>
      <point x="380" y="789" type="curve"/>
      <point x="130" y="789" type="line"/>
      <point x="171" y="980"/>
      <point x="200" y="1155"/>
      <point x="218" y="1314" type="curve"/>
    </contour>
  </outline>
</glyph>
<glyph name="quotedblleft" format="1">
  <advance width="1148"/>
  <unicode hex="201C"/>
  <outline>
    <contour>
      <point x="602" y="789" type="line"/>
      <point x="589" y="809" type="line"/>
      <point x="649" y="1044"/>
      <point x="702" y="1212"/>
      <point x="748" y="1314" type="curve"/>
      <point x="998" y="1314" type="line"/>
      <point x="958" y="1127"/>
      <point x="929" y="952"/>
      <point x="910" y="789" type="curve"/>
    </contour>
    <contour>
      <point x="143" y="789" type="line"/>
      <point x="130" y="809" type="line"/>
      <point x="190" y="1044"/>
      <point x="243" y="1212"/>
      <point x="289" y="1314" type="curve"/>
      <point x="539" y="1314" type="line"/>
      <point x="499" y="1127"/>
      <point x="470" y="952"/>
      <point x="451" y="789" type="curve"/>
    </contour>
  </outline>
</glyph>
<glyph name="quotedblright.deva" format="1">
  <advance width="1246"/>
  <unicode hex="201D"/>
  <outline>
    <contour>
      <point x="585" y="1314" type="line"/>
      <point x="599" y="1294" type="line"/>
      <point x="544" y="1075"/>
      <point x="490" y="906"/>
      <point x="439" y="789" type="curve"/>
      <point x="189" y="789" type="line"/>
      <point x="230" y="980"/>
      <point x="259" y="1155"/>
      <point x="277" y="1314" type="curve"/>
    </contour>
    <contour>
      <point x="1044" y="1314" type="line"/>
      <point x="1057" y="1294" type="line"/>
      <point x="1001" y="1071"/>
      <point x="948" y="903"/>
      <point x="898" y="789" type="curve"/>
      <point x="648" y="789" type="line"/>
      <point x="689" y="980"/>
      <point x="718" y="1155"/>
      <point x="736" y="1314" type="curve"/>
    </contour>
  </outline>
</glyph>
<glyph name="quotedblright" format="1">
  <advance width="1128"/>
  <unicode hex="201D"/>
  <outline>
    <contour>
      <point x="526" y="1314" type="line"/>
      <point x="540" y="1294" type="line"/>
      <point x="485" y="1075"/>
      <point x="431" y="906"/>
      <point x="380" y="789" type="curve"/>
      <point x="130" y="789" type="line"/>
      <point x="171" y="980"/>
      <point x="200" y="1155"/>
      <point x="218" y="1314" type="curve"/>
    </contour>
    <contour>
      <point x="985" y="1314" type="line"/>
      <point x="998" y="1294" type="line"/>
      <point x="942" y="1071"/>
      <point x="889" y="903"/>
      <point x="839" y="789" type="curve"/>
      <point x="589" y="789" type="line"/>
      <point x="630" y="980"/>
      <point x="659" y="1155"/>
      <point x="677" y="1314" type="curve"/>
    </contour>
  </outline>
</glyph>
<glyph name="bullet" format="1">
  <advance width="723"/>
  <unicode hex="2022"/>
  <outline>
    <contour>
      <point x="67" y="673" type="curve" smooth="yes"/>
      <point x="67" y="882"/>
      <point x="172" y="997"/>
      <point x="361" y="997" type="curve" smooth="yes"/>
      <point x="550" y="997"/>
      <point x="656" y="878"/>
      <point x="656" y="673" type="curve" smooth="yes"/>
      <point x="656" y="466"/>
      <point x="545" y="348"/>
      <point x="361" y="348" type="curve" smooth="yes"/>
      <point x="174" y="348"/>
      <point x="67" y="464"/>
    </contour>
  </outline>
</glyph>
<glyph name="ellipsis" format="1">
  <advance width="1598"/>
  <unicode hex="2026"/>
  <outline>
    <contour>
      <point x="77" y="149" type="curve" smooth="yes"/>
      <point x="77" y="260"/>
      <point x="144" y="322"/>
      <point x="269" y="322" type="curve" smooth="yes"/>
      <point x="388" y="322"/>
      <point x="454" y="260"/>
      <point x="454" y="149" type="curve" smooth="yes"/>
      <point x="454" y="41"/>
      <point x="384" y="-23"/>
      <point x="269" y="-23" type="curve" smooth="yes"/>
      <point x="150" y="-23"/>
      <point x="77" y="40"/>
    </contour>
    <contour>
      <point x="610" y="149" type="curve" smooth="yes"/>
      <point x="610" y="260"/>
      <point x="677" y="322"/>
      <point x="802" y="322" type="curve" smooth="yes"/>
      <point x="921" y="322"/>
      <point x="986" y="260"/>
      <point x="986" y="149" type="curve" smooth="yes"/>
      <point x="986" y="41"/>
      <point x="917" y="-23"/>
      <point x="802" y="-23" type="curve" smooth="yes"/>
      <point x="683" y="-23"/>
      <point x="610" y="40"/>
    </contour>
    <contour>
      <point x="1143" y="149" type="curve" smooth="yes"/>
      <point x="1143" y="260"/>
      <point x="1210" y="322"/>
      <point x="1335" y="322" type="curve" smooth="yes"/>
      <point x="1454" y="322"/>
      <point x="1519" y="260"/>
      <point x="1519" y="149" type="curve" smooth="yes"/>
      <point x="1519" y="41"/>
      <point x="1450" y="-23"/>
      <point x="1335" y="-23" type="curve" smooth="yes"/>
      <point x="1216" y="-23"/>
      <point x="1143" y="40"/>
    </contour>
  </outline>
</glyph>
<glyph name="uni20B9.deva" format="1">
  <advance width="1276"/>
  <unicode hex="20B9"/>
  <outline>
    <contour>
      <point x="130" y="737" type="curve"/>
      <point x="130" y="955" type="line"/>
      <point x="1096" y="955" type="line"/>
      <point x="1096" y="737" type="line"/>
      <point x="1096" y="737"/>
      <point x="130" y="737"/>
    </contour>
    <contour>
      <point x="130" y="1076" type="curve"/>
      <point x="130" y="1294" type="line"/>
      <point x="1096" y="1294" type="line"/>
      <point x="1096" y="1076" type="line"/>
      <point x="1096" y="1076"/>
      <point x="130" y="1076"/>
    </contour>
    <contour>
      <point x="166" y="479" type="line"/>
      <point x="169" y="566" type="line"/>
      <point x="449" y="580"/>
      <point x="569" y="708"/>
      <point x="569" y="851" type="curve" smooth="yes"/>
      <point x="569" y="988"/>
      <point x="468" y="1077"/>
      <point x="336" y="1077" type="curve" smooth="yes"/>
      <point x="316" y="1077" type="line"/>
      <point x="316" y="1077"/>
      <point x="319" y="1254"/>
      <point x="319" y="1254" type="curve"/>
      <point x="411" y="1254" type="line" smooth="yes"/>
      <point x="726" y="1254"/>
      <point x="912" y="1057"/>
      <point x="912" y="833" type="curve" smooth="yes"/>
      <point x="912" y="609"/>
      <point x="765" y="467"/>
      <point x="530" y="383" type="curve"/>
      <point x="530" y="482" type="line"/>
      <point x="937" y="17" type="line"/>
      <point x="938" y="0" type="line"/>
      <point x="575" y="0" type="line"/>
    </contour>
  </outline>
</glyph>
<glyph name="minus" format="1">
  <advance width="1043"/>
  <unicode hex="2212"/>
  <outline>
    <contour>
      <point x="65" y="529" type="line"/>
      <point x="65" y="770" type="line"/>
      <point x="976" y="770" type="line"/>
      <point x="976" y="529" type="line"/>
    </contour>
  </outline>
</glyph>
<glyph name=".notdef" format="1">
  <advance width="1133"/>
  <outline>
    <contour>
      <point x="100" y="1293" type="line"/>
      <point x="1033" y="1293" type="line"/>
      <point x="1033" y="0" type="line"/>
      <point x="100" y="0" type="line"/>
    </contour>
    <contour>
      <point x="750" y="247" type="line"/>
      <point x="750" y="1065" type="line"/>
      <point x="392" y="1065" type="line"/>
      <point x="392" y="247" type="line"/>
    </contour>
  </outline>
</glyph>
<glyph name="anusvaradeva2" format="1">
  <advance width="0"/>
  <outline>
    <contour>
      <point x="-70" y="1758" type="curve" smooth="yes"/>
      <point x="43" y="1758"/>
      <point x="93" y="1681"/>
      <point x="93" y="1614" type="curve" smooth="yes"/>
      <point x="93" y="1547"/>
      <point x="43" y="1468"/>
      <point x="-70" y="1468" type="curve" smooth="yes"/>
      <point x="-178" y="1468"/>
      <point x="-234" y="1543"/>
      <point x="-234" y="1614" type="curve" smooth="yes"/>
      <point x="-234" y="1682"/>
      <point x="-180" y="1758"/>
    </contour>
    <contour>
      <point x="-539" y="1293" type="move" name="_top"/>
    </contour>
  </outline>
</glyph>
<glyph name="bhaprehalfdeva" format="1">
  <advance width="999"/>
  <outline>
    <contour>
      <point x="727" y="959" type="curve" smooth="yes"/>
      <point x="727" y="650" type="line"/>
      <point x="694" y="693" type="line"/>
      <point x="1237" y="693" type="line"/>
      <point x="1257" y="410" type="line"/>
      <point x="677" y="410" type="line"/>
      <point x="727" y="459" type="line"/>
      <point x="727" y="329" type="line"/>
      <point x="727" y="240"/>
      <point x="694" y="187"/>
      <point x="606" y="187" type="curve" smooth="yes"/>
      <point x="524" y="187"/>
      <point x="410" y="239"/>
      <point x="331" y="318" type="curve" smooth="yes"/>
      <point x="261" y="387"/>
      <point x="207" y="486"/>
      <point x="207" y="572" type="curve" smooth="yes"/>
      <point x="207" y="643"/>
      <point x="251" y="693"/>
      <point x="337" y="693" type="curve" smooth="yes"/>
      <point x="443" y="693" type="line"/>
      <point x="407" y="663" type="line"/>
      <point x="407" y="994" type="line" smooth="yes"/>
      <point x="407" y="1099"/>
      <point x="346" y="1160"/>
      <point x="271" y="1160" type="curve" smooth="yes"/>
      <point x="221" y="1160"/>
      <point x="191" y="1116"/>
      <point x="191" y="1072" type="curve" smooth="yes"/>
      <point x="191" y="1004"/>
      <point x="265" y="958"/>
      <point x="421" y="958" type="curve"/>
      <point x="424" y="755" type="line"/>
      <point x="63" y="756"/>
      <point x="-104" y="922"/>
      <point x="-104" y="1114" type="curve" smooth="yes"/>
      <point x="-104" y="1255"/>
      <point x="-5" y="1398"/>
      <point x="236" y="1398" type="curve" smooth="yes"/>
      <point x="525" y="1398"/>
      <point x="727" y="1215"/>
    </contour>
  </outline>
</glyph>
<glyph name="bharaprehalfdeva" format="1">
  <advance width="953"/>
  <outline>
    <contour>
      <point x="1385" y="318" type="line"/>
      <point x="802" y="-148" type="line"/>
      <point x="605" y="57" type="line"/>
      <point x="1206" y="532" type="line"/>
    </contour>
    <component base="bhaprehalfdeva"/>
  </outline>
</glyph>
<glyph name="caprehalfdeva" format="1">
  <advance width="982.0"/>
  <outline>
    <contour>
      <point x="62" y="634" type="line"/>
      <point x="62" y="908" type="line"/>
      <point x="822" y="908" type="line"/>
      <point x="822" y="634" type="line"/>
    </contour>
    <contour>
      <point x="1172" y="662" type="curve"/>
      <point x="1340" y="420" type="line"/>
      <point x="1177" y="247"/>
      <point x="1010" y="126"/>
      <point x="747" y="126" type="curve" smooth="yes"/>
      <point x="430" y="126"/>
      <point x="267" y="310"/>
      <point x="267" y="527" type="curve" smooth="yes"/>
      <point x="267" y="702"/>
      <point x="380" y="878"/>
      <point x="703" y="878" type="curve"/>
      <point x="766" y="637" type="line"/>
      <point x="641" y="638"/>
      <point x="587" y="579"/>
      <point x="587" y="508" type="curve" smooth="yes"/>
      <point x="587" y="444"/>
      <point x="635" y="404"/>
      <point x="717" y="404" type="curve" smooth="yes"/>
      <point x="848" y="404"/>
      <point x="1012" y="482"/>
    </contour>
    <contour>
      <point x="-30" y="1065" type="line"/>
      <point x="-30" y="1293" type="line"/>
      <point x="1012" y="1293" type="line"/>
      <point x="1012" y="1065" type="line"/>
    </contour>
  </outline>
</glyph>
<glyph name="chaprehalfdeva" format="1">
  <advance width="1679"/>
  <outline>
    <contour>
      <point x="701" y="816" type="curve"/>
      <point x="786" y="536" type="line"/>
      <point x="784" y="536"/>
      <point x="768" y="536"/>
      <point x="767" y="536" type="curve" smooth="yes"/>
      <point x="597" y="521"/>
      <point x="542" y="441"/>
      <point x="542" y="376" type="curve" smooth="yes"/>
      <point x="542" y="294"/>
      <point x="618" y="218"/>
      <point x="765" y="218" type="curve" smooth="yes"/>
      <point x="1053" y="218"/>
      <point x="1305" y="417"/>
      <point x="1305" y="602" type="curve" smooth="yes"/>
      <point x="1305" y="689"/>
      <point x="1272" y="739"/>
      <point x="1217" y="739" type="curve" smooth="yes"/>
      <point x="1152" y="739"/>
      <point x="1123" y="691"/>
      <point x="1123" y="637" type="curve" smooth="yes"/>
      <point x="1123" y="521"/>
      <point x="1182" y="462"/>
      <point x="1355" y="350" type="curve"/>
      <point x="1174" y="189" type="line"/>
      <point x="923" y="357"/>
      <point x="829" y="510"/>
      <point x="829" y="700" type="curve" smooth="yes"/>
      <point x="829" y="838"/>
      <point x="960" y="997"/>
      <point x="1179" y="997" type="curve" smooth="yes"/>
      <point x="1438" y="997"/>
      <point x="1596" y="825"/>
      <point x="1596" y="575" type="curve" smooth="yes"/>
      <point x="1596" y="258"/>
      <point x="1284" y="-55"/>
      <point x="790" y="-55" type="curve" smooth="yes"/>
      <point x="374" y="-55"/>
      <point x="194" y="183"/>
      <point x="194" y="408" type="curve" smooth="yes"/>
      <point x="194" y="604"/>
      <point x="361" y="801"/>
      <point x="679" y="816" type="curve" smooth="yes"/>
      <point x="681" y="816"/>
      <point x="699" y="816"/>
    </contour>
    <contour>
      <point x="613" y="756" type="curve"/>
      <point x="381" y="580" type="line"/>
      <point x="147" y="663"/>
      <point x="61" y="801"/>
      <point x="61" y="955" type="curve" smooth="yes"/>
      <point x="61" y="1095"/>
      <point x="207" y="1260"/>
      <point x="516" y="1264" type="curve"/>
      <point x="615" y="1085" type="line"/>
      <point x="471" y="1074"/>
      <point x="406" y="1001"/>
      <point x="406" y="920" type="curve" smooth="yes"/>
      <point x="406" y="840"/>
      <point x="469" y="779"/>
    </contour>
    <contour>
      <point x="1709" y="1065" type="line"/>
      <point x="-30" y="1065" type="line"/>
      <point x="-30" y="1293" type="line"/>
      <point x="1709" y="1293" type="line"/>
    </contour>
  </outline>
</glyph>
<glyph name="dabadeva" format="1">
  <advance width="1248"/>
  <outline>
    <contour>
      <point x="758" y="-197" type="line"/>
      <point x="633" y="-290" type="line"/>
      <point x="331" y="55" type="line"/>
      <point x="456" y="148" type="line"/>
    </contour>
    <contour>
      <point x="-30" y="1065" type="line"/>
      <point x="-30" y="1293" type="line"/>
      <point x="1278" y="1293" type="line"/>
      <point x="1278" y="1065" type="line"/>
    </contour>
    <contour>
      <point x="539" y="89" type="line"/>
      <point x="417" y="43"/>
      <point x="357" y="-34"/>
      <point x="360" y="-111" type="curve" smooth="yes"/>
      <point x="362" y="-169"/>
      <point x="411" y="-213"/>
      <point x="473" y="-213" type="curve" smooth="yes"/>
      <point x="619" y="-213"/>
      <point x="739" y="-40"/>
      <point x="704" y="187" type="curve"/>
      <point x="911" y="-197" type="line"/>
      <point x="810" y="-353"/>
      <point x="660" y="-445"/>
      <point x="471" y="-445" type="curve" smooth="yes"/>
      <point x="233" y="-445"/>
      <point x="94" y="-269"/>
      <point x="94" y="-105" type="curve" smooth="yes"/>
      <point x="94" y="44"/>
      <point x="176" y="184"/>
      <point x="348" y="280" type="curve"/>
    </contour>
    <contour>
      <point x="696" y="177" type="line"/>
      <point x="959" y="257" type="line"/>
      <point x="1234" y="-249" type="line"/>
      <point x="983" y="-354" type="line"/>
    </contour>
    <contour>
      <point x="700" y="52" type="curve" smooth="yes"/>
      <point x="307" y="52"/>
      <point x="68" y="261"/>
      <point x="68" y="518" type="curve" smooth="yes"/>
      <point x="68" y="734"/>
      <point x="211" y="908"/>
      <point x="567" y="908" type="curve" smooth="yes"/>
      <point x="771" y="908" type="line"/>
      <point x="702" y="852" type="line"/>
      <point x="702" y="1096" type="line"/>
      <point x="1050" y="1096" type="line"/>
      <point x="1050" y="665" type="line"/>
      <point x="692" y="665" type="line" smooth="yes"/>
      <point x="482" y="665"/>
      <point x="402" y="577"/>
      <point x="402" y="469" type="curve" smooth="yes"/>
      <point x="402" y="368"/>
      <point x="497" y="293"/>
      <point x="626" y="293" type="curve" smooth="yes"/>
      <point x="719" y="293"/>
      <point x="784" y="299"/>
      <point x="891" y="332" type="curve"/>
      <point x="676" y="222" type="line"/>
      <point x="644" y="277"/>
      <point x="619" y="322"/>
      <point x="619" y="379" type="curve" smooth="yes"/>
      <point x="619" y="446"/>
      <point x="671" y="515"/>
      <point x="809" y="515" type="curve" smooth="yes"/>
      <point x="1004" y="515"/>
      <point x="1170" y="420"/>
      <point x="1170" y="311" type="curve" smooth="yes"/>
      <point x="1170" y="200"/>
      <point x="1028" y="52"/>
    </contour>
    <contour>
      <point x="658" y="-490" type="move" name="btm"/>
    </contour>
    <contour>
      <point x="652" y="1293" type="move" name="top"/>
    </contour>
  </outline>
</glyph>
<glyph name="dabhadeva" format="1">
  <advance width="1497"/>
  <outline>
    <contour>
      <point x="368" y="26" type="curve"/>
      <point x="477" y="-121" type="line"/>
      <point x="404" y="-173"/>
      <point x="326" y="-212"/>
      <point x="226" y="-212" type="curve" smooth="yes"/>
      <point x="54" y="-212"/>
      <point x="-83" y="-99"/>
      <point x="-83" y="41" type="curve" smooth="yes"/>
      <point x="-83" y="170"/>
      <point x="23" y="289"/>
      <point x="226" y="289" type="curve" smooth="yes"/>
      <point x="374" y="289"/>
      <point x="492" y="229"/>
      <point x="556" y="147" type="curve" smooth="yes"/>
      <point x="728" y="-75" type="line"/>
      <point x="658" y="-61" type="line"/>
      <point x="1122" y="256" type="line"/>
      <point x="1281" y="52" type="line"/>
      <point x="812" y="-275" type="line"/>
      <point x="831" y="-215" type="line"/>
      <point x="880" y="-285" type="line" smooth="yes"/>
      <point x="904" y="-319"/>
      <point x="912" y="-340"/>
      <point x="912" y="-374" type="curve" smooth="yes"/>
      <point x="912" y="-431"/>
      <point x="846" y="-485"/>
      <point x="688" y="-485" type="curve" smooth="yes"/>
      <point x="497" y="-485"/>
      <point x="370" y="-419"/>
      <point x="370" y="-336" type="curve" smooth="yes"/>
      <point x="370" y="-297"/>
      <point x="389" y="-263"/>
      <point x="425" y="-234" type="curve" smooth="yes"/>
      <point x="509" y="-167" type="line"/>
      <point x="495" y="-218" type="line"/>
      <point x="320" y="26" type="line" smooth="yes"/>
      <point x="293" y="64"/>
      <point x="260" y="81"/>
      <point x="227" y="81" type="curve" smooth="yes"/>
      <point x="189" y="81"/>
      <point x="151" y="58"/>
      <point x="151" y="21" type="curve" smooth="yes"/>
      <point x="151" y="-14"/>
      <point x="177" y="-32"/>
      <point x="222" y="-32" type="curve" smooth="yes"/>
      <point x="263" y="-32"/>
      <point x="315" y="-15"/>
    </contour>
    <contour>
      <point x="-30" y="1065" type="line"/>
      <point x="-30" y="1293" type="line"/>
      <point x="1527" y="1293" type="line"/>
      <point x="1527" y="1065" type="line"/>
    </contour>
    <contour>
      <point x="946" y="177" type="line"/>
      <point x="1209" y="257" type="line"/>
      <point x="1484" y="-249" type="line"/>
      <point x="1233" y="-354" type="line"/>
    </contour>
    <contour>
      <point x="950" y="52" type="curve" smooth="yes"/>
      <point x="557" y="52"/>
      <point x="318" y="261"/>
      <point x="318" y="518" type="curve" smooth="yes"/>
      <point x="318" y="734"/>
      <point x="461" y="908"/>
      <point x="817" y="908" type="curve" smooth="yes"/>
      <point x="1021" y="908" type="line"/>
      <point x="952" y="852" type="line"/>
      <point x="952" y="1096" type="line"/>
      <point x="1300" y="1096" type="line"/>
      <point x="1300" y="665" type="line"/>
      <point x="942" y="665" type="line" smooth="yes"/>
      <point x="732" y="665"/>
      <point x="652" y="577"/>
      <point x="652" y="469" type="curve" smooth="yes"/>
      <point x="652" y="368"/>
      <point x="747" y="293"/>
      <point x="876" y="293" type="curve" smooth="yes"/>
      <point x="969" y="293"/>
      <point x="1034" y="299"/>
      <point x="1141" y="332" type="curve"/>
      <point x="926" y="222" type="line"/>
      <point x="894" y="277"/>
      <point x="869" y="322"/>
      <point x="869" y="379" type="curve" smooth="yes"/>
      <point x="869" y="446"/>
      <point x="921" y="515"/>
      <point x="1059" y="515" type="curve" smooth="yes"/>
      <point x="1254" y="515"/>
      <point x="1420" y="420"/>
      <point x="1420" y="311" type="curve" smooth="yes"/>
      <point x="1420" y="200"/>
      <point x="1278" y="52"/>
    </contour>
    <contour>
      <point x="879" y="-490" type="move" name="btm"/>
    </contour>
    <contour>
      <point x="902" y="1293" type="move" name="top"/>
    </contour>
  </outline>
</glyph>
<glyph name="dadadeva" format="1">
  <advance width="1269"/>
  <outline>
    <contour>
      <point x="762" y="-107" type="line"/>
      <point x="1023" y="-26" type="line"/>
      <point x="1234" y="-413" type="line"/>
      <point x="983" y="-518" type="line"/>
    </contour>
    <contour>
      <point x="1299" y="1065" type="line"/>
      <point x="-30" y="1065" type="line"/>
      <point x="-30" y="1293" type="line"/>
      <point x="1299" y="1293" type="line"/>
    </contour>
    <contour>
      <point x="488" y="183" type="curve" smooth="yes"/>
      <point x="488" y="86"/>
      <point x="578" y="25"/>
      <point x="698" y="25" type="curve" smooth="yes"/>
      <point x="781" y="25"/>
      <point x="876" y="31"/>
      <point x="949" y="53" type="curve"/>
      <point x="734" y="-49" type="line"/>
      <point x="683" y="49"/>
      <point x="672" y="82"/>
      <point x="672" y="127" type="curve" smooth="yes"/>
      <point x="672" y="193"/>
      <point x="731" y="247"/>
      <point x="869" y="247" type="curve" smooth="yes"/>
      <point x="1066" y="247"/>
      <point x="1227" y="150"/>
      <point x="1227" y="44" type="curve" smooth="yes"/>
      <point x="1227" y="-73"/>
      <point x="1075" y="-217"/>
      <point x="751" y="-217" type="curve" smooth="yes"/>
      <point x="389" y="-217"/>
      <point x="157" y="-44"/>
      <point x="157" y="214" type="curve" smooth="yes"/>
      <point x="157" y="446"/>
      <point x="352" y="615"/>
      <point x="676" y="615" type="curve" smooth="yes"/>
      <point x="845" y="615"/>
      <point x="995" y="592"/>
      <point x="1104" y="557" type="curve"/>
      <point x="1069" y="339" type="line"/>
      <point x="983" y="357"/>
      <point x="900" y="368"/>
      <point x="780" y="368" type="curve" smooth="yes"/>
      <point x="579" y="368"/>
      <point x="488" y="287"/>
    </contour>
    <contour>
      <point x="523" y="512" type="curve"/>
      <point x="303" y="345" type="line"/>
      <point x="137" y="439"/>
      <point x="38" y="555"/>
      <point x="38" y="683" type="curve" smooth="yes"/>
      <point x="38" y="823"/>
      <point x="149" y="935"/>
      <point x="393" y="935" type="curve" smooth="yes"/>
      <point x="799" y="935" type="line"/>
      <point x="733" y="870" type="line"/>
      <point x="733" y="1086" type="line"/>
      <point x="1081" y="1086" type="line"/>
      <point x="1081" y="707" type="line"/>
      <point x="522" y="707" type="line" smooth="yes"/>
      <point x="422" y="707"/>
      <point x="393" y="663"/>
      <point x="393" y="620" type="curve" smooth="yes"/>
      <point x="393" y="579"/>
      <point x="426" y="538"/>
    </contour>
    <contour>
      <point x="536.0" y="-490.0" type="move" name="btm"/>
    </contour>
    <contour>
      <point x="707.0" y="1293.0" type="move" name="top"/>
    </contour>
  </outline>
</glyph>
<glyph name="dadhadeva" format="1">
  <advance width="1553"/>
  <outline>
    <contour>
      <point x="568" y="-39" type="line"/>
      <point x="510" y="-71"/>
      <point x="463" y="-83"/>
      <point x="342" y="-83" type="curve" smooth="yes"/>
      <point x="86" y="-83"/>
      <point x="-81" y="75"/>
      <point x="-81" y="275" type="curve" smooth="yes"/>
      <point x="-81" y="430"/>
      <point x="25" y="550"/>
      <point x="173" y="550" type="curve" smooth="yes"/>
      <point x="338" y="550"/>
      <point x="431" y="449"/>
      <point x="431" y="305" type="curve" smooth="yes"/>
      <point x="431" y="186"/>
      <point x="336" y="90"/>
      <point x="198" y="66" type="curve"/>
      <point x="60" y="133" type="line"/>
      <point x="164" y="162"/>
      <point x="242" y="230"/>
      <point x="242" y="293" type="curve" smooth="yes"/>
      <point x="242" y="330"/>
      <point x="227" y="352"/>
      <point x="196" y="352" type="curve" smooth="yes"/>
      <point x="168" y="352"/>
      <point x="146" y="318"/>
      <point x="146" y="273" type="curve" smooth="yes"/>
      <point x="146" y="190"/>
      <point x="258" y="126"/>
      <point x="357" y="126" type="curve" smooth="yes"/>
      <point x="464" y="126"/>
      <point x="523" y="142"/>
      <point x="599" y="192" type="curve"/>
    </contour>
    <contour>
      <point x="865" y="65" type="line"/>
      <point x="739" y="20"/>
      <point x="696" y="-67"/>
      <point x="695" y="-117" type="curve" smooth="yes"/>
      <point x="695" y="-165"/>
      <point x="725" y="-200"/>
      <point x="784" y="-200" type="curve" smooth="yes"/>
      <point x="911" y="-200"/>
      <point x="1033" y="-39"/>
      <point x="1010" y="188" type="curve"/>
      <point x="1216" y="-197" type="line"/>
      <point x="1116" y="-352"/>
      <point x="973" y="-443"/>
      <point x="783" y="-443" type="curve" smooth="yes"/>
      <point x="556" y="-443"/>
      <point x="433" y="-283"/>
      <point x="433" y="-126" type="curve" smooth="yes"/>
      <point x="433" y="-13"/>
      <point x="478" y="130"/>
      <point x="670" y="245" type="curve"/>
    </contour>
    <contour>
      <point x="-30" y="1065" type="line"/>
      <point x="-30" y="1293" type="line"/>
      <point x="1583" y="1293" type="line"/>
      <point x="1583" y="1065" type="line"/>
    </contour>
    <contour>
      <point x="999" y="177" type="line"/>
      <point x="1262" y="257" type="line"/>
      <point x="1537" y="-249" type="line"/>
      <point x="1286" y="-354" type="line"/>
    </contour>
    <contour>
      <point x="1003" y="52" type="curve" smooth="yes"/>
      <point x="610" y="52"/>
      <point x="371" y="261"/>
      <point x="371" y="518" type="curve" smooth="yes"/>
      <point x="371" y="734"/>
      <point x="514" y="908"/>
      <point x="870" y="908" type="curve" smooth="yes"/>
      <point x="1074" y="908" type="line"/>
      <point x="1005" y="852" type="line"/>
      <point x="1005" y="1096" type="line"/>
      <point x="1353" y="1096" type="line"/>
      <point x="1353" y="665" type="line"/>
      <point x="995" y="665" type="line" smooth="yes"/>
      <point x="785" y="665"/>
      <point x="705" y="577"/>
      <point x="705" y="469" type="curve" smooth="yes"/>
      <point x="705" y="368"/>
      <point x="800" y="293"/>
      <point x="929" y="293" type="curve" smooth="yes"/>
      <point x="1022" y="293"/>
      <point x="1087" y="299"/>
      <point x="1194" y="332" type="curve"/>
      <point x="979" y="222" type="line"/>
      <point x="947" y="277"/>
      <point x="922" y="322"/>
      <point x="922" y="379" type="curve" smooth="yes"/>
      <point x="922" y="446"/>
      <point x="974" y="515"/>
      <point x="1112" y="515" type="curve" smooth="yes"/>
      <point x="1307" y="515"/>
      <point x="1473" y="420"/>
      <point x="1473" y="311" type="curve" smooth="yes"/>
      <point x="1473" y="200"/>
      <point x="1331" y="52"/>
    </contour>
    <contour>
      <point x="950.0" y="-490.0" type="move" name="btm"/>
    </contour>
    <contour>
      <point x="957.0" y="1293.0" type="move" name="top"/>
    </contour>
  </outline>
</glyph>
<glyph name="dadhayadeva" format="1">
  <advance width="2852"/>
  <outline>
    <contour>
      <point x="1470" y="1065" type="line"/>
      <point x="1470" y="1293" type="line"/>
      <point x="2882" y="1293" type="line"/>
      <point x="2882" y="1065" type="line"/>
    </contour>
    <contour>
      <point x="2316" y="1104" type="line"/>
      <point x="2664" y="1104" type="line"/>
      <point x="2664" y="0" type="line"/>
      <point x="2316" y="0" type="line"/>
    </contour>
    <contour>
      <point x="1231" y="665" type="line"/>
      <point x="1216" y="907" type="line"/>
      <point x="1734" y="907" type="line" smooth="yes"/>
      <point x="1987" y="907"/>
      <point x="2106" y="781"/>
      <point x="2106" y="628" type="curve" smooth="yes"/>
      <point x="2106" y="470"/>
      <point x="1980" y="368"/>
      <point x="1815" y="320" type="curve"/>
      <point x="1816" y="424" type="line"/>
      <point x="1890" y="378"/>
      <point x="1955" y="352"/>
      <point x="2039" y="352" type="curve" smooth="yes"/>
      <point x="2195" y="352"/>
      <point x="2306" y="433"/>
      <point x="2363" y="565" type="curve"/>
      <point x="2363" y="107" type="line"/>
      <point x="2306" y="86"/>
      <point x="2247" y="75"/>
      <point x="2154" y="75" type="curve" smooth="yes"/>
      <point x="1885" y="75"/>
      <point x="1670" y="208"/>
      <point x="1501" y="455" type="curve"/>
      <point x="1514" y="477" type="line"/>
      <point x="1742" y="514"/>
      <point x="1798" y="566"/>
      <point x="1798" y="611" type="curve" smooth="yes"/>
      <point x="1798" y="646"/>
      <point x="1772" y="665"/>
      <point x="1681" y="665" type="curve" smooth="yes"/>
    </contour>
    <component base="dadhadeva"/>
    <contour>
      <point x="2319" y="1" type="move" name="btm"/>
    </contour>
    <contour>
      <point x="1714.0" y="1293.0" type="move" name="top"/>
    </contour>
  </outline>
</glyph>
<glyph name="dagadeva" format="1">
  <advance width="1248"/>
  <outline>
    <contour>
      <point x="-30" y="1065" type="line"/>
      <point x="-30" y="1293" type="line"/>
      <point x="1278" y="1293" type="line"/>
      <point x="1278" y="1065" type="line"/>
    </contour>
    <contour>
      <point x="501" y="248" type="line"/>
      <point x="562" y="-304" type="line" smooth="yes"/>
      <point x="572" y="-398"/>
      <point x="551" y="-448"/>
      <point x="453" y="-448" type="curve" smooth="yes"/>
      <point x="296" y="-448"/>
      <point x="66" y="-315"/>
      <point x="66" y="-193" type="curve" smooth="yes"/>
      <point x="66" y="-143"/>
      <point x="100" y="-104"/>
      <point x="173" y="-96" type="curve" smooth="yes"/>
      <point x="285" y="-83" type="line"/>
      <point x="250" y="-122" type="line"/>
      <point x="212" y="216" type="line"/>
    </contour>
    <contour>
      <point x="696" y="177" type="line"/>
      <point x="959" y="257" type="line"/>
      <point x="1234" y="-249" type="line"/>
      <point x="983" y="-354" type="line"/>
    </contour>
    <contour>
      <point x="700" y="52" type="curve" smooth="yes"/>
      <point x="307" y="52"/>
      <point x="68" y="261"/>
      <point x="68" y="518" type="curve" smooth="yes"/>
      <point x="68" y="734"/>
      <point x="211" y="908"/>
      <point x="567" y="908" type="curve" smooth="yes"/>
      <point x="771" y="908" type="line"/>
      <point x="702" y="852" type="line"/>
      <point x="702" y="1096" type="line"/>
      <point x="1050" y="1096" type="line"/>
      <point x="1050" y="665" type="line"/>
      <point x="692" y="665" type="line" smooth="yes"/>
      <point x="482" y="665"/>
      <point x="402" y="577"/>
      <point x="402" y="469" type="curve" smooth="yes"/>
      <point x="402" y="368"/>
      <point x="497" y="293"/>
      <point x="626" y="293" type="curve" smooth="yes"/>
      <point x="719" y="293"/>
      <point x="784" y="299"/>
      <point x="891" y="332" type="curve"/>
      <point x="676" y="222" type="line"/>
      <point x="644" y="277"/>
      <point x="619" y="322"/>
      <point x="619" y="379" type="curve" smooth="yes"/>
      <point x="619" y="446"/>
      <point x="671" y="515"/>
      <point x="809" y="515" type="curve" smooth="yes"/>
      <point x="1004" y="515"/>
      <point x="1170" y="420"/>
      <point x="1170" y="311" type="curve" smooth="yes"/>
      <point x="1170" y="200"/>
      <point x="1028" y="52"/>
    </contour>
    <contour>
      <point x="582" y="-488" type="move" name="btm"/>
    </contour>
    <contour>
      <point x="652" y="1293" type="move" name="top"/>
    </contour>
  </outline>
</glyph>
<glyph name="daghadeva" format="1">
  <advance width="1554"/>
  <outline>
    <contour>
      <point x="567" y="-47" type="line"/>
      <point x="509" y="-71"/>
      <point x="448" y="-84"/>
      <point x="347" y="-84" type="curve" smooth="yes"/>
      <point x="137" y="-84"/>
      <point x="-9" y="50"/>
      <point x="-9" y="231" type="curve" smooth="yes"/>
      <point x="-9" y="396"/>
      <point x="154" y="562"/>
      <point x="395" y="562" type="curve" smooth="yes"/>
      <point x="460" y="562"/>
      <point x="497" y="558"/>
      <point x="547" y="558" type="curve"/>
      <point x="532" y="336" type="line"/>
      <point x="512" y="338"/>
      <point x="468" y="344"/>
      <point x="441" y="344" type="curve" smooth="yes"/>
      <point x="338" y="344"/>
      <point x="296" y="277"/>
      <point x="296" y="222" type="curve" smooth="yes"/>
      <point x="296" y="164"/>
      <point x="343" y="128"/>
      <point x="417" y="128" type="curve" smooth="yes"/>
      <point x="482" y="128"/>
      <point x="533" y="148"/>
      <point x="599" y="192" type="curve"/>
    </contour>
    <contour>
      <point x="-30" y="1065" type="line"/>
      <point x="-30" y="1293" type="line"/>
      <point x="1584" y="1293" type="line"/>
      <point x="1584" y="1065" type="line"/>
    </contour>
    <contour>
      <point x="865" y="65" type="line"/>
      <point x="739" y="20"/>
      <point x="696" y="-67"/>
      <point x="695" y="-117" type="curve" smooth="yes"/>
      <point x="695" y="-165"/>
      <point x="725" y="-200"/>
      <point x="784" y="-200" type="curve" smooth="yes"/>
      <point x="911" y="-200"/>
      <point x="1033" y="-39"/>
      <point x="1010" y="188" type="curve"/>
      <point x="1216" y="-197" type="line"/>
      <point x="1116" y="-352"/>
      <point x="973" y="-443"/>
      <point x="783" y="-443" type="curve" smooth="yes"/>
      <point x="556" y="-443"/>
      <point x="433" y="-283"/>
      <point x="433" y="-126" type="curve" smooth="yes"/>
      <point x="433" y="-13"/>
      <point x="478" y="130"/>
      <point x="670" y="245" type="curve"/>
    </contour>
    <contour>
      <point x="1002" y="177" type="line"/>
      <point x="1265" y="257" type="line"/>
      <point x="1540" y="-249" type="line"/>
      <point x="1289" y="-354" type="line"/>
    </contour>
    <contour>
      <point x="1006" y="52" type="curve" smooth="yes"/>
      <point x="613" y="52"/>
      <point x="374" y="261"/>
      <point x="374" y="518" type="curve" smooth="yes"/>
      <point x="374" y="734"/>
      <point x="517" y="908"/>
      <point x="873" y="908" type="curve" smooth="yes"/>
      <point x="1077" y="908" type="line"/>
      <point x="1008" y="852" type="line"/>
      <point x="1008" y="1096" type="line"/>
      <point x="1356" y="1096" type="line"/>
      <point x="1356" y="665" type="line"/>
      <point x="998" y="665" type="line" smooth="yes"/>
      <point x="788" y="665"/>
      <point x="708" y="577"/>
      <point x="708" y="469" type="curve" smooth="yes"/>
      <point x="708" y="368"/>
      <point x="803" y="293"/>
      <point x="932" y="293" type="curve" smooth="yes"/>
      <point x="1025" y="293"/>
      <point x="1090" y="299"/>
      <point x="1197" y="332" type="curve"/>
      <point x="982" y="222" type="line"/>
      <point x="950" y="277"/>
      <point x="925" y="322"/>
      <point x="925" y="379" type="curve" smooth="yes"/>
      <point x="925" y="446"/>
      <point x="977" y="515"/>
      <point x="1115" y="515" type="curve" smooth="yes"/>
      <point x="1310" y="515"/>
      <point x="1476" y="420"/>
      <point x="1476" y="311" type="curve" smooth="yes"/>
      <point x="1476" y="200"/>
      <point x="1334" y="52"/>
    </contour>
    <contour>
      <point x="950" y="-490" type="move" name="btm"/>
    </contour>
    <contour>
      <point x="957" y="1293" type="move" name="top"/>
    </contour>
  </outline>
</glyph>
<glyph name="damadeva" format="1">
  <advance width="1751"/>
  <outline>
    <contour>
      <point x="1211" y="1104" type="line"/>
      <point x="1559" y="1104" type="line"/>
      <point x="1559" y="0" type="line"/>
      <point x="1211" y="0" type="line"/>
    </contour>
    <contour>
      <point x="1259" y="519" type="line"/>
      <point x="1259" y="236" type="line"/>
      <point x="930" y="236" type="line"/>
      <point x="980" y="285" type="line"/>
      <point x="980" y="142" type="line" smooth="yes"/>
      <point x="980" y="53"/>
      <point x="945" y="-8"/>
      <point x="867" y="-8" type="curve" smooth="yes"/>
      <point x="811" y="-8"/>
      <point x="750" y="29"/>
      <point x="696" y="83" type="curve" smooth="yes"/>
      <point x="613" y="166"/>
      <point x="549" y="287"/>
      <point x="549" y="366" type="curve" smooth="yes"/>
      <point x="549" y="468"/>
      <point x="625" y="519"/>
      <point x="718" y="519" type="curve" smooth="yes"/>
    </contour>
    <contour>
      <point x="1781" y="1065" type="line"/>
      <point x="-30" y="1065" type="line"/>
      <point x="-30" y="1293" type="line"/>
      <point x="1781" y="1293" type="line"/>
    </contour>
    <contour>
      <point x="583" y="1086" type="line"/>
      <point x="931" y="1086" type="line"/>
      <point x="931" y="730" type="line"/>
      <point x="512" y="730" type="line" smooth="yes"/>
      <point x="435" y="730"/>
      <point x="406" y="702"/>
      <point x="406" y="664" type="curve" smooth="yes"/>
      <point x="406" y="625"/>
      <point x="445" y="605"/>
      <point x="499" y="605" type="curve" smooth="yes"/>
      <point x="651" y="605" type="line" smooth="yes"/>
      <point x="895" y="605"/>
      <point x="1013" y="472"/>
      <point x="1018" y="323" type="curve" smooth="yes"/>
      <point x="1021" y="237" type="line"/>
      <point x="659" y="237" type="line"/>
      <point x="659" y="291" type="line"/>
      <point x="659" y="327"/>
      <point x="626" y="348"/>
      <point x="575" y="348" type="curve" smooth="yes"/>
      <point x="503" y="348" type="line" smooth="yes"/>
      <point x="227" y="348"/>
      <point x="51" y="518"/>
      <point x="51" y="689" type="curve" smooth="yes"/>
      <point x="51" y="853"/>
      <point x="162" y="965"/>
      <point x="395" y="965" type="curve" smooth="yes"/>
      <point x="650" y="965" type="line"/>
      <point x="583" y="899" type="line"/>
    </contour>
    <contour>
      <point x="1211" y="7" type="move" name="btm"/>
    </contour>
    <contour>
      <point x="1211" y="1293" type="move" name="top"/>
    </contour>
  </outline>
</glyph>
